{"glyphs":{"0":{"ha":551,"x_min":28,"x_max":522,"o":"m 392 128 q 414 182 407 153 q 421 242 421 211 q 410 313 421 278 q 380 376 400 349 q 331 421 360 404 q 267 438 303 438 q 176 413 226 438 q 140 350 156 385 q 124 286 124 315 q 138 215 124 249 q 176 156 151 182 q 233 114 200 129 q 303 99 265 99 q 347 108 322 99 q 392 128 372 118 m 250 0 q 128 24 172 0 q 61 89 83 49 q 33 179 39 129 q 28 282 28 229 q 42 324 28 299 q 80 376 57 349 q 133 430 103 403 q 192 479 163 457 q 250 515 222 501 q 299 528 278 528 q 407 510 364 528 q 476 462 450 492 q 512 392 501 432 q 522 310 522 353 q 522 277 522 293 q 518 244 521 261 q 503 203 518 228 q 466 151 489 179 q 414 97 443 124 q 355 49 385 71 q 297 13 325 26 q 250 0 269 0 z "},"1":{"ha":263,"x_min":29,"x_max":233,"o":"m 119 0 q 124 53 122 18 q 128 128 126 88 q 132 207 131 168 q 133 274 133 246 q 133 319 133 294 q 131 365 133 343 q 125 404 129 386 q 113 431 121 422 q 102 428 113 431 q 78 423 92 426 q 53 417 65 419 q 36 414 40 414 l 29 429 q 71 465 44 446 q 124 500 97 483 q 172 527 150 517 q 203 536 194 538 l 214 521 q 228 467 225 507 q 232 360 232 426 q 231 205 232 294 q 233 3 231 115 l 119 0 z "},"2":{"ha":546,"x_min":93,"x_max":540,"o":"m 251 528 q 315 513 278 531 q 385 469 351 496 q 443 413 419 443 q 467 360 467 382 q 463 332 467 349 q 415 233 451 294 q 310 67 379 171 q 374 72 338 68 q 444 81 410 76 q 504 88 478 85 q 540 92 531 92 l 497 0 q 332 0 407 1 q 204 -1 257 -1 q 122 2 151 -1 q 93 15 93 6 l 165 74 q 167 72 165 72 q 206 118 181 88 q 257 183 231 149 q 307 252 283 218 q 344 307 331 286 q 358 328 353 321 q 367 342 364 336 q 374 353 371 347 q 382 369 378 358 q 331 410 361 403 q 269 406 300 417 q 210 372 238 396 q 171 322 183 349 q 151 339 163 328 q 130 360 140 350 q 113 380 119 371 q 104 392 106 389 q 115 413 101 393 q 149 458 128 433 q 198 504 171 483 q 251 528 225 525 z "},"3":{"ha":525,"x_min":21,"x_max":521,"o":"m 71 392 q 83 417 71 397 q 115 458 96 436 q 156 501 133 481 q 199 528 178 521 l 207 528 q 262 503 228 528 q 331 447 296 479 q 393 383 365 415 q 428 332 421 350 q 442 286 438 311 q 446 235 446 261 q 428 141 446 186 q 372 71 411 96 q 479 -23 438 26 q 521 -125 521 -72 q 497 -208 521 -167 q 438 -282 474 -249 q 357 -336 401 -315 q 269 -357 313 -357 q 184 -354 228 -357 q 104 -340 140 -351 q 44 -303 68 -328 q 21 -233 21 -278 q 22 -210 21 -222 q 28 -183 24 -199 q 43 -184 31 -183 q 72 -186 56 -185 q 105 -190 89 -187 q 129 -197 121 -193 q 132 -233 129 -215 q 143 -266 135 -251 q 165 -290 151 -281 q 199 -300 178 -300 q 288 -273 251 -300 q 347 -210 324 -246 q 380 -140 369 -174 q 390 -90 390 -106 q 368 0 390 -29 q 310 49 346 29 l 307 49 q 243 55 283 49 q 164 76 203 61 l 175 113 q 218 103 196 103 q 305 151 272 103 q 338 275 338 199 q 319 369 338 325 q 297 402 311 393 q 264 411 282 411 q 189 384 225 411 q 136 324 153 357 q 117 338 128 328 q 96 360 106 349 q 79 380 86 371 q 72 390 72 389 l 71 392 z "},"4":{"ha":685,"x_min":47,"x_max":638,"o":"m 599 -10 l 526 -10 q 526 -83 526 -46 q 525 -157 525 -121 q 526 -259 525 -210 q 528 -351 526 -308 l 414 -351 q 418 -298 415 -337 q 423 -208 421 -258 q 426 -103 425 -157 q 429 -10 428 -50 l 383 -10 q 310 -11 346 -11 q 240 -11 274 -11 q 164 -10 199 -11 q 103 -8 129 -10 q 62 -3 76 -6 q 47 6 47 0 l 108 61 q 164 124 131 82 q 230 215 197 167 q 290 309 263 263 q 326 383 317 356 q 360 428 338 406 q 406 469 383 450 q 405 472 406 471 q 404 474 404 472 l 447 506 q 450 507 449 507 q 451 508 451 507 l 497 540 q 522 452 517 540 q 526 200 526 364 l 526 72 l 533 72 q 602 77 574 75 q 638 82 631 79 l 599 -10 m 431 67 q 429 126 431 88 q 426 210 428 164 q 421 305 424 256 q 414 397 418 354 q 374 309 396 349 q 327 230 351 269 q 276 148 303 190 q 224 54 250 106 q 312 58 256 56 q 431 67 368 61 z "},"5":{"ha":613,"x_min":21,"x_max":592,"o":"m 546 344 l 453 344 q 356 344 404 344 q 268 343 308 343 q 172 347 211 343 q 174 310 174 326 q 174 281 174 294 q 172 226 174 253 q 167 150 169 199 q 297 121 233 147 q 411 55 361 94 q 491 -33 461 15 q 521 -125 521 -81 q 497 -208 521 -167 q 438 -282 474 -249 q 357 -336 401 -315 q 269 -357 313 -357 q 184 -354 228 -357 q 104 -340 140 -351 q 44 -303 68 -328 q 21 -233 21 -278 q 22 -210 21 -222 q 28 -183 24 -199 q 43 -184 31 -183 q 72 -186 56 -185 q 105 -190 89 -187 q 129 -197 121 -193 q 132 -233 129 -215 q 143 -266 135 -251 q 165 -290 151 -281 q 199 -300 178 -300 q 288 -273 251 -300 q 347 -210 324 -246 q 380 -140 369 -174 q 390 -90 390 -106 q 367 -9 390 -44 q 306 50 343 26 q 224 85 269 74 q 135 94 178 96 l 135 96 l 90 94 q 108 217 100 157 q 115 331 115 278 q 115 344 115 338 q 114 358 115 351 q 104 369 104 365 l 113 378 l 113 379 l 114 379 l 178 442 q 220 435 189 436 q 276 433 251 433 l 288 433 q 358 436 311 433 q 454 442 406 439 q 542 448 503 444 q 592 453 582 451 l 546 344 z "},"6":{"ha":596,"x_min":51,"x_max":543,"o":"m 286 -3 q 163 22 208 -3 q 93 85 117 46 q 62 175 69 125 q 51 278 54 225 q 53 290 51 286 q 65 373 56 317 q 91 499 74 429 q 133 644 108 569 q 192 778 158 718 q 270 878 226 839 q 367 918 314 918 q 411 906 389 918 q 453 879 433 894 q 490 847 474 864 q 514 821 506 831 l 497 792 q 453 822 469 811 q 404 832 438 832 q 275 733 328 832 q 186 457 222 633 l 192 461 q 217 482 203 471 q 247 503 232 493 q 279 519 263 513 q 313 525 296 525 q 440 501 393 525 q 509 436 486 476 q 538 345 532 396 q 543 243 543 294 q 514 176 543 217 q 444 95 485 135 q 359 26 403 56 q 286 -3 315 -3 m 185 403 q 163 353 169 381 q 156 296 156 325 q 168 223 156 258 q 204 160 181 188 q 260 117 228 133 q 333 100 293 100 q 419 119 376 100 q 433 167 429 142 q 438 219 438 193 q 428 296 438 258 q 399 363 418 333 q 350 410 379 392 q 282 428 321 428 q 236 422 260 428 q 185 403 213 417 z "},"7":{"ha":521,"x_min":11,"x_max":510,"o":"m 113 -351 q 144 -275 122 -325 q 194 -163 167 -225 q 253 -31 222 -101 q 315 107 285 39 q 370 237 344 175 q 413 343 396 299 q 362 342 389 342 q 304 342 335 342 l 175 342 q 119 342 147 342 q 63 340 90 342 l 11 453 q 62 447 21 450 q 153 441 103 444 q 251 435 203 438 q 324 433 299 433 l 335 433 q 387 434 361 433 q 426 440 413 435 l 490 383 l 490 379 l 510 363 q 486 350 508 354 q 448 231 475 307 q 385 60 421 156 q 307 -141 349 -35 q 226 -351 265 -247 l 113 -351 z "},"8":{"ha":624,"x_min":65,"x_max":560,"o":"m 288 -360 q 165 -336 210 -360 q 99 -275 121 -312 q 71 -190 76 -237 q 65 -92 65 -142 q 76 -58 65 -78 q 106 -15 88 -37 q 150 30 125 7 q 201 74 175 53 q 127 107 154 83 q 86 163 100 131 q 69 235 72 196 q 65 314 65 274 q 94 372 65 336 q 162 443 122 408 q 243 503 201 478 q 313 528 285 528 q 412 512 372 528 q 475 470 451 496 q 508 410 499 444 q 517 339 517 376 q 516 311 517 325 q 514 283 515 297 q 504 253 514 271 q 478 216 494 236 q 441 175 463 196 q 396 136 419 154 q 475 109 443 128 q 526 63 507 90 q 552 3 544 36 q 560 -65 560 -31 q 558 -95 560 -81 q 554 -125 557 -110 q 524 -190 554 -150 q 450 -267 493 -229 q 362 -333 407 -306 q 288 -360 317 -360 m 426 -244 q 456 -136 456 -197 q 445 -67 456 -101 q 415 -6 435 -33 q 366 37 394 21 q 301 53 338 53 q 213 28 260 53 q 181 -26 192 3 q 171 -83 171 -56 q 185 -150 171 -118 q 222 -207 199 -182 q 278 -247 246 -232 q 349 -262 311 -262 q 426 -244 389 -262 m 397 176 q 419 224 413 199 q 426 278 426 250 q 417 341 426 310 q 389 397 407 372 q 344 435 371 421 q 283 450 317 450 q 203 429 246 450 q 165 326 165 383 q 178 265 165 294 q 212 212 190 235 q 263 175 233 189 q 326 161 293 161 q 397 176 360 161 z "},"9":{"ha":643,"x_min":76,"x_max":568,"o":"m 333 515 q 457 491 411 515 q 526 427 503 467 q 558 337 550 388 q 568 235 565 286 q 567 222 568 226 q 556 143 564 196 q 532 26 547 90 q 493 -106 517 -39 q 438 -230 469 -174 q 363 -322 406 -286 q 268 -357 321 -357 q 222 -345 244 -357 q 181 -318 200 -333 q 145 -286 161 -303 q 121 -260 129 -269 l 136 -231 q 181 -260 164 -250 q 231 -269 197 -269 q 298 -251 268 -269 q 351 -194 328 -233 q 395 -94 375 -156 q 433 56 415 -32 l 428 51 q 372 10 404 32 q 307 -12 340 -12 q 180 12 226 -12 q 110 76 133 36 q 82 167 88 117 q 76 269 76 217 q 106 337 76 296 q 176 417 135 378 q 260 486 217 457 q 333 515 304 515 m 200 393 q 186 345 190 371 q 182 293 182 319 q 192 217 182 254 q 221 150 201 179 q 269 103 240 121 q 339 85 299 85 q 383 90 360 85 q 435 110 407 96 q 450 142 444 124 q 458 176 456 160 q 463 203 461 192 q 464 215 464 214 q 451 288 464 253 q 414 351 438 324 q 358 394 390 378 q 285 411 325 411 q 200 393 244 411 z "},"\u0000":{"ha":0,"x_min":0,"x_max":0,"o":""},"\r":{"ha":0,"x_min":0,"x_max":0,"o":""}," ":{"ha":310,"x_min":0,"x_max":0,"o":""},"आ":{"ha":1390,"x_min":53,"x_max":1428,"o":"m 475 804 q 421 865 475 860 q 357 845 393 863 q 285 803 321 828 q 217 751 249 779 q 169 701 186 724 l 96 792 q 169 857 125 828 q 263 901 207 881 q 397 922 319 922 q 472 917 436 922 q 534 896 507 911 q 577 854 561 881 q 593 788 593 828 q 570 692 593 744 q 503 586 547 639 q 544 543 517 572 q 596 479 571 514 q 658 498 625 486 q 722 525 692 510 q 778 558 753 540 q 819 596 804 576 q 818 699 819 647 q 817 801 817 750 l 681 801 l 644 897 l 1397 897 l 1428 801 l 1274 801 l 1274 -11 l 1169 18 l 1169 801 l 929 801 l 929 -11 l 822 18 l 822 482 q 729 413 775 436 q 644 381 683 390 l 650 381 q 661 321 661 347 q 635 206 661 258 q 563 117 608 154 q 459 58 518 79 q 333 36 400 36 q 226 59 272 36 q 144 121 179 82 q 87 210 110 160 q 53 314 64 260 l 114 392 q 164 297 139 343 q 219 214 189 250 q 288 155 250 178 q 375 132 325 132 q 513 169 465 132 q 560 268 560 206 q 526 379 560 317 q 418 507 493 442 q 370 474 397 490 q 308 440 343 458 l 260 526 q 345 585 306 550 q 413 660 385 621 q 458 737 442 699 q 475 804 475 775 z "},"ॲ":{"ha":1047,"x_min":53,"x_max":1113,"o":"m 475 804 q 421 865 475 860 q 357 845 393 863 q 285 803 321 828 q 217 751 249 779 q 169 701 186 724 l 96 792 q 169 857 125 828 q 263 901 207 881 q 397 922 319 922 q 472 917 436 922 q 534 896 507 911 q 577 854 561 881 q 593 788 593 828 q 570 692 593 744 q 503 586 547 639 q 544 543 517 572 q 596 479 571 514 q 658 498 625 486 q 722 525 692 510 q 778 558 753 540 q 819 596 804 576 q 818 699 819 647 q 817 801 817 750 l 681 801 l 644 897 l 1053 897 l 1085 801 l 929 801 l 929 -11 l 822 18 l 822 482 q 729 413 775 436 q 644 381 683 390 l 650 381 q 661 321 661 347 q 635 206 661 258 q 563 117 608 154 q 459 58 518 79 q 333 36 400 36 q 226 59 272 36 q 144 121 179 82 q 87 210 110 160 q 53 314 64 260 l 114 392 q 164 297 139 343 q 219 214 189 250 q 288 155 250 178 q 375 132 325 132 q 513 169 465 132 q 560 268 560 206 q 526 379 560 317 q 418 507 493 442 q 370 474 397 490 q 308 440 343 458 l 260 526 q 345 585 306 550 q 413 660 385 621 q 458 737 442 699 q 475 804 475 775 m 876 1054 q 922 1073 899 1054 q 963 1119 944 1092 q 992 1180 981 1147 q 1006 1240 1004 1213 l 1113 1206 q 1092 1136 1108 1172 q 1047 1070 1076 1100 q 976 1019 1018 1040 q 876 997 933 999 l 865 997 q 705 1051 765 997 q 625 1200 644 1104 l 732 1240 q 751 1166 736 1200 q 785 1107 765 1132 q 829 1068 806 1082 q 876 1054 853 1054 z "},"ॅ":{"ha":0,"x_min":-419,"x_max":69,"o":"m -167 1054 q -122 1073 -144 1054 q -82 1119 -100 1092 q -51 1180 -64 1147 q -37 1240 -39 1213 l 69 1206 q 49 1136 65 1172 q 3 1070 32 1100 q -69 1019 -26 1040 q -167 997 -111 999 l -178 997 q -339 1051 -278 997 q -419 1200 -400 1104 l -314 1240 q -294 1166 -308 1200 q -258 1107 -279 1132 q -214 1068 -237 1082 q -167 1054 -190 1054 z "},"ऐ":{"ha":681,"x_min":-43,"x_max":715,"o":"m 624 482 q 610 431 621 456 q 583 386 599 407 q 552 348 568 365 q 525 319 536 331 l 446 383 q 497 458 476 417 q 517 525 517 500 l 517 799 l 213 799 l 213 438 q 238 356 217 393 q 290 289 260 319 q 358 233 321 258 q 431 185 394 207 q 496 143 464 164 q 552 101 528 122 q 591 54 576 79 q 607 0 606 29 l 607 -7 q 581 -104 607 -56 q 501 -189 554 -153 l 424 -126 q 447 -101 435 -119 q 471 -58 460 -82 q 490 -8 482 -33 q 497 36 497 17 q 494 57 497 51 q 468 82 492 68 q 411 115 444 96 q 314 174 367 140 q 214 247 261 207 q 133 331 167 286 q 97 422 100 375 l 97 799 q 29 799 57 799 q -4 801 1 800 q -24 849 -14 825 q -43 897 -35 874 l 554 897 q 519 987 543 942 q 460 1068 494 1032 q 385 1126 426 1104 q 299 1149 343 1149 q 260 1147 294 1149 q 183 1129 225 1144 l 160 1224 q 203 1236 181 1231 q 245 1246 222 1242 q 292 1250 268 1250 l 307 1250 q 434 1208 378 1243 q 531 1124 490 1174 q 595 1014 571 1074 q 628 897 619 954 l 689 897 l 715 801 q 690 800 704 800 l 624 800 l 624 482 z "},"॔":{"ha":0,"x_min":-254,"x_max":-54,"o":"m -54 1199 q -82 1158 -67 1181 q -110 1110 -97 1135 q -133 1063 -124 1086 q -143 1019 -142 1039 l -250 996 q -254 1004 -254 996 q -250 1027 -254 1011 q -234 1072 -246 1043 q -203 1142 -222 1100 q -151 1243 -183 1183 l -54 1199 z "},"ै":{"ha":0,"x_min":-579,"x_max":-114,"o":"m -567 1022 q -404 1079 -483 1079 q -317 1063 -360 1079 q -237 1018 -274 1046 q -326 1112 -274 1075 q -440 1149 -378 1149 q -478 1147 -443 1149 q -554 1129 -512 1144 l -579 1224 q -535 1236 -558 1231 q -492 1246 -515 1242 q -446 1250 -469 1250 l -431 1250 q -297 1206 -354 1243 q -200 1117 -239 1168 q -140 1006 -161 1065 q -114 897 -119 947 l -214 897 q -290 965 -249 940 q -376 990 -331 990 q -441 977 -406 990 q -518 933 -476 964 l -567 1022 z "},"॒":{"ha":0,"x_min":-886,"x_max":-133,"o":"m -886 -104 l -164 -104 l -133 -200 l -846 -200 l -886 -104 z "},"ं":{"ha":0,"x_min":-118,"x_max":46,"o":"m -118 1140 q -94 1194 -118 1172 q -35 1217 -69 1217 q 22 1194 -1 1217 q 46 1140 46 1172 q 22 1089 46 1111 q -35 1067 -1 1067 q -94 1089 -69 1067 q -118 1140 -118 1111 z "},"औ":{"ha":1390,"x_min":53,"x_max":1428,"o":"m 475 804 q 421 865 475 860 q 357 845 393 863 q 285 803 321 828 q 217 751 249 779 q 169 701 186 724 l 96 792 q 169 857 125 828 q 263 901 207 881 q 397 922 319 922 q 472 917 436 922 q 534 896 507 911 q 577 854 561 881 q 593 788 593 828 q 570 692 593 744 q 503 586 547 639 q 544 543 517 572 q 596 479 571 514 q 658 498 625 486 q 722 525 692 510 q 778 558 753 540 q 819 596 804 576 q 818 699 819 647 q 817 801 817 750 l 681 801 l 644 897 l 1171 897 q 1093 967 1135 943 q 1010 990 1051 990 q 868 933 949 990 l 821 1022 q 983 1079 903 1079 q 1071 1063 1029 1079 q 1151 1015 1113 1046 q 1062 1111 1115 1074 q 947 1149 1008 1149 q 909 1147 943 1149 q 832 1129 875 1144 l 810 1224 q 854 1236 832 1231 q 896 1246 874 1242 q 940 1250 918 1250 l 956 1250 q 1081 1206 1025 1242 q 1176 1122 1136 1171 q 1241 1013 1217 1072 q 1274 897 1265 954 l 1397 897 l 1428 801 l 1274 801 l 1274 -11 l 1169 18 l 1169 801 l 929 801 l 929 -11 l 822 18 l 822 482 q 729 413 775 436 q 644 381 683 390 l 650 381 q 661 321 661 347 q 635 206 661 258 q 563 117 608 154 q 459 58 518 79 q 333 36 400 36 q 226 59 272 36 q 144 121 179 82 q 87 210 110 160 q 53 314 64 260 l 114 392 q 164 297 139 343 q 219 214 189 250 q 288 155 250 178 q 375 132 325 132 q 513 169 465 132 q 560 268 560 206 q 526 379 560 317 q 418 507 493 442 q 370 474 397 490 q 308 440 343 458 l 260 526 q 345 585 306 550 q 413 660 385 621 q 458 737 442 699 q 475 804 475 775 z "},"ऽ":{"ha":706,"x_min":32,"x_max":678,"o":"m 381 79 q 446 83 411 79 q 510 98 481 86 q 560 131 540 110 q 579 186 579 151 q 560 240 579 213 q 511 296 542 268 q 440 351 481 324 q 356 408 399 379 q 251 480 303 443 q 157 555 199 517 q 90 634 115 593 q 64 718 64 675 q 213 882 64 838 q 257 892 228 888 q 322 898 286 896 q 396 901 357 900 q 468 901 435 901 l 574 901 l 604 804 l 244 804 q 201 784 218 797 q 185 747 185 771 q 202 696 185 722 q 248 641 219 669 q 314 582 276 613 q 393 519 351 551 q 494 438 443 479 q 586 356 546 397 q 652 272 626 314 q 678 189 678 231 q 645 103 678 140 q 564 39 613 65 q 459 -1 515 13 q 356 -14 403 -14 q 218 9 274 -14 q 125 71 163 32 q 66 160 88 110 q 32 267 44 211 l 94 342 q 146 246 119 292 q 205 163 172 200 q 280 103 238 126 q 381 79 322 81 z "},"ॵ":{"ha":1390,"x_min":53,"x_max":1428,"o":"m 1060 1244 q 1092 1184 1076 1208 q 1124 1142 1108 1160 q 1153 1114 1139 1125 q 1181 1093 1167 1103 q 1215 1064 1199 1079 q 1244 1026 1232 1049 q 1263 973 1256 1004 q 1269 897 1269 942 l 1397 897 l 1428 801 l 1274 801 l 1274 -11 l 1169 18 l 1169 801 l 929 801 l 929 -11 l 822 18 l 822 482 q 729 413 775 436 q 644 381 683 390 l 650 381 q 661 321 661 347 q 635 206 661 258 q 563 117 608 154 q 459 58 518 79 q 333 36 400 36 q 226 59 272 36 q 144 121 179 82 q 87 210 110 160 q 53 314 64 260 l 114 392 q 164 297 139 343 q 219 214 189 250 q 288 155 250 178 q 375 132 325 132 q 513 169 465 132 q 560 268 560 206 q 526 379 560 317 q 418 507 493 442 q 370 474 397 490 q 308 440 343 458 l 260 526 q 345 585 306 550 q 413 660 385 621 q 458 737 442 699 q 475 804 475 775 q 462 848 475 832 q 421 865 449 864 q 357 843 393 861 q 285 801 321 825 q 217 751 249 778 q 169 701 186 724 l 96 792 q 169 857 125 828 q 263 901 207 881 q 397 922 319 922 q 472 917 436 922 q 534 896 507 911 q 577 854 561 881 q 593 788 593 828 q 570 692 593 744 q 503 586 547 639 q 544 543 517 572 q 596 479 571 514 q 658 498 625 486 q 722 525 692 510 q 778 558 753 540 q 819 596 804 576 q 818 699 819 647 q 817 801 817 750 l 681 801 l 644 897 l 1163 897 q 1112 921 1143 915 q 1044 926 1081 926 q 967 931 1007 928 q 888 951 928 935 q 813 1001 849 968 q 747 1093 776 1033 l 839 1167 q 888 1080 860 1111 q 946 1032 915 1049 q 1009 1008 976 1015 q 1072 997 1042 1001 q 1124 990 1100 993 q 1171 975 1149 986 q 1141 1006 1158 993 q 1104 1032 1124 1019 l 1092 1042 q 1024 1094 1058 1065 q 967 1171 989 1122 l 1060 1244 z "},"ब":{"ha":738,"x_min":-43,"x_max":772,"o":"m -43 897 l 742 897 l 772 801 l 599 801 l 599 646 l 599 221 q 600 -11 599 104 l 492 18 l 492 213 q 408 183 456 194 q 315 172 360 172 q 225 186 269 172 q 146 230 181 200 q 88 306 111 260 q 60 415 64 351 q 80 510 61 465 q 131 590 99 556 q 209 644 164 624 q 307 665 254 665 q 398 653 350 665 q 492 613 446 640 q 490 726 490 679 q 490 801 490 772 l -7 801 l -43 897 m 129 415 q 145 376 129 399 q 189 333 161 354 q 254 298 217 313 q 336 283 292 283 q 393 290 361 283 q 291 401 340 347 q 193 511 242 454 q 147 466 164 492 q 129 415 129 440 m 492 513 q 415 544 453 535 q 342 554 378 554 q 282 547 314 554 q 330 492 304 522 q 381 433 356 463 q 429 374 406 403 q 472 322 453 346 q 483 328 479 325 q 492 335 486 332 l 492 513 z "},"भ":{"ha":824,"x_min":40,"x_max":864,"o":"m 253 493 q 257 558 256 525 q 258 624 258 590 l 218 624 q 156 627 188 624 q 99 642 125 631 q 58 672 74 653 q 40 722 42 690 l 40 731 q 60 808 40 774 q 113 866 81 842 q 185 903 146 890 q 263 917 225 917 q 305 908 285 917 q 340 876 325 899 q 363 813 354 853 q 371 714 371 774 q 367 617 371 671 q 351 493 363 563 l 333 406 l 599 406 q 598 499 599 447 q 597 603 597 550 q 597 708 597 657 q 596 801 596 760 l 461 801 l 425 897 l 832 897 l 864 801 l 708 801 l 708 -11 l 601 18 l 601 310 l 340 310 q 326 248 335 278 q 299 206 317 218 q 235 226 265 210 q 180 263 204 242 q 141 310 156 285 q 126 357 126 335 q 148 398 126 382 q 222 414 169 414 l 239 414 q 247 453 243 432 q 253 493 250 474 m 258 686 q 245 785 254 744 q 222 829 236 826 q 192 824 210 829 q 156 809 174 818 q 126 788 139 800 q 114 764 114 776 q 153 719 114 744 q 258 686 192 694 z "},"च":{"ha":853,"x_min":-43,"x_max":892,"o":"m 18 649 l 497 649 l 528 554 l 369 554 q 309 501 336 529 q 263 444 282 472 q 233 392 243 417 q 221 350 222 368 q 256 267 221 297 q 338 238 292 238 q 422 249 376 238 q 508 281 467 261 q 581 326 549 300 q 628 379 613 351 q 628 474 628 418 q 627 590 628 531 q 626 706 626 650 q 626 801 626 761 l -7 801 l -43 897 l 860 897 l 892 801 l 739 801 l 739 -8 q 717 -5 735 -8 q 679 4 699 -1 q 629 18 656 10 l 629 222 q 572 176 601 193 q 515 149 543 158 q 462 135 488 139 q 414 132 436 132 q 311 146 367 132 q 207 186 256 160 q 126 250 158 213 q 93 336 93 288 q 103 393 93 364 q 131 450 114 422 q 169 504 147 478 q 213 554 190 531 l 54 554 l 18 649 z "},"ँ":{"ha":0,"x_min":-424,"x_max":65,"o":"m -171 1054 q -126 1073 -149 1054 q -85 1119 -103 1092 q -55 1180 -67 1147 q -43 1240 -43 1213 l 65 1206 q 44 1136 61 1172 q -1 1070 28 1100 q -73 1019 -31 1040 q -171 997 -115 999 l -182 997 q -343 1051 -282 997 q -424 1200 -404 1104 l -317 1240 q -298 1166 -312 1200 q -263 1107 -283 1132 q -219 1068 -243 1082 q -171 1054 -194 1054 m -260 1224 q -236 1275 -260 1253 q -176 1297 -212 1297 q -120 1275 -144 1297 q -96 1224 -96 1253 q -120 1170 -96 1192 q -176 1149 -144 1149 q -236 1170 -212 1149 q -260 1224 -260 1192 z "},"ऀ":{"ha":0,"x_min":-424,"x_max":65,"o":"m -171 1236 q -219 1222 -194 1236 q -263 1183 -243 1208 q -298 1124 -283 1158 q -317 1047 -312 1089 l -424 1092 q -344 1240 -404 1185 q -182 1294 -283 1294 l -171 1294 q -73 1272 -115 1292 q -1 1221 -31 1251 q 44 1154 28 1190 q 65 1085 61 1118 l -43 1049 q -55 1109 -43 1076 q -85 1170 -67 1142 q -126 1217 -103 1199 q -171 1236 -149 1236 m -260 1067 q -236 1120 -260 1099 q -176 1142 -212 1142 q -120 1120 -144 1142 q -96 1067 -96 1099 q -120 1015 -96 1038 q -176 993 -144 993 q -236 1015 -212 993 q -260 1067 -260 1038 z "},"छ":{"ha":967,"x_min":-37,"x_max":1006,"o":"m -37 897 l 971 897 l 1006 801 l 851 801 l 851 719 q 939 625 910 685 q 968 500 968 565 q 963 445 968 472 q 946 392 957 418 q 860 252 908 322 q 753 124 813 182 q 624 31 694 67 q 468 -6 553 -6 q 365 3 419 -6 q 263 33 311 13 q 176 89 214 54 q 125 175 139 124 q 111 275 111 226 q 141 413 111 351 q 211 524 171 475 q 108 621 149 569 q 67 731 67 672 q 72 768 67 749 q 83 801 76 788 l -1 801 l -37 897 m 742 744 q 740 774 742 758 q 739 801 739 790 l 208 801 q 185 747 185 786 q 213 656 185 692 q 283 592 240 619 q 364 648 324 625 q 424 681 404 671 q 444 640 435 658 q 458 611 451 625 q 465 593 465 597 q 388 544 429 575 q 310 472 346 513 q 252 381 275 431 q 229 278 229 332 q 268 150 229 211 q 324 98 290 115 q 399 81 358 81 q 573 138 476 81 q 767 315 669 196 q 642 453 685 376 q 599 596 599 531 q 639 702 599 663 q 742 744 679 742 m 758 690 q 756 692 757 690 q 754 693 756 693 q 733 665 743 693 q 722 594 722 638 q 742 491 722 549 q 811 376 761 433 q 847 453 836 417 q 857 522 857 490 q 848 583 857 556 q 824 632 839 611 q 792 667 810 653 q 758 690 775 682 z "},"द":{"ha":708,"x_min":-43,"x_max":771,"o":"m 549 582 q 454 592 496 589 q 379 594 413 594 q 259 583 308 594 q 179 553 210 572 q 135 508 149 535 q 122 451 122 482 l 122 446 q 143 363 124 401 q 194 298 163 325 q 264 255 225 271 q 342 238 303 239 q 422 246 386 238 q 413 277 415 263 q 411 303 411 292 q 431 348 411 335 q 479 361 450 361 q 527 353 501 361 q 578 330 553 344 q 623 296 603 315 q 656 253 643 276 q 638 231 651 242 q 605 208 624 219 q 565 187 586 197 q 525 168 543 176 q 617 56 560 110 q 771 -32 675 1 l 760 -89 q 744 -90 756 -90 q 676 -78 717 -90 q 594 -37 635 -65 q 516 38 553 -8 q 460 154 479 85 q 397 136 429 143 q 333 129 365 129 l 319 129 q 207 156 257 131 q 122 223 157 182 q 66 316 86 264 q 44 422 46 368 l 44 435 q 72 558 44 507 q 143 640 99 608 q 244 687 188 672 q 363 701 301 701 q 403 700 382 701 q 443 696 424 699 q 442 747 443 715 q 442 799 442 779 l -10 799 l -43 897 l 715 897 l 744 801 l 550 799 l 549 582 z "},"।":{"ha":386,"x_min":143,"x_max":247,"o":"m 244 881 q 246 775 246 881 q 246 485 246 669 l 246 144 q 247 -11 246 63 l 143 18 l 143 903 l 244 881 z "},"॥":{"ha":728,"x_min":143,"x_max":582,"o":"m 579 881 q 581 775 581 881 q 581 485 581 669 l 581 144 q 582 -11 581 63 l 475 18 l 475 903 l 579 881 m 244 881 q 246 775 246 881 q 246 485 246 669 l 246 144 q 247 -11 246 63 l 143 18 l 143 903 l 244 881 z "},"ड":{"ha":728,"x_min":-37,"x_max":764,"o":"m 207 324 q 110 423 142 372 q 76 519 78 474 l 76 525 q 158 648 76 601 q 400 694 240 694 l 438 694 q 457 694 447 694 q 478 693 467 694 l 478 799 l 1 799 q -19 849 -8 824 q -37 897 -29 874 l 735 897 l 764 801 l 583 799 l 583 665 q 585 586 583 626 q 454 597 518 592 q 340 601 390 601 q 235 588 275 601 q 196 538 196 575 q 238 442 196 500 q 372 454 308 454 q 493 440 439 454 q 585 399 547 426 q 645 333 624 372 q 667 243 667 294 q 635 112 667 163 q 556 33 603 61 q 458 -6 510 4 q 367 -17 406 -17 q 278 -9 318 -17 q 206 12 239 -1 q 146 42 174 25 q 92 78 118 60 l 92 165 q 259 102 176 124 q 408 81 342 81 q 527 107 481 81 q 576 186 574 133 l 576 194 q 559 264 576 235 q 513 311 542 293 q 444 338 483 329 q 364 346 406 346 q 288 340 326 346 q 213 324 249 335 l 207 324 z "},"ड़":{"ha":700,"x_min":-51,"x_max":738,"o":"m 193 324 q 96 423 128 372 q 63 519 64 474 l 63 525 q 144 648 63 601 q 386 694 226 694 l 424 694 q 443 694 433 694 q 464 693 453 694 l 464 799 l -12 799 q -33 849 -22 824 q -51 897 -43 874 l 708 897 l 738 801 q 690 800 715 800 l 569 800 l 569 665 q 571 586 569 626 q 440 597 504 592 q 326 601 376 601 q 222 588 261 601 q 182 538 182 575 q 224 442 182 500 q 358 454 294 454 q 479 440 425 454 q 572 399 533 426 q 631 333 610 372 q 653 243 653 294 q 621 112 653 163 q 542 33 589 61 q 444 -6 496 4 q 353 -17 392 -17 q 265 -9 304 -17 q 192 12 225 -1 q 132 42 160 25 q 78 78 104 60 l 78 165 q 245 102 163 124 q 394 81 328 81 q 513 107 467 81 q 563 186 560 133 l 563 194 q 545 264 563 235 q 499 311 528 293 q 431 338 469 329 q 350 346 392 346 q 274 340 313 346 q 199 324 235 335 l 193 324 m 258 -194 q 282 -140 258 -162 q 342 -118 306 -118 q 397 -140 374 -118 q 421 -194 421 -162 q 397 -246 421 -224 q 342 -268 374 -268 q 282 -246 306 -268 q 258 -194 258 -224 z "},"ढ":{"ha":750,"x_min":-57,"x_max":788,"o":"m 83 301 q 82 318 82 310 q 82 335 82 326 q 111 472 82 415 q 188 563 140 528 q 299 613 236 597 q 432 629 363 629 q 458 629 444 629 q 485 628 472 629 l 485 801 l -21 801 l -57 897 l 746 897 l 788 801 l 590 801 l 590 514 q 494 524 538 521 q 417 528 450 528 q 227 476 283 528 q 171 326 171 424 l 171 307 q 197 227 176 264 q 246 163 217 190 q 310 119 275 135 q 383 101 346 103 l 400 101 q 368 210 368 163 q 381 267 368 242 q 413 310 393 293 q 459 338 433 328 q 513 347 485 347 q 542 345 528 347 q 569 336 557 343 q 646 270 617 311 q 675 183 675 229 q 640 94 675 131 q 556 34 606 57 q 453 1 507 11 q 358 -8 399 -8 q 248 22 297 -7 q 163 95 199 50 q 107 194 128 140 q 83 301 86 249 m 485 110 q 558 165 529 135 q 588 229 588 196 q 581 260 588 247 q 550 279 568 279 q 518 270 535 279 q 488 247 501 261 q 465 213 474 232 q 456 172 456 193 q 463 140 456 157 q 485 110 469 124 z "},"ध":{"ha":864,"x_min":60,"x_max":903,"o":"m 60 769 q 75 834 60 806 q 116 882 90 863 q 174 912 142 901 q 242 922 207 922 q 326 893 293 922 q 358 819 358 864 q 331 742 358 783 q 242 660 304 700 q 269 634 256 647 q 294 611 283 621 q 359 654 326 635 q 406 681 392 674 q 426 640 417 658 q 442 610 435 625 q 449 592 449 596 q 386 556 422 581 q 317 497 350 531 q 260 426 285 464 q 232 350 236 388 q 267 267 232 297 q 349 238 303 238 q 433 249 388 238 q 519 281 478 261 q 592 326 560 300 q 639 379 624 351 q 639 474 639 418 q 638 590 639 531 q 638 706 638 650 q 638 801 638 761 l 528 801 l 490 897 l 871 897 l 903 801 l 747 801 q 747 742 747 776 q 746 667 746 707 q 746 586 746 628 q 746 504 746 544 l 746 157 q 747 -11 746 71 l 640 18 l 640 222 q 526 149 583 165 q 425 132 469 132 q 322 146 378 132 q 218 186 267 160 q 137 250 169 213 q 104 336 104 288 q 114 390 104 363 q 139 445 124 418 q 175 497 154 472 q 217 544 196 522 q 159 599 188 569 q 108 660 131 629 q 73 719 86 690 q 60 769 60 747 m 192 865 q 165 810 165 849 q 174 765 165 789 q 199 718 183 740 q 240 749 228 725 q 251 800 251 772 q 240 849 251 828 q 210 871 229 871 q 192 865 199 871 z "},"ऍ":{"ha":681,"x_min":-43,"x_max":715,"o":"m 624 482 q 610 431 621 456 q 583 386 599 407 q 552 348 568 365 q 525 319 536 331 l 446 383 q 497 458 476 417 q 517 525 517 500 l 517 799 l 213 799 l 213 438 q 238 356 217 393 q 290 289 260 319 q 358 233 321 258 q 431 185 394 207 q 496 143 464 164 q 552 101 528 122 q 591 54 576 79 q 607 0 606 29 l 607 -7 q 581 -104 607 -56 q 501 -189 554 -153 l 424 -126 q 447 -101 435 -119 q 471 -58 460 -82 q 490 -8 482 -33 q 497 36 497 17 q 494 57 497 51 q 468 82 492 68 q 411 115 444 96 q 314 174 367 140 q 214 247 261 207 q 133 331 167 286 q 97 422 100 375 l 97 799 q 29 799 57 799 q -4 801 1 800 q -24 849 -14 825 q -43 897 -35 874 l 689 897 l 715 801 q 690 800 704 800 l 624 800 l 624 482 m 378 1054 q 423 1073 400 1054 q 464 1119 446 1092 q 494 1180 482 1147 q 506 1240 506 1213 l 613 1206 q 592 1136 608 1172 q 548 1070 576 1100 q 477 1019 519 1040 q 378 997 435 999 l 367 997 q 206 1051 267 997 q 125 1200 144 1104 l 232 1240 q 252 1166 238 1200 q 287 1107 267 1132 q 331 1068 307 1082 q 378 1054 354 1054 z "},"ॕ":{"ha":0,"x_min":-65,"x_max":428,"o":"m 188 1085 q 233 1103 210 1085 q 274 1151 256 1122 q 303 1213 292 1179 q 315 1274 315 1246 l 422 1233 q 402 1165 418 1200 q 357 1099 386 1129 q 285 1049 328 1069 q 188 1028 243 1029 l 176 1028 q 15 1082 75 1028 q -65 1231 -46 1136 l 42 1271 q 60 1197 46 1231 q 95 1138 75 1163 q 140 1099 115 1113 q 188 1085 164 1085 m -65 993 l 406 993 l 428 926 l -40 926 l -65 993 z "},"ए":{"ha":681,"x_min":-43,"x_max":715,"o":"m 624 482 q 610 431 621 456 q 583 386 599 407 q 552 348 568 365 q 525 319 536 331 l 446 383 q 497 458 476 417 q 517 525 517 500 l 517 799 l 213 799 l 213 438 q 238 356 217 393 q 290 289 260 319 q 358 233 321 258 q 431 185 394 207 q 496 143 464 164 q 552 101 528 122 q 591 54 576 79 q 607 0 606 29 l 607 -7 q 581 -104 607 -56 q 501 -189 554 -153 l 424 -126 q 447 -101 435 -119 q 471 -58 460 -82 q 490 -8 482 -33 q 497 36 497 17 q 494 57 497 51 q 468 82 492 68 q 411 115 444 96 q 314 174 367 140 q 214 247 261 207 q 133 331 167 286 q 97 422 100 375 l 97 799 q 29 799 57 799 q -4 801 1 800 q -24 849 -14 825 q -43 897 -35 874 l 689 897 l 715 801 q 690 800 704 800 l 624 800 l 624 482 z "},"८":{"ha":685,"x_min":44,"x_max":593,"o":"m 44 167 q 81 313 44 232 q 172 477 117 394 q 291 638 226 560 q 411 778 356 717 q 506 875 467 839 q 547 911 544 911 l 593 828 q 514 748 560 799 q 419 634 468 697 q 321 501 369 571 q 234 365 272 432 q 172 238 196 297 q 149 138 149 179 q 159 107 149 118 q 186 90 169 96 q 222 83 203 85 q 257 82 240 82 q 403 146 342 82 q 522 340 464 210 l 589 264 q 553 158 576 208 q 494 68 529 107 q 413 6 460 29 q 306 -17 365 -17 q 193 -1 242 -17 q 111 39 144 14 q 61 97 78 64 q 44 167 44 131 z "},"ऎ":{"ha":681,"x_min":-43,"x_max":715,"o":"m 624 482 q 610 431 621 456 q 583 386 599 407 q 552 348 568 365 q 525 319 536 331 l 446 383 q 497 458 476 417 q 517 525 517 500 l 517 799 l 213 799 l 213 438 q 238 356 217 393 q 290 289 260 319 q 358 233 321 258 q 431 185 394 207 q 496 143 464 164 q 552 101 528 122 q 591 54 576 79 q 607 0 606 29 l 607 -7 q 581 -104 607 -56 q 501 -189 554 -153 l 424 -126 q 447 -101 435 -119 q 471 -58 460 -82 q 490 -8 482 -33 q 497 36 497 17 q 494 57 497 51 q 468 82 492 68 q 411 115 444 96 q 314 174 367 140 q 214 247 261 207 q 133 331 167 286 q 97 422 100 375 l 97 799 q 29 799 57 799 q -4 801 1 800 q -24 849 -14 825 q -43 897 -35 874 l 554 897 q 531 944 546 926 q 494 973 515 963 q 448 988 474 983 q 394 997 422 993 q 318 1009 358 1001 q 240 1034 278 1017 q 165 1084 201 1051 q 101 1171 129 1117 l 193 1244 q 242 1157 214 1189 q 302 1108 269 1125 q 369 1083 335 1090 q 436 1072 403 1076 q 504 1058 471 1067 q 563 1031 538 1050 q 607 981 589 1013 q 629 897 625 949 l 689 897 l 715 801 q 690 800 704 800 l 624 800 l 624 482 z "},"ॆ":{"ha":0,"x_min":-653,"x_max":-126,"o":"m -564 1244 q -513 1156 -542 1188 q -452 1107 -485 1124 q -386 1083 -419 1090 q -319 1072 -353 1076 q -250 1061 -283 1068 q -191 1036 -217 1054 q -148 985 -165 1018 q -126 897 -131 953 l -204 897 q -226 948 -211 929 q -260 977 -240 967 q -306 991 -281 988 q -357 997 -331 994 q -433 1008 -393 1001 q -511 1032 -472 1014 q -587 1083 -550 1050 q -653 1171 -624 1115 l -564 1244 z "},"े":{"ha":0,"x_min":-594,"x_max":-126,"o":"m -594 1224 q -551 1236 -574 1231 q -509 1246 -532 1242 q -462 1250 -486 1250 l -447 1250 q -313 1206 -371 1242 q -217 1119 -256 1169 q -156 1010 -178 1068 q -126 897 -133 951 l -201 897 q -233 984 -211 939 q -288 1065 -256 1029 q -363 1125 -321 1101 q -456 1149 -406 1149 q -495 1146 -460 1149 q -571 1129 -531 1143 l -594 1224 z "},"फ़":{"ha":1146,"x_min":-74,"x_max":1182,"o":"m 1017 417 q 906 486 988 486 q 665 399 811 486 q 667 248 667 321 q 668 117 667 175 q 669 -11 668 50 l 560 18 l 560 288 q 470 260 518 268 q 381 251 422 251 q 288 276 338 251 q 195 346 238 301 q 125 453 153 390 q 97 594 97 517 l 97 799 q 7 799 44 799 q -37 801 -31 800 l -74 897 l 1156 897 l 1182 801 q 1026 800 1110 800 q 863 799 956 799 q 668 799 769 799 l 668 526 q 769 567 717 553 q 868 582 822 582 q 1003 546 943 582 q 1101 426 1063 510 q 1122 363 1117 394 q 1129 296 1126 331 l 1129 281 q 1118 210 1129 247 q 1078 144 1107 174 q 997 94 1049 114 q 864 74 946 74 l 836 74 l 828 167 l 847 167 q 931 181 896 167 q 990 217 967 194 q 1024 271 1013 240 q 1035 333 1035 301 q 1031 376 1035 354 q 1017 417 1026 397 m 211 799 l 211 600 q 225 478 211 526 q 266 400 239 429 q 333 359 293 371 q 424 347 372 347 q 561 386 503 347 l 561 799 l 211 799 m 193 68 q 217 120 193 100 q 274 140 242 140 q 333 120 310 140 q 357 68 357 100 q 333 15 357 36 q 274 -6 310 -6 q 217 15 242 -6 q 193 68 193 36 z "},"फ":{"ha":1146,"x_min":-74,"x_max":1186,"o":"m 1017 417 q 906 486 988 486 q 800 465 860 486 q 668 400 740 444 l 668 -11 l 560 18 l 560 288 q 470 260 518 268 q 381 251 422 251 q 288 276 338 251 q 195 346 238 301 q 125 453 153 390 q 97 594 97 517 l 97 801 l -37 801 l -74 897 l 1156 897 l 1186 801 l 668 801 l 668 526 q 769 567 717 553 q 868 582 822 582 q 1003 546 943 582 q 1101 426 1063 510 q 1122 363 1117 394 q 1129 296 1126 331 l 1129 281 q 1118 210 1129 247 q 1078 144 1107 174 q 997 94 1049 114 q 864 74 946 74 l 836 74 l 828 167 l 847 167 q 931 181 896 167 q 990 217 967 194 q 1024 271 1013 240 q 1035 333 1035 301 q 1031 376 1035 354 q 1017 417 1026 397 m 211 801 l 211 600 q 225 478 211 526 q 266 400 239 429 q 333 359 293 371 q 424 347 372 347 q 498 357 463 347 q 560 386 533 367 l 560 801 l 211 801 z "},"५":{"ha":764,"x_min":122,"x_max":669,"o":"m 265 321 q 208 346 233 321 q 163 413 182 371 q 133 508 143 454 q 122 618 122 561 q 130 706 122 661 q 153 789 138 750 q 190 859 168 828 q 240 908 213 890 l 328 840 q 279 789 299 821 q 248 718 260 757 q 231 637 236 679 q 226 556 226 594 q 246 447 226 492 q 301 403 265 403 q 396 423 361 403 q 451 474 431 443 q 397 531 414 506 q 381 576 381 557 q 392 606 381 592 q 433 631 406 622 q 493 639 460 639 q 565 628 528 639 q 631 594 601 617 q 623 567 631 582 q 603 535 615 551 q 578 503 592 519 q 554 472 565 486 q 643 342 617 404 q 669 229 669 281 q 645 131 669 175 q 582 55 621 86 q 495 7 543 24 q 400 -10 447 -10 q 340 -1 369 -10 l 340 94 q 359 92 350 93 q 378 92 368 92 q 450 101 415 92 q 512 130 485 111 q 556 177 539 149 q 572 244 572 206 q 558 325 572 282 q 507 421 543 368 q 447 379 479 397 q 383 348 415 361 q 319 328 350 335 q 265 321 289 321 z "},"ग":{"ha":706,"x_min":-46,"x_max":746,"o":"m -46 897 l 711 897 l 746 801 l 589 801 l 589 646 l 589 221 q 590 -11 589 104 l 483 18 l 483 801 l 286 801 q 290 733 290 772 q 282 610 290 685 q 258 449 274 535 l 253 406 q 249 369 250 389 q 243 328 247 349 q 231 291 239 308 q 208 263 224 274 q 151 282 179 267 q 101 318 124 297 q 65 363 79 339 q 51 410 51 388 q 75 453 51 435 q 157 471 99 471 l 163 471 q 177 560 172 511 q 182 657 182 610 q 178 739 182 700 q 164 801 174 778 l -7 801 l -46 897 z "},"ॻ":{"ha":706,"x_min":-46,"x_max":742,"o":"m -46 897 l 711 897 l 742 801 l 589 800 l 589 643 l 589 219 q 590 -11 589 103 l 483 18 l 483 799 l 286 799 q 290 732 290 769 q 282 609 290 683 q 258 449 274 535 l 253 406 q 249 367 250 386 q 243 328 247 347 q 231 292 239 310 q 208 263 224 275 q 151 282 179 267 q 101 318 124 297 q 65 363 79 339 q 51 410 51 388 q 75 453 51 435 q 157 471 99 471 l 163 471 q 176 559 172 510 q 181 656 181 608 q 177 737 181 699 q 165 799 174 775 l -7 801 l -46 897 m 83 -104 l 582 -104 l 613 -200 l 119 -200 l 83 -104 z "},"घ":{"ha":871,"x_min":-51,"x_max":908,"o":"m -51 897 l 876 897 l 908 801 l 751 801 q 751 742 751 776 q 750 667 750 707 q 750 586 750 628 q 750 504 750 544 l 750 157 q 751 -11 750 71 l 644 18 l 644 222 q 531 149 588 165 q 429 132 474 132 q 326 146 382 132 q 222 186 271 160 q 141 250 174 213 q 108 336 108 288 q 133 431 108 385 q 196 519 158 478 q 92 617 135 565 q 50 728 50 669 q 56 767 50 746 q 68 801 61 788 l -15 801 l -51 897 m 411 676 q 432 638 422 654 q 446 609 439 622 q 453 592 453 596 q 395 558 429 581 q 328 505 361 536 q 268 434 294 474 q 236 350 242 394 q 272 267 236 297 q 353 238 307 238 q 437 249 392 238 q 523 281 482 261 q 596 326 564 300 q 643 379 628 351 q 643 474 643 418 q 642 590 643 531 q 642 706 642 650 q 642 801 642 761 l 199 801 q 176 780 183 796 q 168 744 168 764 q 197 650 168 686 q 268 586 225 614 q 346 643 308 619 q 403 676 383 667 l 411 676 z "},"ग़":{"ha":706,"x_min":-46,"x_max":742,"o":"m -46 897 l 711 897 l 742 801 q 700 800 724 800 l 589 800 l 589 643 l 589 219 q 590 -11 589 103 l 483 18 l 483 799 l 286 799 q 290 732 290 769 q 282 609 290 683 q 258 449 274 535 l 253 406 q 249 369 250 389 q 243 328 247 349 q 231 291 239 308 q 208 263 224 274 q 151 282 179 267 q 101 318 124 297 q 65 363 79 339 q 51 410 51 388 q 75 453 51 435 q 157 471 99 471 l 163 471 q 176 559 172 510 q 181 656 181 608 q 177 737 181 699 q 165 799 174 775 l -7 799 l -46 897 m 146 68 q 168 120 146 100 q 225 140 190 140 q 283 120 261 140 q 306 68 306 100 q 283 15 306 36 q 225 -6 261 -6 q 168 15 190 -6 q 146 68 146 36 z "},"ॽ":{"ha":753,"x_min":89,"x_max":661,"o":"m 338 446 l 343 446 q 422 460 379 446 q 500 502 464 475 q 560 568 536 529 q 585 656 585 607 q 574 719 585 683 q 506 797 554 771 q 389 824 457 824 q 252 804 326 824 q 99 744 178 785 l 89 828 q 142 864 114 846 q 203 896 169 882 q 276 918 236 910 q 364 926 315 926 q 454 915 403 926 q 551 875 506 904 q 629 794 597 846 q 661 663 661 743 q 645 560 661 610 q 601 471 629 511 q 533 401 572 431 q 446 358 493 371 l 446 279 l 446 117 q 447 38 446 76 l 343 64 l 343 353 l 338 446 z "},"ह":{"ha":703,"x_min":-51,"x_max":740,"o":"m 500 167 l 500 175 q 502 193 501 185 q 503 210 503 201 q 490 294 503 260 q 454 350 476 328 q 403 382 432 372 q 342 392 374 392 q 233 354 271 392 q 196 249 196 317 q 219 135 196 182 q 281 58 242 89 q 370 7 319 26 q 476 -28 421 -12 l 501 -35 l 446 -101 q 330 -90 386 -101 q 228 -53 274 -78 q 149 13 182 -28 q 103 110 115 53 q 98 147 100 129 q 96 183 96 165 q 146 360 96 281 q 117 390 132 372 q 90 428 103 407 q 69 472 78 449 q 61 519 61 494 q 143 647 61 600 q 386 694 225 694 l 424 694 q 443 694 433 694 q 464 693 453 694 l 464 801 l -12 801 l -51 897 l 708 897 l 740 801 l 571 801 l 571 586 l 517 590 q 415 599 464 596 q 324 603 367 603 q 222 589 261 603 q 182 536 182 575 q 221 440 182 496 q 325 482 265 469 q 372 486 347 486 q 467 467 422 486 q 545 415 511 449 q 599 337 579 382 q 619 239 619 292 q 611 167 619 204 l 500 167 z "},"इ":{"ha":701,"x_min":-51,"x_max":740,"o":"m 475 -261 l 464 -261 q 396 -247 436 -261 q 315 -200 356 -232 q 238 -117 274 -168 q 186 4 203 -67 q 146 4 167 4 q 106 6 125 4 q 72 13 88 8 q 50 24 57 17 q 65 82 51 53 q 97 133 78 111 q 139 169 117 156 q 182 183 161 183 l 188 183 q 224 159 208 179 q 243 99 239 139 q 338 85 294 89 q 415 81 382 81 q 485 88 457 81 q 531 108 514 94 q 555 142 547 122 q 564 186 563 161 l 564 193 q 547 263 564 235 q 499 310 529 292 q 431 338 469 329 q 350 346 392 346 q 194 322 274 346 q 96 422 128 371 q 63 519 64 474 l 63 525 q 144 648 63 601 q 386 694 226 694 l 424 694 q 443 694 433 694 q 464 693 453 694 l 464 801 l -12 801 l -51 897 l 708 897 l 740 801 l 569 801 l 569 667 q 571 586 569 628 q 440 597 504 592 q 326 601 376 601 q 222 588 261 601 q 182 538 182 575 q 224 442 182 500 q 358 454 294 454 q 569 400 490 454 q 651 243 647 346 l 651 232 q 622 113 651 160 q 549 37 593 65 q 449 -3 504 8 q 342 -15 393 -15 q 303 -14 321 -15 q 268 -10 285 -12 q 351 -119 299 -67 q 489 -204 403 -172 l 475 -261 z "},"ई":{"ha":701,"x_min":-51,"x_max":738,"o":"m 475 -261 l 464 -261 q 396 -247 436 -261 q 315 -200 356 -232 q 238 -117 274 -168 q 186 4 203 -67 q 146 4 167 4 q 106 6 125 4 q 72 13 88 8 q 50 24 57 17 q 65 82 51 53 q 97 133 78 111 q 139 169 117 156 q 182 183 161 183 l 188 183 q 224 159 208 179 q 243 99 239 139 q 338 85 294 89 q 415 81 382 81 q 485 88 457 81 q 531 108 514 94 q 555 142 547 122 q 564 186 563 161 l 564 193 q 547 263 564 235 q 499 310 529 292 q 431 338 469 329 q 350 346 392 346 q 194 322 274 346 q 96 422 128 371 q 63 519 64 474 l 63 525 q 144 648 63 601 q 386 694 226 694 l 424 694 q 443 694 433 694 q 464 693 453 694 l 464 799 l -12 799 q -33 849 -22 824 q -51 897 -43 874 l 453 897 q 417 951 433 922 q 388 1007 400 979 q 368 1060 375 1035 q 361 1107 361 1086 q 363 1125 361 1119 q 421 1214 375 1185 q 525 1243 467 1243 q 547 1242 536 1243 q 568 1238 557 1240 l 571 1238 q 639 1199 613 1226 q 665 1136 665 1172 q 664 1117 665 1124 l 557 1117 q 560 1139 560 1131 q 551 1178 560 1161 q 524 1196 543 1196 q 510 1193 518 1196 q 480 1165 489 1185 q 471 1117 471 1144 q 497 1007 471 1068 q 558 897 522 946 l 708 897 l 738 801 q 690 800 715 800 l 569 800 l 569 665 q 571 586 569 626 q 440 597 504 592 q 326 601 376 601 q 222 588 261 601 q 182 538 182 575 q 224 442 182 500 q 358 454 294 454 q 569 400 490 454 q 651 243 647 346 l 651 232 q 622 113 651 160 q 549 37 593 65 q 449 -3 504 8 q 342 -15 393 -15 q 303 -14 321 -15 q 268 -10 285 -12 q 351 -119 299 -67 q 489 -204 403 -172 l 475 -261 z "},"ज":{"ha":983,"x_min":-51,"x_max":1017,"o":"m 310 594 l 751 594 l 751 801 l -15 801 l -51 897 l 986 897 l 1017 801 l 864 801 l 864 -8 q 842 -5 860 -8 q 804 4 824 -1 q 754 18 781 10 l 754 499 l 583 499 q 617 432 603 468 q 633 364 632 396 l 633 356 q 606 242 633 293 q 534 153 579 190 q 429 97 489 117 q 304 76 369 76 q 199 99 246 76 q 117 161 151 122 q 59 251 82 200 q 24 357 36 301 l 88 432 l 100 404 q 144 325 121 365 q 196 251 167 285 q 262 197 225 218 q 347 174 299 175 l 358 174 q 486 211 439 174 q 533 311 533 249 q 510 400 533 351 q 442 499 486 449 l 349 499 l 310 594 z "},"झ":{"ha":1004,"x_min":-51,"x_max":1042,"o":"m 475 -261 l 464 -261 q 396 -247 436 -261 q 315 -200 356 -232 q 238 -117 274 -168 q 186 4 203 -67 q 146 4 167 4 q 106 6 125 4 q 72 13 88 8 q 50 24 57 17 q 65 82 51 53 q 97 133 78 111 q 139 169 117 156 q 182 183 161 183 l 188 183 q 224 159 208 179 q 243 99 239 139 q 338 85 294 89 q 415 81 382 81 q 485 88 457 81 q 531 108 514 94 q 555 142 547 122 q 564 186 563 161 l 564 193 q 547 263 564 235 q 499 310 529 292 q 431 338 469 329 q 350 346 392 346 q 194 322 274 346 q 96 422 128 371 q 63 519 64 474 l 63 525 q 144 648 63 601 q 386 694 226 694 l 424 694 q 443 694 433 694 q 464 693 453 694 l 464 801 l -12 801 l -51 897 l 1011 897 l 1042 801 l 886 801 l 886 -11 l 779 18 l 779 367 q 713 317 749 339 q 643 282 678 296 q 650 263 649 272 q 653 243 651 254 l 653 233 q 624 112 653 160 q 549 36 594 64 q 449 -3 504 8 q 342 -15 393 -15 q 303 -14 321 -15 q 268 -10 285 -12 q 351 -119 299 -67 q 489 -204 403 -172 l 475 -261 m 564 586 q 437 597 497 592 q 326 601 376 601 q 222 588 261 601 q 182 538 182 575 q 224 442 182 500 q 357 454 294 454 q 497 435 436 454 q 594 376 557 415 q 708 426 660 397 q 779 486 757 454 q 777 644 778 565 q 776 801 776 722 l 569 801 l 569 667 q 571 586 569 628 l 564 586 z "},"ॼ":{"ha":983,"x_min":-51,"x_max":1017,"o":"m 310 594 l 751 594 l 751 801 l -15 801 l -51 897 l 986 897 l 1017 801 l 864 801 l 864 -8 q 842 -5 860 -8 q 804 4 824 -1 q 754 18 781 10 l 754 499 l 583 499 q 617 432 603 468 q 633 364 632 396 l 633 356 q 606 242 633 293 q 534 153 579 190 q 429 97 489 117 q 304 76 369 76 q 199 99 246 76 q 117 161 151 122 q 59 251 82 200 q 24 357 36 301 l 88 432 l 100 404 q 144 325 121 365 q 196 251 167 285 q 262 197 225 218 q 347 174 299 175 l 358 174 q 486 211 439 174 q 533 311 533 249 q 510 400 533 351 q 442 499 486 449 l 349 499 l 310 594 m 61 -104 l 857 -104 l 889 -200 l 97 -200 l 61 -104 z "},"क":{"ha":1043,"x_min":-85,"x_max":1075,"o":"m 906 501 q 797 568 876 568 q 689 547 750 568 q 557 483 628 526 l 557 147 q 558 -11 557 64 l 449 18 l 449 214 q 366 183 411 194 q 272 171 321 171 q 183 185 226 171 q 103 228 139 199 q 45 304 68 258 q 18 414 22 350 q 38 509 19 464 q 89 588 57 554 q 166 643 121 622 q 264 664 211 664 q 354 651 307 664 q 447 611 401 638 q 446 725 446 678 q 446 801 446 772 l -49 801 l -85 897 l 1044 897 l 1075 801 l 557 801 l 557 611 q 656 650 604 635 q 756 665 708 665 q 891 629 831 665 q 990 510 951 593 q 1010 445 1006 478 q 1018 381 1015 413 l 1018 365 q 1007 295 1018 332 q 967 228 996 258 q 886 178 938 199 q 753 158 835 158 l 725 158 l 717 251 l 736 251 q 820 265 785 251 q 878 302 856 279 q 913 356 901 325 q 924 418 924 386 q 919 460 924 439 q 906 501 915 482 m 88 414 q 103 375 88 397 q 146 333 118 353 q 212 298 174 313 q 294 283 250 283 q 369 294 331 283 q 449 333 408 306 l 449 514 q 374 544 413 535 q 300 554 336 554 q 217 542 256 554 q 149 509 178 529 q 104 464 121 489 q 88 414 88 439 z "},"ख":{"ha":990,"x_min":-89,"x_max":1025,"o":"m 438 3 l 426 3 q 321 32 382 3 q 203 121 260 61 q 108 269 147 181 q 68 476 68 357 l 68 488 l 136 501 q 192 485 171 485 q 228 510 218 485 q 239 575 239 535 q 228 676 239 618 q 206 801 218 735 l -53 801 l -89 897 l 993 897 l 1025 801 l 869 801 q 869 742 869 776 q 868 667 868 707 q 868 586 868 628 q 868 504 868 544 l 868 157 q 869 -11 868 71 l 763 18 l 763 265 q 690 242 731 251 q 614 232 650 232 q 533 243 572 232 q 463 279 494 254 q 413 345 432 304 q 390 444 393 386 l 390 453 q 407 536 390 497 q 453 603 424 575 q 522 649 482 632 q 611 665 563 665 q 683 656 646 665 q 760 624 719 646 l 760 801 l 329 801 q 342 715 336 760 q 349 631 349 671 q 340 551 349 589 q 309 484 331 514 q 249 434 288 454 q 153 408 211 414 q 197 297 167 351 q 267 199 226 242 q 355 130 307 156 q 456 104 403 104 l 469 104 l 438 3 m 454 444 q 468 411 454 431 q 506 374 482 392 q 564 343 531 356 q 636 331 597 331 q 697 340 664 331 q 764 369 729 349 q 761 452 763 410 q 760 535 760 494 q 640 567 704 567 q 567 556 601 567 q 508 527 533 544 q 469 488 483 510 q 454 444 454 465 z "},"ख़":{"ha":990,"x_min":-89,"x_max":1025,"o":"m 438 3 l 426 3 q 321 32 382 3 q 203 121 260 61 q 108 269 147 181 q 68 476 68 357 l 68 488 l 136 501 q 192 485 171 485 q 228 510 218 485 q 239 575 239 535 q 229 674 239 618 q 208 788 219 731 l 206 801 l -53 801 l -89 897 l 993 897 l 1025 801 l 869 801 q 869 742 869 776 q 868 667 868 707 q 868 586 868 628 q 868 504 868 544 l 868 157 q 869 -11 868 71 l 763 18 l 763 265 q 690 242 731 251 q 614 232 650 232 q 533 243 572 232 q 463 279 494 254 q 413 345 432 304 q 392 444 393 386 l 392 453 q 408 536 392 497 q 453 603 424 575 q 522 649 482 632 q 610 665 561 665 q 683 656 646 665 q 760 624 719 646 l 760 801 l 329 801 q 342 715 336 760 q 349 631 349 671 q 340 551 349 589 q 308 484 331 514 q 246 434 285 454 q 146 408 207 414 l 153 408 q 197 297 167 351 q 267 199 226 242 q 355 130 307 156 q 456 104 403 104 l 469 104 l 438 3 m 454 444 q 468 411 454 431 q 506 374 482 392 q 564 343 531 356 q 636 331 597 331 q 697 340 664 331 q 764 369 729 349 q 760 535 760 450 q 700 559 731 551 q 640 567 669 567 q 567 556 601 567 q 508 527 533 544 q 469 488 483 510 q 454 444 454 465 m -4 68 q 19 120 -4 100 q 78 140 43 140 q 135 120 111 140 q 158 68 158 100 q 135 15 158 36 q 78 -6 111 -6 q 19 15 43 -6 q -4 68 -4 36 z "},"ल":{"ha":988,"x_min":-87,"x_max":1025,"o":"m -87 897 l 996 897 l 1025 801 l 874 801 l 874 -8 q 852 -5 869 -8 q 815 4 835 -1 q 764 18 792 10 l 764 488 q 714 519 747 519 q 647 503 676 519 q 593 456 618 486 q 546 385 568 426 q 499 297 524 344 l 404 351 q 506 506 454 442 q 407 576 453 556 q 322 597 361 597 q 226 549 261 597 q 190 406 190 500 q 202 301 190 351 q 233 206 214 250 q 274 124 251 161 q 319 57 297 86 l 263 -10 l 232 31 q 181 100 208 63 q 132 181 154 138 q 95 269 110 224 q 81 364 81 315 q 102 486 81 428 q 163 589 124 544 q 256 659 203 633 q 375 685 310 685 q 433 676 404 685 q 490 652 463 667 q 540 620 517 638 q 585 585 564 603 q 697 624 636 624 q 763 613 733 624 l 763 801 l -51 801 l -87 897 z "},"ळ":{"ha":1081,"x_min":-51,"x_max":1118,"o":"m -51 897 l 1088 897 l 1118 801 l 808 801 l 808 678 l 803 678 q 903 642 857 667 q 985 581 950 618 q 1040 498 1019 544 q 1060 397 1060 451 q 1035 279 1060 338 q 971 175 1011 221 q 878 101 931 129 q 769 74 826 74 q 627 100 682 74 q 533 165 572 126 q 464 97 508 122 q 344 71 419 71 q 221 97 278 71 q 122 167 164 124 q 55 265 79 210 q 31 378 31 321 q 58 503 31 446 q 131 600 85 560 q 236 663 176 640 q 361 685 296 685 q 460 663 410 685 q 558 579 510 642 q 611 648 578 619 q 703 683 644 676 q 702 742 703 706 q 701 801 701 779 l -15 801 l -51 897 m 399 564 q 314 586 360 586 q 172 547 218 586 q 126 449 126 508 q 144 376 126 422 q 194 284 161 329 q 271 206 226 239 q 369 172 315 172 q 462 216 432 172 q 504 339 492 260 q 508 360 506 350 q 511 381 510 369 q 516 410 514 396 q 521 440 518 425 q 493 483 508 463 q 461 521 478 504 q 428 549 444 538 q 399 564 411 561 m 728 172 q 824 207 782 172 q 897 288 867 242 q 942 382 926 335 q 958 454 958 429 q 915 550 958 514 q 790 586 872 586 q 708 565 740 586 q 654 510 675 544 q 620 432 633 475 q 596 343 607 389 q 583 288 589 315 q 567 235 576 260 q 631 189 590 206 q 728 172 671 172 z "},"ऴ":{"ha":1086,"x_min":-51,"x_max":1118,"o":"m -51 897 l 1088 897 l 1118 801 l 808 801 l 808 678 l 803 678 q 903 642 857 667 q 985 581 950 618 q 1040 498 1019 544 q 1060 397 1060 451 q 1035 279 1060 338 q 971 175 1011 221 q 878 101 931 129 q 769 74 826 74 q 627 100 682 74 q 533 165 572 126 q 464 97 508 122 q 344 71 419 71 q 221 97 278 71 q 122 167 164 124 q 55 265 79 210 q 31 378 31 321 q 58 503 31 446 q 131 600 85 560 q 236 663 176 640 q 361 685 296 685 q 460 663 410 685 q 558 579 510 642 q 611 648 578 619 q 703 683 644 676 q 702 742 703 706 q 701 801 701 779 l -15 801 l -51 897 m 399 564 q 314 586 360 586 q 172 547 218 586 q 126 449 126 508 q 144 376 126 422 q 194 284 161 329 q 271 206 226 239 q 369 172 315 172 q 462 216 432 172 q 504 339 492 260 q 508 360 506 350 q 511 381 510 369 q 516 410 514 396 q 521 440 518 425 q 493 483 508 463 q 461 521 478 504 q 428 549 444 538 q 399 564 411 561 m 728 172 q 824 207 782 172 q 897 288 867 242 q 942 382 926 335 q 958 454 958 429 q 915 550 958 514 q 790 586 872 586 q 708 565 740 586 q 654 510 675 544 q 620 432 633 475 q 596 343 607 389 q 583 288 589 315 q 567 235 576 260 q 631 189 590 206 q 728 172 671 172 m 444 -57 q 468 -4 444 -25 q 525 17 492 17 q 584 -4 560 17 q 608 -57 608 -25 q 584 -109 608 -89 q 525 -129 560 -129 q 468 -109 492 -129 q 444 -57 444 -89 z "},"ॡ":{"ha":981,"x_min":-101,"x_max":1014,"o":"m -101 897 l 982 897 l 1014 801 l 857 801 l 857 624 q 857 475 857 551 q 858 335 857 399 q 859 228 858 271 q 860 183 860 186 q 802 167 819 181 q 785 139 785 154 q 794 115 785 126 q 819 99 804 104 q 875 104 849 99 l 854 32 q 801 13 818 25 q 785 -14 785 1 q 811 -48 785 -33 q 882 -62 838 -62 l 890 -62 l 876 -129 q 824 -122 853 -129 q 768 -97 794 -114 q 724 -50 742 -79 q 707 22 707 -21 q 717 54 707 42 q 743 76 726 67 q 717 118 728 94 q 707 175 707 142 q 720 209 707 194 q 754 233 733 224 q 750 360 751 297 q 749 488 749 424 q 728 510 742 501 q 700 519 715 519 q 634 503 663 519 q 581 456 606 486 q 533 385 556 426 q 485 297 510 344 l 390 351 q 492 506 440 442 q 393 576 439 556 q 308 597 347 597 q 213 549 247 597 q 178 406 178 500 q 190 301 178 351 q 219 206 201 250 q 260 124 238 161 q 306 57 283 86 l 249 -10 l 219 29 q 169 99 196 61 q 119 179 142 136 q 83 269 97 222 q 68 364 68 315 q 90 486 68 428 q 150 589 111 544 q 243 659 189 633 q 363 685 297 685 q 420 676 392 685 q 476 652 449 667 q 526 620 503 638 q 571 585 550 603 q 683 624 622 624 q 749 613 719 624 l 749 801 l -65 801 l -101 897 z "},"ॣ":{"ha":0,"x_min":-437,"x_max":57,"o":"m 21 -292 q 10 -289 15 -289 q -22 -301 -6 -289 q -39 -328 -39 -312 q -19 -355 -39 -343 q 38 -367 1 -367 l 50 -367 l 39 -424 q -6 -417 19 -424 q -53 -397 -31 -411 q -90 -358 -75 -382 q -104 -297 -104 -333 q -88 -260 -104 -274 q -50 -240 -72 -247 q -96 -156 -96 -194 q -87 -130 -96 -149 q -67 -93 -78 -111 l -58 -78 q -40 -39 -49 -58 q -32 -4 -32 -19 q -50 25 -32 25 q -76 14 -62 25 q -104 -14 -90 3 q -131 -51 -118 -31 q -151 -92 -143 -72 l -231 -61 q -224 -49 -228 -56 q -212 -32 -219 -43 q -262 10 -240 -3 q -304 22 -285 22 q -350 -60 -350 22 q -343 -105 -350 -87 q -324 -135 -336 -122 q -298 -155 -312 -147 q -267 -171 -283 -162 l -243 -182 l -286 -219 q -344 -200 -317 -212 q -393 -170 -372 -187 q -426 -129 -414 -153 q -437 -76 -437 -106 q -426 -17 -437 -46 q -395 35 -415 13 q -347 70 -375 57 q -286 83 -319 83 q -219 63 -250 83 q -168 24 -187 43 q -114 62 -144 46 q -44 78 -83 78 q -9 69 -25 78 q 17 46 7 60 q 33 16 28 32 q 39 -12 39 0 q 29 -64 39 -40 q 8 -107 19 -87 q -3 -132 1 -119 q -8 -158 -8 -144 q 7 -194 -8 -178 q 57 -235 22 -211 l 21 -292 z "},"ॢ":{"ha":0,"x_min":-437,"x_max":57,"o":"m 18 -296 q -65 -225 -33 -262 q -96 -156 -96 -187 q -87 -130 -96 -149 q -67 -93 -78 -111 l -58 -78 q -40 -39 -49 -58 q -32 -4 -32 -19 q -50 25 -32 25 q -76 14 -62 25 q -104 -14 -90 3 q -131 -51 -118 -31 q -151 -92 -143 -72 l -231 -61 q -224 -49 -228 -56 q -212 -32 -219 -43 q -262 10 -240 -3 q -304 22 -285 22 q -350 -60 -350 22 q -343 -105 -350 -87 q -324 -135 -336 -122 q -298 -155 -312 -147 q -267 -171 -283 -162 l -243 -182 l -286 -219 q -344 -200 -317 -212 q -393 -170 -372 -187 q -426 -129 -414 -153 q -437 -76 -437 -106 q -426 -17 -437 -46 q -395 35 -415 13 q -347 70 -375 57 q -286 83 -319 83 q -219 63 -250 83 q -168 24 -187 43 q -114 62 -144 46 q -44 78 -83 78 q -9 69 -25 78 q 17 46 7 60 q 33 16 28 32 q 39 -12 39 0 q 29 -64 39 -40 q 8 -107 19 -87 q -3 -132 1 -119 q -8 -158 -8 -144 q 7 -194 -8 -178 q 57 -235 22 -211 l 18 -296 z "},"म":{"ha":747,"x_min":-46,"x_max":785,"o":"m 179 528 q 181 574 181 550 q 182 624 182 599 q 178 724 182 676 q 165 801 175 772 l -7 801 l -46 897 l 754 897 l 785 801 l 633 801 l 633 -8 q 612 -5 629 -8 q 575 4 594 -1 q 524 18 551 10 l 524 310 l 261 310 q 249 248 257 278 q 222 206 242 218 q 160 226 190 210 q 106 263 129 242 q 67 309 82 285 q 53 356 53 333 q 76 397 53 381 q 151 414 99 414 l 163 414 q 173 467 169 438 q 179 528 176 496 m 261 406 l 522 406 q 522 495 522 443 q 522 603 522 547 q 521 712 521 660 q 521 801 521 764 l 286 801 q 290 756 289 782 q 292 703 292 731 q 288 612 292 660 q 278 515 285 564 l 261 406 z "},"न":{"ha":656,"x_min":-44,"x_max":688,"o":"m 425 501 q 425 569 425 529 q 424 651 425 610 q 424 733 424 693 q 424 801 424 774 l -7 801 l -44 897 l 657 897 l 688 801 l 536 801 l 536 -8 q 514 -5 532 -8 q 476 4 496 -1 q 426 18 453 10 l 426 406 l 219 406 q 208 344 215 374 q 182 301 200 314 q 117 322 149 306 q 62 359 86 338 q 23 406 38 381 q 8 453 8 431 q 31 494 8 478 q 108 510 54 510 q 147 507 124 510 q 189 501 169 504 l 425 501 z "},"ङ":{"ha":767,"x_min":-51,"x_max":808,"o":"m 193 324 q 96 423 128 372 q 63 519 64 474 l 63 525 q 144 648 63 601 q 386 694 226 694 l 424 694 q 443 694 433 694 q 464 693 453 694 l 464 799 l -12 799 q -33 849 -22 824 q -51 897 -43 874 l 776 897 l 804 801 q 736 800 772 800 q 662 799 704 800 q 569 799 619 799 l 569 665 q 571 586 569 626 q 440 597 504 592 q 326 601 376 601 q 222 588 261 601 q 182 538 182 575 q 224 442 182 500 q 358 454 294 454 q 479 440 425 454 q 572 399 533 426 q 631 333 610 372 q 653 243 653 294 q 621 112 653 163 q 542 33 589 61 q 444 -6 496 4 q 353 -17 392 -17 q 265 -9 304 -17 q 192 12 225 -1 q 132 42 160 25 q 78 78 104 60 l 78 165 q 245 102 163 124 q 394 81 328 81 q 513 107 467 81 q 563 186 560 133 l 563 194 q 545 264 563 235 q 499 311 528 293 q 431 338 469 329 q 350 346 392 346 q 274 340 313 346 q 199 324 235 335 l 193 324 m 644 501 q 668 556 644 533 q 728 579 692 579 q 784 556 760 579 q 808 501 808 533 q 784 451 808 472 q 728 429 760 429 q 668 451 692 429 q 644 501 644 472 z "},"९":{"ha":692,"x_min":81,"x_max":624,"o":"m 624 172 q 599 74 624 122 q 521 -11 574 26 l 443 54 q 467 79 454 61 q 490 120 479 97 q 508 167 501 143 q 515 213 515 192 q 511 238 515 226 q 483 265 507 249 q 422 306 458 282 l 411 313 q 353 351 383 331 q 292 393 322 371 q 233 438 263 415 q 182 483 204 461 q 102 592 124 542 q 81 682 81 642 q 112 781 81 738 q 185 856 143 825 q 273 904 228 888 q 346 921 318 921 q 424 905 389 921 q 482 863 458 889 q 518 802 506 836 q 531 732 531 768 q 515 654 531 693 q 468 583 500 615 q 388 531 436 551 q 271 507 339 510 q 355 426 307 458 q 451 365 403 393 q 515 326 485 346 q 570 285 546 307 q 609 237 594 263 q 624 181 624 211 l 624 172 m 404 854 q 388 857 399 857 q 324 840 358 857 q 263 792 290 822 q 216 720 235 761 q 197 633 197 679 q 201 590 197 613 q 268 574 235 574 q 340 595 310 574 q 392 648 371 617 q 423 716 413 679 q 433 785 433 753 q 426 832 433 813 q 404 854 419 851 z "},"ण":{"ha":978,"x_min":-115,"x_max":1008,"o":"m 339 167 q 246 192 296 167 q 153 261 196 217 q 83 369 111 306 q 56 510 56 432 l 56 801 l -79 801 l -115 897 l 978 897 l 1008 801 l 854 801 l 854 -11 l 747 18 l 747 801 l 600 801 l 600 299 q 553 234 583 260 q 488 194 524 208 q 413 173 451 179 q 339 167 374 167 m 172 515 q 185 393 172 442 q 225 315 199 344 q 291 274 251 286 q 382 263 331 263 q 442 269 413 263 q 493 288 471 275 q 492 356 493 303 q 491 483 492 410 q 489 641 490 557 q 488 801 488 725 l 169 801 q 170 735 169 772 q 172 658 171 697 q 172 581 172 618 q 172 515 172 543 z "},"ऩ":{"ha":696,"x_min":-43,"x_max":732,"o":"m 468 501 q 468 569 468 529 q 467 651 468 610 q 467 733 467 693 q 467 801 467 774 l -7 801 l -43 897 l 700 897 l 732 801 l 579 801 l 579 -8 q 557 -5 575 -8 q 519 4 539 -1 q 469 18 496 10 l 469 406 l 264 406 q 252 344 260 374 q 225 301 244 314 q 161 322 192 306 q 106 360 131 338 q 67 406 82 382 q 53 453 53 431 q 75 493 53 476 q 151 510 97 510 q 190 507 167 510 q 232 501 213 504 l 468 501 m 146 68 q 168 120 146 100 q 225 140 190 140 q 283 120 261 140 q 306 68 306 100 q 283 15 306 36 q 225 -6 261 -6 q 168 15 190 -6 q 146 68 146 36 z "},"ञ":{"ha":974,"x_min":-51,"x_max":1011,"o":"m 267 624 q 330 646 299 639 q 393 653 361 653 q 534 613 472 653 q 624 510 596 574 q 694 548 658 525 q 747 596 731 571 l 747 801 l -15 801 l -51 897 l 981 897 l 1011 801 l 858 801 l 858 -8 q 837 -5 854 -8 q 800 4 819 -1 q 750 18 776 10 l 750 486 q 692 438 718 456 q 640 407 665 419 q 613 294 640 346 q 542 206 586 243 q 439 149 497 169 q 317 129 381 129 q 209 152 256 129 q 128 214 163 175 q 70 303 93 253 q 36 410 47 354 l 97 485 l 110 460 q 153 379 131 419 q 204 306 175 339 q 271 251 233 274 q 358 228 308 229 l 374 228 q 502 267 461 228 q 543 361 543 306 q 534 431 543 397 q 506 490 525 464 q 457 531 488 515 q 385 546 426 546 q 342 542 365 546 q 286 528 318 539 l 267 624 z "},"ऑ":{"ha":1390,"x_min":53,"x_max":1428,"o":"m 475 804 q 421 865 475 860 q 357 845 393 863 q 285 803 321 828 q 217 751 249 779 q 169 701 186 724 l 96 792 q 169 857 125 828 q 263 901 207 881 q 397 922 319 922 q 472 917 436 922 q 534 896 507 911 q 577 854 561 881 q 593 788 593 828 q 570 692 593 744 q 503 586 547 639 q 544 543 517 572 q 596 479 571 514 q 658 498 625 486 q 722 525 692 510 q 778 558 753 540 q 819 596 804 576 q 818 699 819 647 q 817 801 817 750 l 681 801 l 644 897 l 1397 897 l 1428 801 l 1274 801 l 1274 -11 l 1169 18 l 1169 801 l 929 801 l 929 -11 l 822 18 l 822 482 q 729 413 775 436 q 644 381 683 390 l 650 381 q 661 321 661 347 q 635 206 661 258 q 563 117 608 154 q 459 58 518 79 q 333 36 400 36 q 226 59 272 36 q 144 121 179 82 q 87 210 110 160 q 53 314 64 260 l 114 392 q 164 297 139 343 q 219 214 189 250 q 288 155 250 178 q 375 132 325 132 q 513 169 465 132 q 560 268 560 206 q 526 379 560 317 q 418 507 493 442 q 370 474 397 490 q 308 440 343 458 l 260 526 q 345 585 306 550 q 413 660 385 621 q 458 737 442 699 q 475 804 475 775 m 975 1054 q 1019 1073 997 1054 q 1060 1119 1042 1092 q 1091 1180 1079 1147 q 1103 1240 1103 1213 l 1210 1206 q 1191 1136 1207 1172 q 1146 1070 1175 1100 q 1074 1019 1117 1040 q 975 997 1032 999 l 963 997 q 802 1051 863 997 q 722 1200 742 1104 l 829 1240 q 849 1166 835 1200 q 884 1107 864 1132 q 928 1068 904 1082 q 975 1054 951 1054 z "},"ॉ":{"ha":404,"x_min":-224,"x_max":414,"o":"m -25 897 l 381 897 l 414 801 l 257 801 l 257 650 l 257 225 q 258 -11 257 108 l 151 18 l 151 801 l 11 801 l -25 897 m 26 1054 q 72 1073 49 1054 q 113 1119 94 1092 q 144 1180 132 1147 q 157 1240 156 1213 l 264 1206 q 244 1136 260 1172 q 199 1070 228 1100 q 126 1019 169 1040 q 26 997 83 999 l 17 997 q -143 1051 -82 997 q -224 1200 -204 1104 l -117 1240 q -98 1166 -112 1200 q -63 1107 -83 1132 q -20 1068 -43 1082 q 26 1054 3 1054 z "},"ओ":{"ha":1390,"x_min":53,"x_max":1428,"o":"m 475 804 q 421 865 475 860 q 357 845 393 863 q 285 803 321 828 q 217 751 249 779 q 169 701 186 724 l 96 792 q 169 857 125 828 q 263 901 207 881 q 397 922 319 922 q 472 917 436 922 q 534 896 507 911 q 577 854 561 881 q 593 788 593 828 q 570 692 593 744 q 503 586 547 639 q 544 543 517 572 q 596 479 571 514 q 658 498 625 486 q 722 525 692 510 q 778 558 753 540 q 819 596 804 576 q 818 699 819 647 q 817 801 817 750 l 681 801 l 644 897 l 1199 897 q 1165 987 1189 942 q 1108 1068 1142 1032 q 1033 1126 1075 1104 q 947 1149 992 1149 q 909 1147 943 1149 q 832 1129 875 1144 l 810 1224 q 854 1236 832 1231 q 896 1246 874 1242 q 940 1250 918 1250 l 956 1250 q 1081 1206 1025 1242 q 1176 1122 1136 1171 q 1241 1013 1217 1072 q 1274 897 1265 954 l 1397 897 l 1428 801 l 1274 801 l 1274 -11 l 1169 18 l 1169 801 l 929 801 l 929 -11 l 822 18 l 822 482 q 729 413 775 436 q 644 381 683 390 l 650 381 q 661 321 661 347 q 635 206 661 258 q 563 117 608 154 q 459 58 518 79 q 333 36 400 36 q 226 59 272 36 q 144 121 179 82 q 87 210 110 160 q 53 314 64 260 l 114 392 q 164 297 139 343 q 219 214 189 250 q 288 155 250 178 q 375 132 325 132 q 513 169 465 132 q 560 268 560 206 q 526 379 560 317 q 418 507 493 442 q 370 474 397 490 q 308 440 343 458 l 260 526 q 345 585 306 550 q 413 660 385 621 q 458 737 442 699 q 475 804 475 775 z "},"ॳ":{"ha":1047,"x_min":53,"x_max":1085,"o":"m 475 804 q 421 865 475 860 q 357 845 393 863 q 285 803 321 828 q 217 751 249 779 q 169 701 186 724 l 96 792 q 169 857 125 828 q 263 901 207 881 q 397 922 319 922 q 472 917 436 922 q 534 896 507 911 q 577 854 561 881 q 593 788 593 828 q 570 692 593 744 q 503 586 547 639 q 544 543 517 572 q 596 479 571 514 q 658 498 625 486 q 722 525 692 510 q 778 558 753 540 q 819 596 804 576 q 818 699 819 647 q 817 801 817 750 l 681 801 l 644 897 l 819 897 l 819 1151 l 929 1129 l 929 897 l 1053 897 l 1085 801 l 929 801 l 929 -11 l 822 18 l 822 482 q 729 413 775 436 q 644 381 683 390 l 650 381 q 661 321 661 347 q 635 206 661 258 q 563 117 608 154 q 459 58 518 79 q 333 36 400 36 q 226 59 272 36 q 144 121 179 82 q 87 210 110 160 q 53 314 64 260 l 114 392 q 164 297 139 343 q 219 214 189 250 q 288 155 250 178 q 375 132 325 132 q 513 169 465 132 q 560 268 560 206 q 526 379 560 317 q 418 507 493 442 q 370 474 397 490 q 308 440 343 458 l 260 526 q 345 585 306 550 q 413 660 385 621 q 458 737 442 699 q 475 804 475 775 z "},"ऺ":{"ha":0,"x_min":-225,"x_max":-115,"o":"m -115 1129 l -115 896 l -225 896 l -225 1154 l -115 1129 z "},"ॐ":{"ha":1124,"x_min":53,"x_max":1119,"o":"m 1010 378 q 896 447 976 447 q 788 426 850 447 q 653 361 726 404 q 660 340 658 350 q 661 321 661 331 q 635 206 661 258 q 563 117 608 154 q 459 58 518 79 q 333 36 400 36 q 226 59 272 36 q 144 121 179 82 q 87 210 110 160 q 53 314 64 260 l 114 392 l 124 374 q 168 289 144 332 q 221 211 192 246 q 288 154 250 176 q 375 132 325 132 q 513 169 465 132 q 560 268 560 206 q 528 381 560 321 q 419 507 497 440 q 371 474 399 490 q 308 440 343 458 l 260 526 q 345 585 306 550 q 413 658 385 619 q 458 735 442 697 q 475 803 475 772 q 462 847 475 831 q 421 865 449 864 q 357 843 393 861 q 285 801 321 825 q 217 751 249 778 q 169 701 186 724 l 96 792 q 168 857 125 828 q 260 901 204 881 q 396 922 317 922 l 403 922 q 550 888 507 918 q 593 788 593 857 q 570 692 593 744 q 503 586 547 639 q 550 536 518 571 q 611 457 582 501 q 736 520 674 497 q 858 543 799 543 q 993 506 932 543 q 1093 386 1054 469 q 1113 323 1108 354 q 1119 260 1118 292 l 1119 247 q 1109 175 1119 213 q 1069 106 1099 138 q 987 54 1039 75 q 851 33 935 33 l 828 33 l 817 126 l 833 126 q 920 141 883 126 q 980 179 957 156 q 1014 233 1003 203 q 1025 297 1025 264 q 1010 378 1025 339 m 824 931 q 869 949 846 931 q 910 996 892 968 q 941 1057 929 1024 q 953 1119 953 1090 l 1061 1082 q 1040 1012 1057 1049 q 994 944 1024 975 q 923 894 965 914 q 824 872 881 874 l 813 872 q 651 926 711 872 q 574 1075 590 981 l 678 1122 q 699 1045 683 1081 q 734 984 714 1010 q 777 944 754 958 q 824 931 800 931 m 738 1100 q 760 1151 738 1129 q 819 1174 783 1174 q 875 1151 853 1174 q 897 1100 897 1129 q 875 1046 897 1068 q 819 1024 853 1024 q 760 1046 783 1024 q 738 1100 738 1068 z "},"१":{"ha":583,"x_min":118,"x_max":557,"o":"m 526 4 l 515 4 q 410 35 469 4 q 295 125 350 65 q 201 274 240 185 q 157 481 161 364 l 224 493 q 278 476 254 476 q 311 488 297 476 q 334 521 325 500 q 348 569 343 542 q 353 625 353 596 q 248 645 292 629 q 175 684 204 661 q 132 734 146 707 q 118 789 118 761 q 131 839 118 815 q 166 881 143 863 q 223 911 189 900 q 300 922 257 922 l 318 922 q 376 902 349 919 q 423 858 403 885 q 455 797 443 831 q 467 728 467 763 q 407 484 467 561 q 247 400 347 407 q 295 293 265 346 q 364 199 325 240 q 449 131 403 157 q 544 104 494 104 l 557 104 l 526 4 m 247 857 q 215 811 215 850 q 224 772 215 793 q 250 733 233 751 q 292 703 267 715 q 349 688 317 690 q 334 750 343 719 q 313 805 325 781 q 286 844 301 829 q 254 858 271 858 q 251 858 251 858 q 247 857 250 857 z "},"ॴ":{"ha":1390,"x_min":53,"x_max":1428,"o":"m 475 804 q 421 865 475 860 q 357 845 393 863 q 285 803 321 828 q 217 751 249 779 q 169 701 186 724 l 96 792 q 169 857 125 828 q 263 901 207 881 q 397 922 319 922 q 472 917 436 922 q 534 896 507 911 q 577 854 561 881 q 593 788 593 828 q 570 692 593 744 q 503 586 547 639 q 544 543 517 572 q 596 479 571 514 q 658 498 625 486 q 722 525 692 510 q 778 558 753 540 q 819 596 804 576 q 818 699 819 647 q 817 801 817 750 l 681 801 l 644 897 l 1167 897 l 1167 1151 l 1275 1129 l 1275 897 l 1397 897 l 1428 801 l 1274 801 l 1274 -11 l 1169 18 l 1169 801 l 929 801 l 929 -11 l 822 18 l 822 482 q 729 413 775 436 q 644 381 683 390 l 650 381 q 661 321 661 347 q 635 206 661 258 q 563 117 608 154 q 459 58 518 79 q 333 36 400 36 q 226 59 272 36 q 144 121 179 82 q 87 210 110 160 q 53 314 64 260 l 114 392 q 164 297 139 343 q 219 214 189 250 q 288 155 250 178 q 375 132 325 132 q 513 169 465 132 q 560 268 560 206 q 526 379 560 317 q 418 507 493 442 q 370 474 397 490 q 308 440 343 458 l 260 526 q 345 585 306 550 q 413 660 385 621 q 458 737 442 699 q 475 804 475 775 z "},"ऻ":{"ha":356,"x_min":-43,"x_max":396,"o":"m -43 897 l 129 897 q 129 955 129 921 q 128 1025 129 989 q 128 1094 128 1061 q 128 1151 128 1128 l 233 1129 q 236 1101 235 1126 q 238 1041 238 1076 q 239 967 239 1006 q 239 897 239 928 l 363 897 l 396 801 l 239 801 l 239 290 q 240 -11 239 143 l 133 18 l 133 801 l -7 801 l -43 897 z "},"ऒ":{"ha":1390,"x_min":53,"x_max":1428,"o":"m 475 804 q 421 865 475 860 q 357 845 393 863 q 285 803 321 828 q 217 751 249 779 q 169 701 186 724 l 96 792 q 169 857 125 828 q 263 901 207 881 q 397 922 319 922 q 472 917 436 922 q 534 896 507 911 q 577 854 561 881 q 593 788 593 828 q 570 692 593 744 q 503 586 547 639 q 544 543 517 572 q 596 479 571 514 q 658 498 625 486 q 722 525 692 510 q 778 558 753 540 q 819 596 804 576 q 818 699 819 647 q 817 801 817 750 l 681 801 l 644 897 l 1199 897 q 1176 944 1192 926 q 1140 973 1161 963 q 1094 988 1119 983 q 1040 997 1068 993 q 964 1009 1004 1001 q 885 1034 924 1017 q 811 1084 847 1051 q 747 1171 775 1117 l 839 1244 q 888 1157 860 1189 q 949 1108 917 1125 q 1014 1083 981 1090 q 1081 1072 1047 1076 q 1149 1058 1115 1067 q 1208 1031 1182 1050 q 1253 981 1235 1013 q 1275 897 1271 949 l 1397 897 l 1428 801 l 1274 801 l 1274 -11 l 1169 18 l 1169 801 l 929 801 l 929 -11 l 822 18 l 822 482 q 729 413 775 436 q 644 381 683 390 l 650 381 q 661 321 661 347 q 635 206 661 258 q 563 117 608 154 q 459 58 518 79 q 333 36 400 36 q 226 59 272 36 q 144 121 179 82 q 87 210 110 160 q 53 314 64 260 l 114 392 q 164 297 139 343 q 219 214 189 250 q 288 155 250 178 q 375 132 325 132 q 513 169 465 132 q 560 268 560 206 q 526 379 560 317 q 418 507 493 442 q 370 474 397 490 q 308 440 343 458 l 260 526 q 345 585 306 550 q 413 660 385 621 q 458 737 442 699 q 475 804 475 775 z "},"ॊ":{"ha":361,"x_min":-285,"x_max":396,"o":"m -43 897 l 167 897 q 144 944 160 926 q 108 973 129 963 q 62 988 88 983 q 8 997 36 993 q -68 1009 -28 1001 q -147 1034 -108 1017 q -221 1084 -185 1051 q -285 1171 -257 1117 l -193 1244 q -144 1157 -172 1189 q -83 1108 -115 1125 q -17 1083 -51 1090 q 50 1072 17 1076 q 118 1058 85 1067 q 177 1031 151 1050 q 221 981 203 1013 q 243 897 239 949 l 363 897 l 396 801 l 239 801 l 239 650 l 239 225 q 240 -11 239 108 l 133 18 l 133 801 l -7 801 l -43 897 z "},"प":{"ha":781,"x_min":-87,"x_max":811,"o":"m 367 251 q 274 276 324 251 q 181 346 224 301 q 111 453 139 390 q 83 594 83 517 l 83 801 l -51 801 l -87 897 l 781 897 l 811 801 l 654 801 l 654 646 l 654 221 q 656 -11 654 104 l 544 18 l 546 288 q 456 260 504 268 q 367 251 408 251 m 197 801 l 197 600 q 211 478 197 526 q 252 400 225 429 q 319 359 279 371 q 410 347 358 347 q 549 386 490 347 q 546 515 547 451 q 544 633 544 578 q 543 731 543 688 q 543 801 543 775 l 197 801 z "},"क़":{"ha":1082,"x_min":-143,"x_max":1113,"o":"m 947 501 q 839 568 918 568 q 731 547 792 568 q 596 483 669 526 q 597 306 597 394 q 599 147 597 218 q 600 -11 599 64 l 489 19 l 489 213 q 408 182 453 193 q 314 171 363 171 q 224 185 268 171 q 145 228 181 199 q 87 304 110 258 q 60 414 64 350 q 80 509 61 464 q 131 588 99 554 q 208 643 163 622 q 306 664 253 664 q 396 651 349 664 q 489 611 443 638 q 488 722 488 676 q 488 799 488 767 q 328 799 400 799 q 188 799 256 799 q 50 799 121 799 q -107 801 -21 800 l -143 897 l 1086 897 l 1113 801 q 957 800 1040 800 q 793 799 886 799 q 599 799 700 799 l 599 611 q 698 650 646 635 q 797 665 750 665 q 933 629 872 665 q 1032 510 993 593 q 1052 445 1047 478 q 1060 381 1057 413 l 1060 365 q 1049 295 1060 332 q 1008 228 1038 258 q 928 178 979 199 q 794 158 876 158 l 767 158 l 758 251 l 778 251 q 862 265 826 251 q 920 302 897 279 q 954 356 943 325 q 965 418 965 386 q 961 460 965 439 q 947 501 957 482 m 129 414 q 144 375 129 397 q 188 333 160 353 q 253 298 215 313 q 336 283 292 283 q 409 294 372 283 q 489 332 446 304 l 489 515 q 415 544 453 535 q 342 554 378 554 q 258 542 297 554 q 191 509 219 529 q 146 464 163 489 q 129 414 129 439 m 88 -57 q 111 -4 88 -25 q 168 17 135 17 q 227 -4 203 17 q 251 -57 251 -25 q 227 -109 251 -89 q 168 -129 203 -129 q 111 -109 135 -129 q 88 -57 88 -89 z "},"ढ़":{"ha":742,"x_min":-65,"x_max":779,"o":"m 75 301 q 74 318 74 310 q 74 335 74 326 q 103 472 74 415 q 180 563 132 528 q 291 613 228 597 q 424 629 354 629 q 450 629 436 629 q 476 628 464 629 l 476 801 l -29 801 l -65 897 l 749 897 l 779 801 l 582 801 q 579 747 579 774 q 579 693 579 719 q 580 603 579 647 q 582 514 581 558 q 485 524 529 521 q 408 528 442 528 q 219 476 275 528 q 163 326 163 424 l 163 307 q 188 227 168 264 q 238 163 208 190 q 302 119 267 135 q 375 101 338 103 l 392 101 q 360 210 360 163 q 372 267 360 242 q 405 310 385 293 q 451 338 425 328 q 504 347 476 347 q 534 345 519 347 q 561 336 549 343 q 638 270 608 311 q 667 183 667 229 q 632 94 667 131 q 548 34 597 57 q 444 1 499 11 q 350 -8 390 -8 q 240 22 289 -7 q 155 95 190 50 q 99 194 119 140 q 75 301 78 249 m 368 -194 q 391 -140 368 -162 q 449 -118 414 -118 q 506 -140 483 -118 q 529 -194 529 -162 q 506 -246 529 -224 q 449 -268 483 -268 q 391 -246 414 -268 q 368 -194 368 -224 m 476 110 q 550 165 521 135 q 579 229 579 196 q 572 260 579 247 q 542 279 560 279 q 510 270 526 279 q 479 247 493 261 q 456 213 465 232 q 447 172 447 193 q 454 140 447 157 q 476 110 461 124 z "},"र":{"ha":479,"x_min":-89,"x_max":514,"o":"m 438 3 l 426 3 q 321 32 382 3 q 203 121 260 61 q 108 269 147 181 q 68 476 68 357 l 68 488 l 136 501 q 192 485 171 485 q 228 510 218 485 q 239 575 239 535 q 229 674 239 618 q 208 788 219 731 l 206 801 l -53 801 l -89 897 l 483 897 l 514 801 l 329 801 q 342 715 336 760 q 349 631 349 671 q 340 551 349 589 q 308 484 331 514 q 246 434 285 454 q 146 408 207 414 l 153 408 q 197 297 167 351 q 267 199 226 242 q 355 130 307 156 q 456 104 403 104 l 469 104 l 438 3 z "},"ऱ":{"ha":547,"x_min":-24,"x_max":579,"o":"m 503 3 l 492 3 q 386 32 447 3 q 269 121 325 61 q 173 269 213 181 q 133 476 133 357 l 133 488 l 201 501 q 257 485 236 485 q 294 510 283 485 q 304 575 304 535 q 294 674 304 618 q 274 788 285 731 l 271 801 l 13 801 l -24 897 l 549 897 l 579 801 l 394 801 q 408 715 401 760 q 414 631 414 671 q 405 551 414 589 q 373 484 396 514 q 311 434 350 454 q 211 408 272 414 l 218 408 q 262 297 232 351 q 332 199 292 242 q 420 130 372 156 q 521 104 468 104 l 535 104 l 503 3 m 61 68 q 85 120 61 100 q 144 140 108 140 q 200 120 176 140 q 224 68 224 100 q 200 15 224 36 q 144 -6 176 -6 q 85 15 108 -6 q 61 68 61 36 z "},"ॠ":{"ha":1075,"x_min":-164,"x_max":1110,"o":"m 743 22 q 782 78 743 56 q 767 108 771 94 q 763 132 763 121 q 790 188 763 167 q 851 226 818 208 l 854 229 q 910 267 886 247 q 935 324 935 288 q 919 379 935 349 q 864 454 904 410 q 749 375 815 401 q 614 349 683 349 q 597 349 606 349 q 579 350 588 349 l 579 -11 l 467 18 l 467 279 l 461 275 q 397 244 438 263 q 308 204 357 225 q 206 164 260 183 q 100 132 151 144 l 106 132 q 103 128 106 128 q 88 141 99 128 q 67 171 78 154 q 40 215 54 190 q 236 282 147 249 q 312 310 274 296 q 382 340 350 325 q 438 367 414 354 q 471 390 461 379 l 469 417 q 420 481 453 453 q 349 530 388 510 q 271 561 311 550 q 197 572 231 572 q 54 518 146 572 l 22 593 q 108 648 58 631 q 213 665 157 665 q 351 635 282 665 q 468 544 419 604 q 467 640 468 596 q 467 719 467 683 l 467 801 l -128 801 l -164 897 l 1079 897 l 1110 801 l 579 801 l 579 443 q 610 433 593 436 q 643 431 628 431 q 722 451 683 431 q 794 501 761 472 q 732 582 732 543 q 735 597 732 589 q 793 642 750 624 q 886 660 836 660 q 931 656 910 660 q 972 644 953 653 q 974 633 974 642 q 956 569 974 607 q 922 500 938 531 l 921 494 q 996 405 974 444 q 1018 333 1018 365 q 1007 285 1018 308 q 978 243 996 263 q 940 208 961 224 q 901 178 919 192 q 869 153 882 165 q 857 131 857 142 q 875 113 857 119 q 940 99 893 106 l 971 92 l 963 36 l 954 36 q 850 22 881 36 q 819 -12 819 7 q 844 -47 819 -32 q 908 -61 868 -61 q 953 -55 928 -61 q 1013 -33 979 -49 l 997 -117 q 921 -129 957 -129 q 853 -119 885 -129 q 797 -91 821 -110 q 758 -44 772 -72 q 743 22 743 -15 z "},"ऋ":{"ha":1075,"x_min":-164,"x_max":1110,"o":"m 22 593 q 108 648 58 631 q 213 665 157 665 q 351 635 282 665 q 468 544 419 604 q 467 640 468 596 q 467 719 467 683 l 467 801 l -128 801 l -164 897 l 1079 897 l 1110 801 l 579 801 l 579 443 q 588 440 582 440 q 600 438 593 440 q 643 431 625 431 q 722 451 683 431 q 794 501 761 472 q 732 582 732 543 q 735 597 732 589 q 793 642 750 624 q 886 660 836 660 q 931 656 910 660 q 972 644 953 653 q 974 633 974 642 q 956 569 974 607 q 922 500 938 531 l 921 494 q 1025 369 994 428 q 1056 260 1056 310 q 1031 171 1056 211 q 966 102 1006 131 q 878 58 926 74 q 782 43 829 43 q 763 44 771 43 q 746 46 754 44 l 738 140 l 743 140 q 822 148 783 140 q 890 172 860 156 q 938 213 919 188 q 956 272 956 238 q 933 354 956 307 q 864 454 911 401 q 749 375 815 401 q 614 349 683 349 q 597 349 606 349 q 579 350 588 349 l 579 -11 l 468 18 l 468 279 l 461 275 q 397 244 438 263 q 308 204 357 225 q 203 164 258 183 q 97 132 149 144 q 85 145 94 132 q 66 174 76 158 q 47 203 56 190 q 40 215 39 215 q 236 282 147 249 q 312 310 274 296 q 382 340 350 325 q 438 367 414 354 q 471 390 461 379 l 469 417 q 420 481 453 453 q 349 530 388 510 q 271 561 311 550 q 197 572 231 572 q 122 553 157 572 q 54 518 86 535 l 22 593 z "},"७":{"ha":768,"x_min":79,"x_max":725,"o":"m 554 835 q 623 818 594 835 q 670 775 651 801 q 700 715 689 749 q 717 645 711 681 q 724 576 722 610 q 725 515 725 542 q 707 298 725 386 q 658 151 689 210 q 589 61 628 93 q 508 13 550 29 q 424 -6 465 -3 q 346 -8 382 -8 q 232 31 281 -8 q 150 142 183 71 q 99 311 117 213 q 79 528 81 410 l 79 535 q 88 654 79 596 q 113 762 96 713 q 153 849 129 811 q 211 908 178 888 l 300 840 q 242 777 264 814 q 209 695 221 740 q 194 600 197 650 q 190 499 190 550 q 198 369 190 432 q 218 253 206 306 q 245 162 231 200 q 274 110 260 124 q 356 72 311 72 q 435 97 394 72 q 513 167 476 121 q 575 277 549 213 q 613 424 601 342 q 503 449 550 428 q 426 502 457 471 q 381 572 396 533 q 367 649 367 610 q 379 718 367 685 q 415 778 392 751 q 474 819 439 804 q 554 835 510 835 m 494 769 q 471 749 479 767 q 463 703 463 731 q 473 635 463 672 q 503 566 483 599 q 553 512 524 533 q 618 489 582 490 q 617 533 618 504 q 615 579 617 563 q 606 650 611 615 q 590 712 600 685 q 561 755 579 739 q 514 771 543 771 q 506 771 511 771 q 494 769 500 771 z "},"स":{"ha":803,"x_min":-89,"x_max":839,"o":"m 438 3 l 428 3 q 322 35 383 3 q 204 131 261 68 q 108 285 147 193 q 68 497 68 378 l 68 510 l 136 522 q 194 504 172 504 q 228 526 218 504 q 239 586 239 549 q 228 686 239 626 q 206 801 217 746 l -53 801 l -89 897 l 807 897 l 839 801 l 683 801 q 683 742 683 776 q 682 667 682 707 q 682 586 682 628 q 682 504 682 544 l 682 157 q 683 -11 682 71 l 576 18 l 576 413 q 478 390 528 397 q 383 383 428 383 q 261 396 317 383 q 171 431 206 408 l 153 428 q 197 312 167 369 q 268 208 228 254 q 357 133 308 163 q 458 104 406 104 l 469 104 l 438 3 m 296 488 q 363 468 328 476 q 433 460 397 460 q 506 469 469 460 q 579 499 542 478 q 575 650 576 574 q 574 801 574 726 l 329 801 q 342 720 336 761 q 349 639 349 679 q 338 557 349 596 q 296 488 326 518 z "},"श":{"ha":889,"x_min":38,"x_max":926,"o":"m 258 921 q 358 898 313 921 q 435 838 403 875 q 487 754 468 801 q 506 660 506 707 q 488 556 506 607 q 437 460 469 504 q 358 382 404 415 q 254 333 311 349 l 260 333 q 299 256 275 296 q 355 182 322 215 q 429 126 388 149 q 522 104 471 104 l 539 104 l 510 3 l 499 3 q 426 21 469 3 q 336 76 382 39 q 250 169 290 113 q 190 301 210 225 l 164 301 q 90 306 128 301 q 38 325 53 310 q 53 390 39 358 q 90 447 68 422 q 136 488 111 472 q 185 504 161 504 q 230 483 211 504 q 254 413 249 461 q 323 456 290 428 q 372 522 356 483 q 258 563 310 536 q 167 625 206 590 q 106 699 128 660 q 85 778 85 739 q 100 838 85 811 q 140 882 115 864 q 197 910 165 900 q 258 921 228 919 m 486 897 l 896 897 l 926 801 l 771 801 q 770 742 771 776 q 769 667 769 707 q 769 586 769 628 q 769 504 769 544 l 769 157 q 771 -11 769 71 l 664 18 l 664 801 l 525 801 l 486 897 m 214 857 q 200 821 200 857 q 210 768 200 799 q 242 706 219 738 q 300 643 264 674 q 389 590 336 613 q 393 643 393 621 q 374 745 393 704 q 328 810 356 786 q 269 845 300 835 q 214 857 239 856 z "},"६":{"ha":821,"x_min":104,"x_max":860,"o":"m 849 -89 q 842 -90 846 -89 q 833 -90 838 -90 q 765 -78 806 -90 q 683 -36 724 -65 q 605 40 642 -7 q 549 154 568 86 q 506 141 529 147 q 458 132 482 135 q 358 146 413 132 q 258 186 304 160 q 181 250 211 213 q 150 336 150 288 q 160 390 150 363 q 185 445 169 418 q 221 497 200 472 q 263 544 242 522 q 203 599 232 569 q 153 660 175 629 q 117 719 131 690 q 104 769 104 747 q 119 834 104 806 q 160 882 135 863 q 219 912 186 901 q 286 922 251 922 q 388 912 336 922 q 500 869 440 901 l 436 785 q 397 810 419 796 q 351 836 375 824 q 304 857 326 849 q 265 865 282 865 q 246 860 253 865 q 217 803 217 842 q 226 756 217 781 q 253 705 236 731 q 293 656 271 679 q 340 611 315 632 q 407 655 374 636 q 454 681 440 674 q 474 643 465 660 q 487 614 481 628 q 493 594 493 600 q 427 552 464 578 q 358 494 390 526 q 302 424 325 461 q 279 350 279 388 q 314 267 279 297 q 393 238 349 238 q 458 243 429 238 q 511 257 488 249 q 502 281 504 269 q 500 301 500 292 q 519 347 500 333 q 568 361 539 361 q 616 353 590 361 q 667 330 642 344 q 712 296 692 315 q 744 253 732 276 q 726 231 740 242 q 694 208 713 219 q 653 187 675 197 q 614 168 632 176 q 706 56 649 110 q 860 -32 764 1 l 849 -89 z "},"ष":{"ha":750,"x_min":-87,"x_max":781,"o":"m 336 251 q 243 276 293 251 q 151 346 193 301 q 81 453 108 390 q 53 594 53 517 l 53 801 l -51 801 l -87 897 l 750 897 l 781 801 l 624 801 l 624 646 l 624 221 q 625 -11 624 104 l 514 18 l 514 288 q 426 260 474 268 q 336 251 378 251 m 167 589 q 181 472 167 518 q 223 397 196 425 q 290 358 250 369 q 379 347 329 347 q 506 378 449 347 l 164 763 q 164 715 164 740 q 165 664 164 690 q 166 632 165 649 q 167 600 167 615 l 167 589 m 257 801 l 514 493 q 513 608 514 556 q 513 706 513 660 l 513 801 l 257 801 z "},"त":{"ha":788,"x_min":-74,"x_max":821,"o":"m -74 897 l 792 897 l 821 801 q 779 800 803 800 l 668 800 l 668 643 l 668 219 q 669 -11 668 103 l 563 18 l 563 485 q 456 496 506 492 q 363 500 406 500 q 231 478 279 500 q 183 394 183 456 q 187 360 183 379 q 199 318 190 340 q 238 219 217 265 q 279 137 260 172 q 313 80 299 101 q 331 57 328 58 l 274 -10 q 236 39 263 3 q 178 126 210 75 q 117 238 147 176 q 67 364 86 300 q 57 429 57 397 q 87 514 57 482 q 165 563 117 546 q 274 585 214 579 q 394 590 333 590 q 435 590 415 590 q 475 589 456 589 q 520 588 501 589 q 558 588 539 588 q 558 635 558 607 q 558 693 558 664 q 557 751 557 722 q 557 799 557 779 l -37 799 l -74 897 z "},"थ":{"ha":826,"x_min":38,"x_max":861,"o":"m 143 449 q 194 472 172 456 q 230 513 215 489 q 253 566 244 538 q 264 626 261 594 q 163 648 206 632 q 93 686 121 664 q 51 735 65 708 q 38 788 38 761 q 50 838 38 814 q 86 881 63 863 q 144 911 110 900 q 222 922 178 922 l 240 922 q 297 902 271 919 q 344 858 324 885 q 376 797 364 831 q 388 728 388 763 q 376 610 388 661 q 350 522 365 558 q 318 460 335 485 q 292 424 301 436 l 285 414 q 353 364 315 379 q 438 346 392 349 l 449 346 q 534 367 492 346 q 601 421 576 388 q 599 611 600 517 q 597 801 597 706 l 461 801 l 425 897 l 832 897 l 861 801 l 710 801 l 710 -8 q 688 -5 706 -8 q 651 4 671 -1 q 603 18 629 10 l 603 308 q 508 266 561 281 q 407 251 454 251 l 396 251 q 331 260 367 251 q 258 292 294 269 q 189 353 221 315 q 138 449 157 392 l 143 449 m 165 857 q 136 813 136 850 q 145 775 136 794 q 171 738 154 756 q 212 706 188 719 q 267 689 236 693 q 256 753 264 722 q 235 807 247 783 q 208 844 224 831 q 174 858 192 858 q 169 858 171 858 q 165 857 168 857 z "},"३":{"ha":722,"x_min":50,"x_max":661,"o":"m 475 803 q 421 865 475 860 q 357 845 393 863 q 285 803 321 828 q 217 751 249 779 q 169 701 186 724 l 96 792 q 168 857 125 828 q 260 901 204 881 q 396 922 317 922 l 403 922 q 550 888 507 918 q 593 788 593 857 q 570 692 593 744 q 503 586 547 639 q 542 546 515 574 q 594 481 568 518 q 641 403 621 444 q 661 321 661 361 q 635 216 661 258 q 563 148 608 174 q 459 110 518 122 q 333 99 400 99 q 301 99 317 99 q 269 103 285 100 q 351 -6 299 44 q 489 -92 403 -56 l 475 -149 l 464 -149 q 396 -133 436 -149 q 315 -86 356 -118 q 238 -4 274 -54 q 186 117 203 46 l 156 117 q 93 120 124 117 q 50 139 63 124 q 64 195 51 167 q 95 246 76 224 q 136 282 114 268 q 179 296 158 296 l 188 296 q 224 274 208 293 q 243 215 239 256 q 322 200 275 208 q 417 192 369 192 q 472 196 446 192 q 517 212 497 200 q 548 243 536 224 q 560 293 560 263 q 528 388 560 335 q 419 507 497 442 q 371 474 399 490 q 308 440 343 458 l 260 526 q 345 585 306 550 q 413 658 385 619 q 458 735 442 697 q 475 803 475 772 z "},"ट":{"ha":731,"x_min":-76,"x_max":764,"o":"m 64 276 q 63 293 63 285 q 63 310 63 301 q 91 444 63 389 q 167 535 119 500 q 278 585 215 569 q 408 600 340 600 q 436 600 419 600 q 465 599 453 600 l 465 799 l -39 799 l -76 897 l 738 897 l 764 801 q 710 800 739 800 l 571 800 q 569 753 569 779 q 569 700 569 728 l 569 486 q 473 497 517 494 q 396 500 429 500 q 207 449 263 500 q 151 301 151 399 l 151 282 q 178 217 158 249 q 228 160 199 185 q 292 119 257 135 q 364 101 328 103 l 378 101 q 498 117 426 101 q 657 175 569 132 l 642 88 q 558 37 601 56 q 476 8 515 18 q 401 -6 436 -3 q 339 -8 365 -8 q 228 22 278 -7 q 144 92 179 50 q 88 184 108 135 q 64 276 67 233 z "},"ठ":{"ha":929,"x_min":-43,"x_max":993,"o":"m 864 276 q 825 149 860 203 q 738 58 790 94 q 617 4 685 22 q 479 -14 550 -14 q 347 6 411 -14 q 229 62 282 25 q 141 153 176 99 q 97 276 106 207 q 96 297 96 286 q 96 317 96 308 q 179 524 96 456 q 426 599 263 592 q 426 699 426 649 q 425 799 425 749 l -8 799 l -43 897 l 965 897 l 993 801 l 533 799 l 533 599 q 685 569 622 593 q 788 507 749 546 q 847 416 828 468 q 865 301 865 364 q 865 289 865 294 q 864 276 864 283 m 457 497 q 353 490 403 497 q 265 463 303 483 q 206 407 228 443 q 183 311 183 371 q 183 297 183 304 q 185 282 183 290 q 219 203 192 236 q 288 147 247 169 q 378 113 328 124 q 479 101 428 101 q 581 114 531 101 q 672 150 631 126 q 740 207 713 174 q 775 282 768 240 q 753 394 775 353 q 691 458 731 436 q 597 488 651 481 q 479 497 543 496 l 457 497 z "},"२":{"ha":663,"x_min":101,"x_max":618,"o":"m 338 921 q 437 898 392 921 q 515 838 482 875 q 567 754 549 801 q 585 660 585 707 q 567 556 585 607 q 517 460 549 504 q 440 382 485 415 q 339 333 394 349 q 378 256 354 296 q 434 182 401 215 q 508 126 467 149 q 601 104 550 104 l 618 104 l 588 3 l 578 3 q 505 21 549 3 q 415 76 461 39 q 329 169 369 113 q 269 301 289 225 l 243 301 q 169 306 207 301 q 117 325 132 310 q 133 390 118 358 q 169 447 147 422 q 215 488 190 472 q 264 504 240 504 q 309 483 290 504 q 333 414 328 463 q 418 469 382 433 q 464 561 454 506 q 472 643 472 603 l 472 654 q 440 792 472 750 q 361 835 408 835 q 266 802 317 835 q 171 715 215 769 l 101 804 q 209 891 143 864 q 338 921 275 918 z "},"उ":{"ha":713,"x_min":-67,"x_max":753,"o":"m -67 897 l 719 897 l 753 801 l 561 801 q 574 768 568 786 q 579 731 579 750 q 555 653 579 694 q 494 576 531 613 q 538 531 513 560 q 588 467 564 501 q 628 394 611 432 q 646 321 646 356 q 619 206 646 258 q 548 117 593 154 q 443 58 503 79 q 318 36 383 36 q 210 59 257 36 q 129 121 164 82 q 72 210 94 160 q 38 314 49 260 l 99 392 l 108 374 q 153 289 129 332 q 206 211 176 246 q 272 154 235 176 q 360 132 310 132 q 497 169 450 132 q 544 268 544 206 q 512 380 544 319 q 406 506 479 440 q 365 481 389 494 q 314 451 342 467 l 294 440 l 244 526 q 330 572 290 550 q 398 619 369 594 q 443 675 426 644 q 460 747 460 706 q 435 801 460 786 l -28 801 l -67 897 z "},"ु":{"ha":0,"x_min":-592,"x_max":14,"o":"m -361 28 q -299 51 -331 44 q -236 58 -268 58 q -140 40 -185 58 q -60 -10 -94 21 q -6 -83 -26 -42 q 14 -169 14 -124 q -17 -267 14 -222 q -97 -343 -49 -311 q -202 -394 -144 -375 q -312 -412 -260 -412 q -419 -390 -372 -412 q -501 -328 -467 -367 q -558 -238 -535 -289 q -592 -132 -581 -187 l -529 -56 q -481 -162 -507 -111 q -422 -251 -454 -212 q -349 -311 -389 -289 q -258 -333 -308 -333 q -128 -300 -168 -333 q -87 -207 -87 -267 q -97 -150 -87 -181 q -125 -94 -106 -119 q -174 -51 -144 -68 q -244 -35 -203 -35 q -288 -40 -264 -35 q -342 -53 -312 -44 l -361 28 z "},"ऊ":{"ha":946,"x_min":-67,"x_max":974,"o":"m 710 446 q 608 428 663 446 q 646 321 646 374 q 619 206 646 258 q 548 117 593 154 q 443 58 503 79 q 318 36 383 36 q 210 59 257 36 q 129 121 164 82 q 72 210 94 160 q 38 314 49 260 l 99 392 q 149 297 124 343 q 204 214 174 250 q 272 155 235 178 q 360 132 310 132 q 497 169 450 132 q 544 268 544 206 q 512 380 544 319 q 406 506 479 440 q 365 481 389 494 q 314 451 342 467 l 294 440 l 244 526 q 330 572 290 550 q 398 619 369 594 q 443 675 426 644 q 460 747 460 706 q 435 801 460 786 l -28 801 l -67 897 l 942 897 l 974 801 l 561 801 q 574 768 568 786 q 579 731 579 750 q 555 653 579 694 q 494 576 531 613 q 521 551 507 565 q 547 521 535 536 q 610 538 579 532 q 672 544 640 544 q 783 519 735 544 q 863 453 831 493 q 913 361 896 413 q 933 260 931 310 q 923 182 933 222 q 881 108 913 142 q 791 54 849 75 q 640 33 733 33 l 629 126 q 725 140 685 126 q 790 178 765 154 q 827 232 815 201 q 839 296 839 263 q 805 404 839 363 q 710 446 771 446 z "},"ॷ":{"ha":1047,"x_min":53,"x_max":1085,"o":"m 475 804 q 421 865 475 860 q 357 845 393 863 q 285 803 321 828 q 217 751 249 779 q 169 701 186 724 l 96 792 q 169 857 125 828 q 263 901 207 881 q 397 922 319 922 q 472 917 436 922 q 534 896 507 911 q 577 854 561 881 q 593 788 593 828 q 570 692 593 744 q 503 586 547 639 q 544 543 517 572 q 596 479 571 514 q 658 498 625 486 q 722 525 692 510 q 778 558 753 540 q 819 596 804 576 q 818 699 819 647 q 817 801 817 750 l 681 801 l 644 897 l 1053 897 l 1085 801 l 929 801 l 929 -11 l 822 18 l 822 486 q 728 413 772 436 q 650 381 685 390 q 661 321 661 347 q 635 206 661 258 q 563 117 608 154 q 459 58 518 79 q 333 36 400 36 q 226 59 272 36 q 144 121 179 82 q 87 210 110 160 q 53 314 64 260 l 114 392 q 164 297 139 343 q 219 214 189 250 q 288 155 250 178 q 375 132 325 132 q 513 169 465 132 q 560 268 560 206 q 526 379 560 317 q 418 507 493 442 q 370 474 397 490 q 308 440 343 458 l 260 526 q 345 585 306 550 q 413 660 385 621 q 458 737 442 699 q 475 804 475 775 m 915 -196 q 875 -271 906 -237 q 799 -327 844 -304 q 693 -362 753 -350 q 565 -375 633 -375 q 449 -365 504 -375 q 349 -333 393 -354 q 275 -278 304 -311 q 236 -201 246 -246 l 333 -172 q 375 -237 349 -211 q 434 -278 401 -262 q 503 -301 467 -294 q 572 -307 539 -307 q 647 -301 610 -307 q 716 -279 683 -294 q 774 -238 749 -264 q 815 -174 800 -212 l 915 -196 m 581 -197 q 626 -183 603 -197 q 669 -145 650 -168 q 700 -93 688 -122 q 713 -36 713 -64 l 819 -72 q 799 -137 815 -106 q 753 -195 782 -169 q 681 -237 724 -221 q 581 -254 638 -253 l 565 -254 q 410 -212 469 -254 q 332 -78 350 -171 l 439 -35 q 457 -107 443 -76 q 491 -158 471 -137 q 534 -187 511 -178 q 581 -197 557 -197 z "},"ू":{"ha":0,"x_min":-383,"x_max":222,"o":"m -8 -382 q -70 -406 -39 -399 q -133 -412 -101 -412 q -230 -394 -185 -412 q -309 -344 -275 -375 q -363 -272 -343 -312 q -383 -185 -383 -231 q -352 -88 -383 -133 q -273 -11 -321 -43 q -167 40 -225 21 q -57 58 -110 58 q 50 35 3 58 q 131 -26 97 13 q 188 -116 165 -65 q 222 -222 211 -167 l 160 -299 q 110 -192 136 -243 q 52 -103 85 -142 q -21 -43 19 -65 q -111 -21 -61 -21 q -242 -54 -201 -21 q -282 -147 -282 -87 q -273 -204 -282 -174 q -244 -260 -264 -235 q -196 -303 -225 -286 q -125 -319 -167 -319 q -81 -315 -106 -319 q -28 -301 -57 -310 l -8 -382 z "},"व":{"ha":713,"x_min":-64,"x_max":750,"o":"m -64 897 l 719 897 l 750 801 l 578 801 l 578 -11 l 467 19 l 467 211 q 385 182 431 193 q 293 171 340 171 q 203 185 247 171 q 124 230 158 200 q 65 306 89 260 q 38 415 42 351 q 58 510 39 465 q 109 590 76 556 q 187 644 142 624 q 285 665 232 665 q 374 653 328 665 q 467 613 421 640 l 467 801 l -28 801 l -64 897 m 107 415 q 122 376 107 399 q 165 333 138 354 q 231 298 193 313 q 314 283 269 283 q 388 294 350 283 q 467 332 426 306 l 467 515 q 319 554 392 554 q 236 542 275 554 q 169 509 197 529 q 124 465 140 489 q 107 415 107 440 z "},"ः":{"ha":249,"x_min":63,"x_max":226,"o":"m 63 603 q 87 656 63 635 q 146 676 111 676 q 203 656 179 676 q 226 603 226 635 q 203 549 226 571 q 146 528 179 528 q 87 549 111 528 q 63 603 63 571 m 63 144 q 87 198 63 176 q 146 219 111 219 q 203 198 179 219 q 226 144 226 176 q 203 92 226 114 q 146 71 179 71 q 87 92 111 71 q 63 144 63 114 z "},"य":{"ha":768,"x_min":-46,"x_max":800,"o":"m -46 897 l 769 897 l 800 801 l 649 801 q 647 613 647 707 q 646 434 646 518 q 646 281 646 350 q 646 169 646 211 l 646 -11 l 542 18 l 542 308 q 446 265 499 279 q 343 251 393 251 q 234 274 282 251 q 149 333 186 297 q 83 415 111 369 q 36 506 56 460 q 93 549 65 524 q 142 604 121 574 q 176 671 164 635 q 189 747 189 707 q 164 801 189 786 l -7 801 l -46 897 m 307 731 q 267 597 307 665 q 153 465 228 528 q 245 374 188 403 q 365 344 303 344 q 463 364 417 344 q 540 422 510 383 q 538 612 539 518 q 536 801 536 706 l 290 801 q 302 768 297 786 q 307 731 307 750 z "},"ॹ":{"ha":979,"x_min":-51,"x_max":1017,"o":"m 310 594 l 751 594 l 751 801 l -15 801 l -51 897 l 986 897 l 1017 801 l 864 801 l 864 -8 q 842 -5 860 -8 q 804 4 824 -1 q 754 18 781 10 l 754 499 l 583 499 q 617 432 603 468 q 633 364 632 396 l 633 356 q 606 242 633 293 q 534 153 579 190 q 429 97 489 117 q 304 76 369 76 q 199 99 246 76 q 117 161 151 122 q 59 251 82 200 q 24 357 36 301 l 88 432 l 100 404 q 144 325 121 365 q 196 251 167 285 q 262 197 225 218 q 347 174 299 175 l 358 174 q 486 211 439 174 q 533 311 533 249 q 510 400 533 351 q 442 499 486 449 l 349 499 l 310 594 m 117 -17 q 141 35 117 13 q 197 57 165 57 q 257 35 233 57 q 281 -17 281 13 q 257 -71 281 -49 q 197 -93 233 -93 q 141 -71 165 -93 q 117 -17 117 -49 m 374 -17 q 397 35 374 13 q 454 57 419 57 q 512 35 489 57 q 535 -17 535 13 q 512 -71 535 -49 q 454 -93 489 -93 q 397 -71 419 -93 q 374 -17 374 -49 m 244 -153 q 268 -101 244 -122 q 328 -79 292 -79 q 383 -101 360 -79 q 407 -153 407 -122 q 383 -206 407 -185 q 328 -228 360 -228 q 268 -206 292 -228 q 244 -153 244 -185 z "},"ज़":{"ha":983,"x_min":-51,"x_max":1017,"o":"m 310 594 l 751 594 l 751 801 l -15 801 l -51 897 l 986 897 l 1017 801 l 864 801 l 864 -8 q 842 -5 860 -8 q 804 4 824 -1 q 754 18 781 10 l 754 499 l 583 499 q 619 427 604 463 q 633 356 633 392 q 606 242 633 293 q 534 153 579 190 q 429 97 489 117 q 304 76 369 76 q 199 99 246 76 q 117 161 151 122 q 59 251 82 200 q 24 357 36 301 l 88 432 l 100 404 q 147 320 122 361 q 203 247 172 279 q 272 194 233 214 q 363 175 311 175 q 488 213 442 175 q 533 311 533 250 q 510 400 533 351 q 442 499 486 449 l 349 499 l 310 594 m 196 -57 q 220 -4 196 -25 q 279 17 244 17 q 336 -4 313 17 q 360 -57 360 -25 q 336 -109 360 -89 q 279 -129 313 -129 q 220 -109 244 -129 q 196 -57 196 -89 z "},"य़":{"ha":768,"x_min":-143,"x_max":800,"o":"m -143 897 l 769 897 l 800 801 l 649 801 q 647 613 647 707 q 646 434 646 518 q 646 281 646 350 q 646 169 646 211 l 646 -11 l 542 18 l 542 308 q 446 265 499 279 q 343 251 393 251 q 234 274 282 251 q 149 333 186 297 q 83 415 111 369 q 36 506 56 460 q 93 549 65 524 q 142 604 121 574 q 176 671 164 635 q 189 747 189 707 q 164 801 189 786 l -104 801 l -143 897 m 307 731 q 267 597 307 665 q 153 465 228 528 q 245 374 188 403 q 365 344 303 344 q 464 363 417 344 q 540 421 511 382 q 538 611 539 517 q 536 801 536 706 l 290 801 q 302 768 297 786 q 307 731 307 750 m 121 68 q 145 120 121 100 q 201 140 169 140 q 261 120 238 140 q 285 68 285 100 q 261 15 285 36 q 201 -6 238 -6 q 145 15 169 -6 q 121 68 121 36 z "},"ॺ":{"ha":768,"x_min":-143,"x_max":800,"o":"m -143 897 l 769 897 l 800 801 l 649 801 q 647 613 647 707 q 646 434 646 518 q 646 281 646 350 q 646 169 646 211 l 646 -11 l 542 18 l 542 308 q 446 265 499 279 q 343 251 393 251 q 234 274 282 251 q 149 333 186 297 q 83 415 111 369 q 36 506 56 460 q 93 549 65 524 q 142 604 121 574 q 176 671 164 635 q 189 747 189 707 q 164 801 189 786 l -104 801 l -143 897 m 154 465 q 245 374 188 403 q 365 344 303 344 q 451 359 410 344 q 522 401 492 374 l 296 658 q 154 465 268 558 m 536 801 l 299 801 q 354 734 324 771 q 417 658 385 697 q 480 579 449 618 q 538 507 511 540 l 536 801 z "},"०":{"ha":642,"x_min":57,"x_max":610,"o":"m 358 844 q 468 813 421 844 q 547 734 515 782 q 594 628 578 686 q 610 515 610 569 q 588 378 610 447 q 525 254 565 310 q 428 164 485 199 q 304 129 372 129 q 189 162 236 129 q 113 245 142 194 q 70 356 83 296 q 57 474 57 417 q 80 606 57 540 q 143 725 103 672 q 238 811 183 778 q 358 844 293 844 m 419 243 q 444 292 433 263 q 462 355 454 321 q 474 425 469 389 q 478 493 478 461 q 466 589 478 542 q 432 673 454 636 q 380 733 410 710 q 315 756 350 756 q 302 753 311 756 q 283 747 293 751 q 262 738 272 743 q 244 728 251 733 q 219 676 231 707 q 199 612 207 646 q 186 543 190 578 q 182 479 182 508 q 194 381 182 428 q 228 297 206 333 q 281 238 250 260 q 351 217 313 217 q 365 219 356 217 q 384 224 374 221 q 404 233 394 228 q 419 243 414 238 z "},"ॾ":{"ha":726,"x_min":-51,"x_max":764,"o":"m 193 324 q 96 423 128 372 q 63 519 64 474 l 63 525 q 144 648 63 601 q 386 694 226 694 l 424 694 q 443 694 433 694 q 464 693 453 694 l 464 799 l -12 799 q -33 849 -22 824 q -51 897 -43 874 l 735 897 l 764 801 l 569 799 l 569 665 q 571 586 569 626 q 440 597 504 592 q 326 601 376 601 q 222 588 261 601 q 182 538 182 575 q 224 442 182 500 q 358 454 294 454 q 479 440 425 454 q 572 399 533 426 q 631 333 610 372 q 653 243 653 294 q 621 112 653 163 q 542 33 589 61 q 444 -6 496 4 q 353 -17 392 -17 q 265 -9 304 -17 q 192 12 225 -1 q 132 42 160 25 q 78 78 104 60 l 78 165 q 245 102 163 124 q 394 81 328 81 q 513 107 467 81 q 563 186 560 133 l 563 194 q 545 264 563 235 q 499 311 528 293 q 431 338 469 329 q 350 346 392 346 q 274 340 313 346 q 199 324 235 335 l 193 324 m 75 -104 l 615 -104 l 649 -200 l 111 -200 l 75 -104 z "},"ऌ":{"ha":988,"x_min":-87,"x_max":1028,"o":"m -87 897 l 996 897 l 1028 801 l 872 801 q 872 587 872 688 q 871 408 871 486 q 871 279 871 331 q 871 214 871 228 l 871 144 q 845 150 858 147 q 824 153 832 153 q 771 144 797 153 q 723 122 744 136 q 688 90 701 108 q 674 51 674 71 q 687 19 674 36 q 722 -12 700 3 q 770 -35 743 -26 q 826 -44 797 -44 q 849 -43 838 -44 q 879 -35 860 -42 l 885 -111 l 864 -117 q 829 -126 846 -122 q 788 -129 813 -129 q 655 -78 704 -129 q 606 57 606 -26 q 617 122 606 90 q 649 177 628 153 q 699 217 669 201 q 764 236 728 233 q 763 363 764 299 q 763 489 763 426 q 718 515 749 515 q 651 499 681 515 q 597 452 622 482 q 549 382 572 422 q 501 294 526 342 l 407 349 q 457 431 432 393 q 510 503 482 469 q 408 575 456 553 q 322 597 360 597 q 226 549 261 597 q 192 406 192 500 q 203 301 192 351 q 233 206 215 251 q 274 124 251 161 q 319 57 297 86 l 263 -10 l 233 29 q 183 99 210 61 q 133 179 156 136 q 97 269 111 222 q 82 364 82 315 q 103 486 82 428 q 164 589 125 544 q 257 659 203 633 q 376 685 311 685 q 435 675 406 685 q 492 651 465 665 q 544 618 519 636 q 589 582 568 600 q 700 621 640 621 q 763 611 738 621 l 763 801 l -51 801 l -87 897 z "},"ॿ":{"ha":738,"x_min":-143,"x_max":768,"o":"m -143 897 l 742 897 l 768 801 q 721 800 746 800 l 599 800 l 599 643 l 599 219 q 600 -11 599 103 l 492 18 l 492 213 q 408 183 456 194 q 315 172 360 172 q 225 186 269 172 q 146 230 181 200 q 88 306 111 260 q 60 415 64 351 q 80 510 61 465 q 131 590 99 556 q 209 644 164 624 q 307 665 254 665 q 397 653 350 665 q 489 613 443 640 q 488 723 488 678 q 488 799 488 768 l -107 799 l -143 897 m 63 -104 l 618 -104 l 649 -199 l 97 -199 l 63 -104 m 129 415 q 145 376 129 399 q 189 333 161 354 q 254 298 217 313 q 336 283 292 283 q 393 290 361 283 q 291 401 340 347 q 193 511 242 454 q 147 466 164 492 q 129 415 129 440 m 492 514 q 415 545 453 536 q 342 554 378 554 q 282 547 314 554 q 330 492 304 522 q 381 433 356 463 q 429 374 406 403 q 472 322 453 346 l 492 333 l 492 514 z "},"ॱ":{"ha":265,"x_min":50,"x_max":213,"o":"m 50 864 q 74 917 50 894 q 129 939 97 939 q 189 917 165 939 q 213 864 213 894 q 189 811 213 833 q 129 789 165 789 q 74 811 97 789 q 50 864 50 833 z "},"़":{"ha":0,"x_min":-765,"x_max":-601,"o":"m -765 -71 q -741 -18 -765 -39 q -685 3 -717 3 q -626 -18 -650 3 q -601 -71 -601 -39 q -626 -124 -601 -103 q -685 -144 -650 -144 q -741 -124 -717 -144 q -765 -71 -765 -103 z "},"॰":{"ha":600,"x_min":29,"x_max":567,"o":"m 136 849 q 224 890 172 874 q 318 907 276 907 q 424 888 378 907 q 500 839 469 868 q 547 775 531 810 q 567 710 564 740 l 567 697 q 534 586 567 640 q 449 492 501 532 q 411 469 433 479 q 365 451 389 458 q 316 438 340 443 q 271 433 292 433 q 242 435 260 433 q 205 442 225 438 q 165 452 185 446 q 129 467 146 458 q 64 534 93 490 q 31 638 35 578 q 30 647 31 643 q 29 657 29 651 q 56 760 29 714 q 136 849 83 806 m 381 507 q 405 542 394 521 q 422 587 415 563 q 433 636 429 611 q 436 682 436 661 l 436 693 q 419 747 429 719 q 391 797 408 774 q 347 834 374 819 q 282 849 321 849 q 269 848 278 849 q 249 845 260 847 q 227 840 238 843 q 210 832 217 836 q 185 799 196 818 q 166 757 174 779 q 154 712 158 735 q 150 668 150 689 q 151 649 150 654 q 165 593 154 621 q 194 543 175 565 q 243 507 214 521 q 313 493 272 493 q 326 494 317 493 q 345 497 335 494 q 365 501 356 499 q 381 507 375 504 z "},"्":{"ha":0,"x_min":-257,"x_max":58,"o":"m -176 29 q -75 -97 -119 -40 q -1 -193 -31 -153 q 44 -256 29 -233 q 57 -278 58 -278 l -57 -278 q -88 -226 -62 -260 q -147 -156 -114 -192 q -210 -87 -179 -119 q -257 -39 -242 -54 l -176 29 z "},"ॎ":{"ha":356,"x_min":133,"x_max":396,"o":"m 363 897 l 396 801 l 239 801 l 239 290 q 240 -11 239 143 l 133 18 l 133 899 l 363 897 z "},"ॄ":{"ha":0,"x_min":-301,"x_max":-82,"o":"m -301 -250 q -284 -211 -301 -226 q -247 -185 -267 -196 q -283 -135 -264 -165 q -301 -65 -301 -106 q -286 -17 -301 -42 q -246 19 -271 8 q -207 31 -226 29 q -171 33 -187 33 q -156 33 -162 33 q -142 32 -149 32 q -129 31 -136 31 q -124 12 -126 28 q -121 -56 -121 -4 q -190 -76 -169 -60 q -211 -110 -211 -92 q -199 -138 -211 -125 q -168 -158 -187 -151 l -153 -158 q -128 -157 -140 -158 q -101 -150 -115 -156 l -128 -239 q -190 -261 -171 -246 q -210 -294 -210 -276 q -180 -335 -210 -317 q -101 -353 -150 -353 l -82 -353 l -99 -433 q -162 -424 -126 -433 q -228 -394 -197 -415 q -281 -338 -260 -374 q -301 -250 -301 -303 z "},"ृ":{"ha":0,"x_min":-456,"x_max":-8,"o":"m -349 -192 q -308 -288 -349 -246 q -190 -331 -268 -331 q -119 -321 -158 -331 q -29 -287 -79 -311 l -8 -369 q -99 -412 -51 -399 q -194 -426 -147 -426 q -293 -410 -246 -426 q -376 -364 -340 -394 q -434 -290 -412 -333 q -456 -189 -456 -246 q -435 -102 -456 -140 q -381 -37 -415 -64 q -301 4 -347 -10 q -204 18 -256 18 q -141 11 -172 18 q -78 -12 -110 4 l -97 -93 q -147 -80 -125 -83 q -186 -76 -169 -76 q -260 -90 -229 -76 q -310 -123 -290 -104 q -340 -161 -331 -142 q -349 -192 -349 -181 z "},"॓":{"ha":0,"x_min":-293,"x_max":-93,"o":"m -196 1243 q -145 1142 -165 1183 q -113 1072 -125 1100 q -97 1027 -101 1043 q -93 1004 -93 1011 q -97 996 -93 996 l -204 1019 q -215 1063 -206 1039 q -237 1110 -224 1086 q -265 1158 -250 1135 q -293 1199 -281 1181 l -196 1243 z "},"॑":{"ha":0,"x_min":-218,"x_max":-100,"o":"m -100 1238 q -108 1101 -103 1153 q -118 1019 -112 1049 q -129 981 -124 990 q -139 971 -135 971 l -218 1042 q -207 1085 -210 1060 q -204 1139 -204 1110 q -206 1193 -204 1167 q -210 1240 -207 1219 l -100 1238 z "},"ो":{"ha":358,"x_min":-226,"x_max":396,"o":"m -43 897 l 167 897 q 133 987 157 942 q 74 1068 108 1032 q -1 1126 40 1104 q -87 1149 -43 1149 q -126 1147 -92 1149 q -203 1129 -161 1144 l -226 1224 q -183 1236 -206 1231 q -141 1246 -164 1242 q -94 1250 -118 1250 l -79 1250 q 47 1208 -8 1243 q 144 1124 103 1174 q 209 1014 185 1074 q 242 897 233 954 l 363 897 l 396 801 l 240 801 l 240 -11 l 133 18 l 133 801 l -7 801 l -43 897 z "},"ी":{"ha":361,"x_min":-250,"x_max":396,"o":"m -43 897 l 126 897 q 99 1000 118 949 q 56 1091 81 1051 q -1 1156 31 1131 q -68 1181 -33 1181 q -119 1162 -106 1181 q -133 1111 -133 1143 q -127 1060 -133 1089 q -114 1000 -121 1031 q -106 967 -110 983 q -99 933 -101 950 l -211 915 q -239 1000 -228 957 q -250 1085 -250 1043 q -241 1147 -250 1118 q -211 1197 -232 1176 q -156 1231 -190 1218 q -71 1243 -122 1243 l -62 1243 q 39 1216 -8 1242 q 124 1144 86 1190 q 189 1035 161 1099 q 232 897 217 972 l 363 897 l 396 801 l 240 801 l 240 -11 l 133 18 l 133 801 l -7 801 l -43 897 z "},"ि":{"ha":358,"x_min":-43,"x_max":908,"o":"m -43 897 l 131 897 l 128 903 q 113 986 113 951 q 145 1092 113 1047 q 228 1165 178 1136 q 338 1207 278 1193 q 450 1221 397 1221 q 547 1209 492 1221 q 662 1166 601 1197 q 785 1081 722 1135 q 908 942 849 1026 l 857 908 q 760 1011 813 968 q 654 1081 707 1054 q 554 1119 601 1107 q 474 1132 507 1132 q 382 1119 426 1132 q 303 1081 338 1106 q 249 1023 269 1057 q 228 946 228 989 q 230 922 228 933 q 235 897 232 910 l 363 897 l 396 801 l 240 801 l 240 -11 l 133 18 l 133 801 l -7 801 l -43 897 z "},"४":{"ha":919,"x_min":94,"x_max":833,"o":"m 174 921 l 208 885 q 324 772 256 839 q 457 626 393 704 q 609 781 529 706 q 758 921 689 857 l 833 832 q 758 769 797 803 q 679 699 719 736 q 599 621 639 661 q 525 539 560 581 q 580 454 554 497 q 626 369 606 411 q 657 285 646 326 q 668 206 668 243 q 656 120 668 160 q 619 51 643 81 q 558 6 594 22 q 472 -11 521 -11 q 379 9 421 -11 q 308 63 338 29 q 262 138 278 96 q 246 225 246 181 q 285 376 246 296 q 381 532 324 457 q 277 644 331 589 q 179 744 224 700 l 94 832 l 174 921 m 364 175 q 392 80 364 108 q 453 51 419 51 q 492 62 472 51 q 529 92 513 72 q 556 139 546 111 q 567 203 567 167 q 533 317 567 253 q 453 443 499 381 q 388 313 413 381 q 364 175 364 244 z "},"ऄ":{"ha":1047,"x_min":53,"x_max":1085,"o":"m 475 804 q 421 865 475 860 q 357 845 393 863 q 285 803 321 828 q 217 751 249 779 q 169 701 186 724 l 96 792 q 169 857 125 828 q 263 901 207 881 q 397 922 319 922 q 472 917 436 922 q 534 896 507 911 q 577 854 561 881 q 593 788 593 828 q 570 692 593 744 q 503 586 547 639 q 544 543 517 572 q 596 479 571 514 q 658 498 625 486 q 722 525 692 510 q 778 558 753 540 q 819 596 804 576 q 818 699 819 647 q 817 801 817 750 l 681 801 l 644 897 l 854 897 q 832 944 847 926 q 796 973 817 963 q 749 988 775 983 q 696 997 724 993 q 619 1009 660 1001 q 541 1034 579 1017 q 467 1084 503 1051 q 403 1171 431 1117 l 494 1244 q 543 1157 515 1189 q 603 1108 571 1125 q 670 1083 636 1090 q 738 1072 704 1076 q 806 1058 772 1067 q 865 1031 839 1050 q 908 981 890 1013 q 931 897 926 949 l 1053 897 l 1085 801 l 929 801 l 929 -11 l 822 18 l 822 482 q 729 413 775 436 q 644 381 683 390 l 650 381 q 661 321 661 347 q 635 206 661 258 q 563 117 608 154 q 459 58 518 79 q 333 36 400 36 q 226 59 272 36 q 144 121 179 82 q 87 210 110 160 q 53 314 64 260 l 114 392 q 164 297 139 343 q 219 214 189 250 q 288 155 250 178 q 375 132 325 132 q 513 169 465 132 q 560 268 560 206 q 526 379 560 317 q 418 507 493 442 q 370 474 397 490 q 308 440 343 458 l 260 526 q 345 585 306 550 q 413 660 385 621 q 458 737 442 699 q 475 804 475 775 z "},"ौ":{"ha":356,"x_min":-222,"x_max":396,"o":"m -43 897 l 139 897 q 60 967 103 943 q -22 990 18 990 q -164 933 -86 990 l -211 1022 q -50 1079 -132 1079 q 38 1061 -6 1079 q 118 1015 82 1043 q 29 1111 82 1074 q -85 1149 -24 1149 q -124 1147 -89 1149 q -200 1129 -158 1144 l -222 1224 q -178 1236 -200 1231 q -136 1246 -158 1242 q -92 1250 -114 1250 l -76 1250 q 49 1206 -7 1242 q 144 1122 104 1171 q 209 1013 185 1072 q 242 897 233 954 l 363 897 l 396 801 l 240 801 l 240 -11 l 133 18 l 133 801 l -7 801 l -43 897 z "},"꣪":{"ha":0,"x_min":-379,"x_max":21,"o":"m -225 1233 q -233 1256 -225 1253 q -254 1246 -242 1253 q -280 1228 -267 1239 q -305 1207 -293 1218 q -325 1186 -317 1196 l -361 1231 q -333 1253 -350 1243 q -296 1269 -318 1261 q -242 1276 -274 1276 q -190 1267 -208 1276 q -172 1226 -172 1258 q -183 1193 -172 1213 q -210 1154 -193 1174 q -194 1138 -204 1150 q -176 1117 -183 1126 q -133 1135 -158 1124 q -97 1158 -107 1146 q -99 1195 -99 1176 q -100 1232 -100 1214 l -150 1232 l -162 1268 l 10 1268 l 21 1232 l -50 1232 l -50 931 l -97 949 l -97 1100 q -126 1088 -108 1093 q -157 1079 -144 1083 q -149 1057 -149 1071 q -181 982 -149 1011 q -265 953 -212 953 q -344 983 -317 953 q -379 1053 -371 1013 l -343 1097 q -324 1058 -333 1078 q -302 1022 -314 1038 q -278 997 -290 1007 q -250 988 -265 988 q -208 1001 -222 988 q -194 1038 -194 1014 q -203 1078 -194 1057 q -235 1119 -212 1099 q -253 1109 -242 1114 q -281 1097 -265 1104 l -301 1129 q -247 1178 -268 1146 q -225 1233 -225 1211 z "},"ॏ":{"ha":361,"x_min":-287,"x_max":396,"o":"m -43 897 l 128 897 q 77 921 108 915 q 10 926 46 926 q -67 931 -28 928 q -147 951 -107 935 q -222 1001 -186 968 q -287 1093 -258 1033 l -196 1167 q -147 1083 -175 1114 q -88 1035 -119 1053 q -24 1009 -57 1017 q 39 997 8 1001 q 90 990 64 994 q 135 978 115 985 q 103 1008 121 994 q 65 1036 85 1022 l 58 1042 q -10 1095 25 1065 q -68 1171 -44 1125 l 24 1244 q 56 1184 40 1208 q 88 1142 72 1160 q 117 1114 103 1125 q 144 1093 132 1103 q 179 1064 163 1079 q 208 1026 196 1049 q 227 973 219 1004 q 235 897 235 942 l 363 897 l 396 801 l 239 801 l 239 650 l 239 225 q 240 -11 239 108 l 133 18 l 133 801 l -7 801 l -43 897 z "},"ꣷ":{"ha":668,"x_min":104,"x_max":593,"o":"m 347 65 q 389 67 367 65 q 430 74 411 68 q 461 88 449 79 q 474 113 474 97 q 461 137 474 124 q 429 164 449 150 q 384 193 410 178 q 332 224 358 208 q 265 263 299 242 q 203 308 231 285 q 158 356 175 331 q 140 408 140 381 q 165 474 140 447 q 238 511 189 500 q 266 518 247 515 q 308 522 285 521 q 355 524 331 524 q 400 525 379 525 q 428 524 415 525 q 451 524 440 524 l 474 524 l 503 444 l 260 444 q 238 441 253 444 q 224 426 224 438 q 261 377 224 406 q 347 317 299 349 l 368 303 q 431 258 400 281 q 488 213 463 236 q 528 164 513 189 q 544 114 544 139 q 523 60 544 83 q 469 19 501 36 q 400 -6 438 3 q 331 -14 363 -14 q 241 1 278 -14 q 179 40 204 15 q 140 96 154 64 q 115 163 125 128 l 160 210 l 167 199 q 199 150 183 174 q 236 108 215 126 q 283 78 257 90 q 347 65 310 67 m 357 660 q 402 678 379 660 q 443 725 425 697 q 473 785 461 753 q 485 846 485 818 l 593 811 q 572 741 589 778 q 526 674 556 704 q 455 624 497 644 q 357 603 413 604 l 346 603 q 185 657 246 603 q 104 807 124 711 l 211 846 q 230 772 215 806 q 265 713 244 738 q 309 674 285 688 q 357 660 333 660 m 268 829 q 292 881 268 858 q 351 903 315 903 q 408 881 383 903 q 432 829 432 858 q 408 775 432 797 q 351 753 383 753 q 292 775 315 753 q 268 829 268 797 z "},"ꣶ":{"ha":689,"x_min":104,"x_max":593,"o":"m 369 469 q 330 457 353 468 q 285 431 307 446 q 244 400 264 417 q 214 369 225 383 l 160 436 q 210 483 181 463 q 271 517 235 501 q 356 532 307 532 l 361 532 q 455 507 428 529 q 482 433 482 485 q 469 374 482 407 q 433 308 457 342 q 460 277 444 296 q 491 235 476 258 q 515 188 506 213 q 525 140 525 164 q 508 68 525 97 q 463 21 492 39 q 397 -5 435 3 q 317 -12 358 -12 q 293 -11 300 -12 q 344 -64 313 -39 q 419 -108 375 -89 l 406 -168 l 400 -168 q 359 -158 383 -168 q 310 -128 335 -149 q 262 -75 285 -107 q 225 1 239 -43 q 174 3 200 1 q 136 18 147 6 q 144 60 136 39 q 165 99 153 82 q 193 128 178 117 q 222 139 208 139 q 263 86 254 133 q 302 81 278 83 q 358 75 326 78 q 370 74 365 74 q 381 74 375 74 q 457 122 457 74 q 438 174 457 144 q 371 244 418 203 q 340 224 357 233 q 301 204 324 214 l 260 278 q 316 316 290 294 q 361 360 342 338 q 392 405 381 383 q 403 443 403 426 q 369 469 403 468 m 357 660 q 402 678 379 660 q 443 725 425 697 q 473 785 461 753 q 485 846 485 818 l 593 811 q 572 741 589 778 q 526 674 556 704 q 455 624 497 644 q 357 603 413 604 l 346 603 q 185 657 246 603 q 104 807 124 711 l 211 846 q 230 772 215 806 q 265 713 244 738 q 309 674 285 688 q 357 660 333 660 m 268 829 q 292 881 268 858 q 351 903 315 903 q 408 881 383 903 q 432 829 432 858 q 408 775 432 797 q 351 753 383 753 q 292 775 315 753 q 268 829 268 797 z "},"ꣵ":{"ha":678,"x_min":104,"x_max":593,"o":"m 350 528 q 420 512 388 528 q 476 469 453 496 q 512 410 499 443 q 525 343 525 378 q 513 272 525 307 q 479 207 501 238 q 426 153 457 176 q 356 118 394 131 q 387 73 369 96 q 427 32 404 50 q 478 3 450 14 q 539 -8 506 -8 l 553 -8 l 524 -101 l 517 -101 q 467 -90 497 -101 q 404 -55 436 -79 q 344 8 372 -31 q 301 104 317 47 q 258 96 283 99 q 220 101 238 97 q 193 115 203 106 q 203 165 193 140 q 230 210 214 190 q 264 243 246 231 q 299 256 282 256 q 331 241 318 256 q 347 192 343 226 q 415 242 389 207 q 442 332 442 276 q 420 419 442 393 q 367 444 399 444 q 299 424 335 444 q 232 368 264 404 l 176 438 q 259 506 210 486 q 350 528 308 526 m 357 660 q 402 678 379 660 q 443 725 425 697 q 473 785 461 753 q 485 846 485 818 l 593 811 q 572 741 589 778 q 526 674 556 704 q 455 624 497 644 q 357 603 413 604 l 346 603 q 185 657 246 603 q 104 807 124 711 l 211 846 q 230 772 215 806 q 265 713 244 738 q 309 674 285 688 q 357 660 333 660 m 268 829 q 292 881 268 858 q 351 903 315 903 q 408 881 383 903 q 432 829 432 858 q 408 775 432 797 q 351 753 383 753 q 292 775 315 753 q 268 829 268 797 z "},"ꣳ":{"ha":681,"x_min":104,"x_max":593,"o":"m 357 660 q 402 678 379 660 q 443 725 425 697 q 473 785 461 753 q 485 846 485 818 l 593 811 q 572 741 589 778 q 526 674 556 704 q 455 624 497 644 q 357 603 413 604 l 346 603 q 185 657 246 603 q 104 807 124 711 l 211 846 q 230 772 215 806 q 265 713 244 738 q 309 674 285 688 q 357 660 333 660 m 268 829 q 292 881 268 858 q 351 903 315 903 q 408 881 383 903 q 432 829 432 858 q 408 775 432 797 q 351 753 383 753 q 292 775 315 753 q 268 829 268 797 m 358 472 q 460 347 415 403 q 534 250 504 290 q 578 188 564 210 q 592 165 593 165 l 478 165 q 447 217 472 183 q 388 288 421 251 q 324 356 356 324 q 278 404 293 389 l 358 472 z "},"◌":{"ha":876,"x_min":54,"x_max":850,"o":"m 401 765 q 416 796 401 783 q 451 808 431 808 q 485 796 471 808 q 499 765 499 783 q 485 738 499 750 q 451 725 471 725 q 416 738 431 725 q 401 765 401 750 m 401 31 q 416 61 401 49 q 451 74 431 74 q 485 61 471 74 q 499 31 499 49 q 485 3 499 15 q 451 -10 471 -10 q 416 3 431 -10 q 401 31 401 15 m 104 354 q 69 367 83 354 q 54 397 54 379 q 69 425 54 413 q 104 438 83 438 q 138 425 124 438 q 151 397 151 413 q 138 367 151 379 q 104 354 124 354 m 779 486 q 744 499 758 486 q 729 529 729 511 q 744 557 729 544 q 779 569 758 569 q 813 557 799 569 q 826 529 826 544 q 813 499 826 511 q 779 486 799 486 m 197 621 q 162 633 176 621 q 147 664 147 646 q 162 692 147 679 q 197 706 176 706 q 231 692 217 706 q 244 664 244 679 q 231 633 244 646 q 197 621 217 621 m 717 611 q 681 624 696 611 q 667 654 667 636 q 681 682 667 669 q 717 694 696 694 q 750 682 736 694 q 764 654 764 669 q 750 624 764 636 q 717 611 736 611 m 317 706 q 281 718 296 706 q 267 747 267 731 q 281 775 267 763 q 317 788 296 788 q 350 775 336 788 q 364 747 364 763 q 350 718 364 731 q 317 706 336 706 m 590 694 q 555 707 569 694 q 540 738 540 719 q 555 765 540 753 q 590 778 569 778 q 624 765 610 778 q 638 738 638 753 q 624 707 638 719 q 590 694 610 694 m 539 71 q 553 101 539 89 q 589 114 568 114 q 623 101 608 114 q 638 71 638 89 q 623 43 638 56 q 589 31 608 31 q 553 43 568 31 q 539 71 539 56 m 658 147 q 674 178 658 165 q 708 190 689 190 q 742 178 728 190 q 756 147 756 165 q 742 119 756 132 q 708 107 728 107 q 674 119 689 107 q 658 147 658 132 m 732 271 q 746 301 732 289 q 781 314 760 314 q 814 301 800 314 q 828 271 828 289 q 814 243 828 256 q 781 231 800 231 q 746 243 760 231 q 732 271 732 256 m 753 410 q 768 440 753 428 q 803 453 783 453 q 836 440 822 453 q 850 410 850 428 q 836 382 850 394 q 803 369 822 369 q 768 382 783 369 q 753 410 753 394 m 126 225 q 91 238 106 225 q 76 268 76 250 q 91 296 76 283 q 126 308 106 308 q 160 296 146 308 q 174 268 174 283 q 160 238 174 250 q 126 225 146 225 m 199 101 q 163 114 178 101 q 149 144 149 126 q 163 172 149 160 q 199 185 178 185 q 232 172 218 185 q 246 144 246 160 q 232 114 246 126 q 199 101 218 101 m 318 25 q 283 38 297 25 q 268 68 268 50 q 283 96 268 83 q 318 108 297 108 q 351 96 338 108 q 365 68 365 83 q 351 38 365 50 q 318 25 338 25 m 126 486 q 91 499 106 486 q 76 529 76 511 q 91 557 76 544 q 126 569 106 569 q 160 557 146 569 q 174 529 174 544 q 160 499 174 511 q 126 486 146 486 z "},"ꣴ":{"ha":678,"x_min":104,"x_max":593,"o":"m 357 660 q 402 678 379 660 q 443 725 425 697 q 473 785 461 753 q 485 846 485 818 l 593 811 q 572 741 589 778 q 526 674 556 704 q 455 624 497 644 q 357 603 413 604 l 346 603 q 185 657 246 603 q 104 807 124 711 l 211 846 q 230 772 215 806 q 265 713 244 738 q 309 674 285 688 q 357 660 333 660 m 268 829 q 292 881 268 858 q 351 903 315 903 q 408 881 383 903 q 432 829 432 858 q 408 775 432 797 q 351 753 383 753 q 292 775 315 753 q 268 829 268 797 m 357 285 q 402 303 379 285 q 443 350 425 322 q 473 410 461 378 q 485 471 485 443 l 593 436 q 572 366 589 403 q 526 299 556 329 q 455 249 497 269 q 357 228 413 229 l 346 228 q 185 281 246 228 q 104 431 124 335 l 211 471 q 230 397 215 431 q 265 338 244 363 q 309 299 285 313 q 357 285 333 285 m 268 454 q 292 506 268 483 q 351 528 315 528 q 408 506 383 528 q 432 454 432 483 q 408 400 432 422 q 351 378 383 378 q 292 400 315 378 q 268 454 268 422 m 357 103 q 458 -23 414 33 q 533 -119 503 -79 q 577 -182 563 -160 q 590 -204 592 -204 l 476 -204 q 445 -152 471 -186 q 387 -82 419 -118 q 323 -13 354 -46 q 276 35 292 19 l 357 103 z "},"꣨":{"ha":0,"x_min":-257,"x_max":-50,"o":"m -257 1011 q -244 1059 -257 1032 q -210 1115 -231 1086 q -165 1169 -189 1143 q -119 1217 -140 1196 q -83 1251 -99 1239 q -67 1265 -68 1264 l -51 1238 q -93 1192 -68 1222 q -142 1127 -118 1163 q -182 1057 -165 1092 q -199 1000 -199 1022 q -190 985 -199 988 q -174 983 -182 983 q -131 1008 -150 983 q -89 1085 -111 1032 l -50 1042 q -84 977 -58 1006 q -157 949 -110 949 q -231 967 -206 949 q -257 1011 -257 986 z "},"꣥":{"ha":0,"x_min":-275,"x_max":-67,"o":"m -215 1072 q -258 1103 -242 1072 q -275 1174 -275 1135 q -261 1231 -275 1201 q -224 1275 -247 1260 l -186 1249 q -210 1207 -204 1236 q -217 1151 -217 1178 q -213 1115 -217 1131 q -203 1100 -210 1100 q -178 1107 -187 1100 q -161 1125 -168 1114 q -180 1144 -175 1136 q -185 1158 -185 1151 q -182 1168 -185 1165 q -143 1181 -169 1181 q -97 1169 -119 1181 l -81 1161 q -91 1143 -81 1151 q -106 1129 -101 1135 l -108 1124 q -76 1078 -85 1100 q -67 1042 -67 1057 q -76 1008 -67 1022 q -101 983 -86 993 q -136 968 -117 974 q -174 963 -156 963 q -187 963 -181 963 q -201 965 -194 963 l -201 997 l -190 997 q -144 1010 -164 997 q -124 1047 -124 1024 q -126 1071 -124 1058 q -137 1097 -129 1083 q -178 1080 -156 1088 q -215 1072 -200 1072 z "},"꣤":{"ha":0,"x_min":-299,"x_max":-32,"o":"m -187 1033 q -169 992 -187 992 q -151 1005 -160 992 q -142 1043 -143 1018 q -149 1075 -142 1058 q -167 1108 -156 1092 q -187 1033 -187 1075 m -32 1243 l -44 1232 q -88 1192 -64 1214 q -136 1142 -112 1171 q -99 1083 -112 1111 q -85 1029 -85 1054 q -105 978 -85 997 q -162 958 -125 958 q -226 982 -203 958 q -250 1036 -250 1006 q -237 1086 -250 1060 q -203 1139 -224 1113 q -228 1167 -215 1153 q -253 1193 -242 1182 q -278 1219 -268 1208 q -299 1243 -289 1231 l -267 1281 l -257 1269 q -216 1231 -240 1254 q -168 1181 -192 1207 q -124 1224 -149 1201 q -76 1268 -100 1247 l -65 1281 l -32 1243 z "},"ꣻ":{"ha":896,"x_min":65,"x_max":829,"o":"m 65 1119 l 794 1119 l 829 1024 l 104 1024 l 65 1119 z "},"꣬":{"ha":0,"x_min":-404,"x_max":50,"o":"m -106 1031 l -99 1031 q -44 1049 -61 1031 q -26 1092 -26 1068 q -33 1124 -26 1107 q -64 1149 -47 1149 q -96 1141 -75 1149 q -140 1118 -117 1133 l -140 929 l -193 946 l -193 1013 q -224 1004 -208 1006 q -260 1003 -240 1003 q -331 1022 -300 1003 q -364 1092 -361 1042 l -364 1093 q -335 1157 -364 1131 q -261 1183 -306 1183 q -227 1180 -246 1183 q -193 1168 -208 1176 l -193 1233 l -387 1233 l -404 1274 l 36 1274 l 50 1233 l -140 1233 l -140 1169 q -109 1180 -125 1176 q -78 1183 -93 1183 q -21 1170 -46 1183 q 17 1126 4 1157 q 26 1101 24 1111 q 29 1079 28 1090 l 29 1074 q 24 1047 29 1061 q 5 1022 18 1033 q -32 1003 -8 1011 q -93 996 -56 996 l -103 996 l -106 1031 m -315 1092 q -297 1061 -315 1079 q -250 1043 -278 1043 q -226 1048 -239 1043 q -193 1067 -212 1053 l -193 1124 q -247 1143 -228 1143 q -295 1127 -275 1143 q -315 1092 -315 1111 z "},"꣩":{"ha":0,"x_min":-278,"x_max":-64,"o":"m -64 1015 q -76 980 -64 999 q -111 946 -87 961 l -146 972 q -131 995 -137 978 q -124 1028 -124 1013 q -125 1038 -124 1035 q -134 1047 -126 1040 q -153 1061 -142 1054 q -165 1069 -156 1064 q -171 1074 -174 1075 q -209 1100 -190 1088 q -237 1124 -228 1113 q -269 1165 -261 1147 q -278 1193 -278 1182 q -265 1228 -278 1213 q -236 1256 -253 1244 q -202 1272 -219 1267 q -174 1278 -185 1278 q -116 1258 -136 1278 q -96 1211 -96 1238 q -120 1160 -96 1183 q -189 1132 -144 1136 q -158 1103 -174 1115 q -128 1082 -143 1090 q -81 1051 -99 1065 q -64 1015 -64 1036 m -167 1253 q -207 1229 -187 1250 q -226 1176 -226 1208 q -225 1161 -226 1167 q -199 1156 -212 1156 q -153 1181 -168 1156 q -139 1228 -139 1206 q -151 1256 -139 1251 q -162 1254 -160 1256 q -167 1253 -164 1253 z "},"अ":{"ha":1047,"x_min":53,"x_max":1085,"o":"m 475 804 q 421 865 475 860 q 357 845 393 863 q 285 803 321 828 q 217 751 249 779 q 169 701 186 724 l 96 792 q 169 857 125 828 q 263 901 207 881 q 397 922 319 922 q 472 917 436 922 q 534 896 507 911 q 577 854 561 881 q 593 788 593 828 q 570 692 593 744 q 503 586 547 639 q 544 543 517 572 q 596 479 571 514 q 658 498 625 486 q 722 525 692 510 q 778 558 753 540 q 819 596 804 576 q 818 699 819 647 q 817 801 817 750 l 681 801 l 644 897 l 1053 897 l 1085 801 l 929 801 l 929 -11 l 822 18 l 822 482 q 729 413 775 436 q 644 381 683 390 l 650 381 q 661 321 661 347 q 635 206 661 258 q 563 117 608 154 q 459 58 518 79 q 333 36 400 36 q 226 59 272 36 q 144 121 179 82 q 87 210 110 160 q 53 314 64 260 l 114 392 q 164 297 139 343 q 219 214 189 250 q 288 155 250 178 q 375 132 325 132 q 513 169 465 132 q 560 268 560 206 q 526 379 560 317 q 418 507 493 442 q 370 474 397 490 q 308 440 343 458 l 260 526 q 345 585 306 550 q 413 660 385 621 q 458 737 442 699 q 475 804 475 775 z "},"꣡":{"ha":0,"x_min":-231,"x_max":-54,"o":"m -64 953 q -110 963 -85 953 q -159 994 -136 974 q -198 1047 -182 1015 q -215 1122 -214 1079 l -176 1124 q -165 1122 -172 1122 q -149 1136 -154 1122 q -144 1171 -144 1150 q -206 1194 -182 1178 q -231 1228 -231 1211 q -211 1260 -231 1246 q -157 1275 -192 1275 l -149 1275 q -103 1253 -122 1275 q -85 1207 -85 1231 q -104 1122 -85 1149 q -161 1092 -124 1096 q -143 1055 -154 1074 q -118 1021 -132 1036 q -88 996 -104 1006 q -54 988 -72 986 l -64 953 m -174 1251 q -186 1236 -186 1249 q -175 1209 -186 1222 q -142 1193 -164 1196 q -153 1234 -144 1217 q -174 1251 -161 1251 z "},"꣮":{"ha":0,"x_min":-371,"x_max":-17,"o":"m -193 1031 q -231 1040 -210 1031 q -269 1065 -251 1049 q -298 1104 -286 1081 q -310 1157 -310 1128 l -310 1233 l -358 1233 l -371 1268 l -28 1268 l -17 1233 l -75 1233 l -75 929 l -133 946 l -133 1038 q -163 1032 -147 1033 q -193 1031 -179 1031 m -135 1233 l -243 1233 l -243 1158 q -226 1085 -243 1103 q -178 1067 -210 1067 q -135 1082 -158 1067 l -135 1233 z "},"꣸":{"ha":967,"x_min":67,"x_max":968,"o":"m 247 810 q 200 791 215 807 q 185 747 185 775 q 213 656 185 692 q 283 592 240 619 q 364 648 324 625 q 424 681 404 671 q 447 638 438 657 q 461 606 456 621 q 464 590 467 592 q 390 547 431 576 q 314 475 350 517 q 253 383 278 433 q 229 278 229 332 q 241 205 229 240 q 275 142 253 169 q 328 97 297 114 q 399 81 360 81 q 573 138 476 81 q 767 315 669 196 q 642 453 685 376 q 599 596 599 531 q 641 703 599 663 q 747 744 683 744 q 832 728 794 744 q 934 631 900 694 q 968 500 968 568 q 963 445 968 472 q 946 392 957 418 q 860 252 908 322 q 753 124 813 182 q 624 31 694 67 q 468 -6 553 -6 q 328 10 393 -6 q 215 61 263 26 q 139 149 167 96 q 111 275 111 201 q 141 413 111 351 q 211 524 171 475 q 108 621 149 569 q 67 731 67 672 q 77 797 67 765 q 111 851 88 828 q 172 890 135 875 q 264 908 210 906 l 247 810 m 758 690 q 756 692 757 690 q 754 693 756 693 q 733 665 743 693 q 722 594 722 638 q 742 491 722 549 q 811 376 761 433 q 847 453 836 417 q 857 522 857 490 q 848 583 857 556 q 824 632 839 611 q 792 667 810 653 q 758 690 775 682 z "},"꣯":{"ha":0,"x_min":-308,"x_max":-64,"o":"m -92 938 l -97 938 q -143 948 -117 938 q -194 981 -169 958 q -235 1035 -218 1003 q -251 1114 -251 1068 l -212 1122 q -203 1118 -208 1118 q -191 1127 -194 1118 q -187 1150 -187 1136 q -191 1188 -187 1165 q -199 1231 -194 1211 l -294 1231 l -308 1268 l -75 1268 l -64 1231 l -131 1231 q -126 1199 -128 1215 q -125 1169 -125 1183 q -140 1118 -125 1142 q -196 1086 -156 1094 q -180 1048 -190 1067 q -155 1014 -169 1029 q -124 989 -140 999 q -87 979 -107 979 l -81 979 l -92 938 z "},"꣧":{"ha":0,"x_min":-286,"x_max":-39,"o":"m -128 1226 q -137 1207 -137 1222 q -127 1169 -137 1192 q -99 1136 -117 1146 q -99 1147 -99 1142 q -100 1161 -99 1153 q -108 1206 -103 1185 q -128 1226 -114 1226 m -197 996 q -179 988 -189 988 q -133 1021 -157 988 q -101 1107 -108 1054 q -165 1136 -144 1114 q -186 1183 -186 1158 q -166 1230 -186 1210 q -110 1250 -146 1250 q -76 1242 -89 1250 q -55 1222 -62 1233 q -44 1199 -47 1211 q -40 1181 -42 1188 q -39 1159 -39 1169 q -39 1139 -39 1149 q -53 1035 -39 1072 q -90 980 -68 997 q -137 959 -112 963 q -183 956 -162 956 q -258 1008 -232 956 q -286 1142 -285 1061 l -286 1149 q -271 1225 -286 1189 q -228 1281 -256 1261 l -190 1251 q -218 1203 -212 1236 q -224 1132 -224 1169 q -216 1045 -224 1083 q -197 996 -208 1007 z "},"꣦":{"ha":0,"x_min":-265,"x_max":-1,"o":"m -4 953 q -17 950 -8 950 q -44 953 -29 950 q -75 965 -60 957 q -103 988 -90 974 q -122 1022 -117 1001 q -140 1019 -128 1019 q -176 1024 -157 1019 q -212 1038 -196 1029 q -240 1058 -229 1046 q -251 1085 -251 1069 q -237 1119 -251 1100 q -208 1154 -224 1138 q -248 1191 -231 1171 q -265 1224 -265 1211 q -244 1260 -265 1247 q -196 1274 -224 1274 q -160 1269 -178 1274 q -121 1253 -143 1264 l -144 1218 q -180 1244 -164 1235 q -200 1253 -196 1253 q -212 1238 -212 1253 q -202 1203 -212 1222 q -176 1176 -192 1183 q -135 1199 -160 1190 l -118 1169 q -140 1156 -129 1164 q -160 1138 -150 1147 l -165 1132 q -186 1089 -186 1107 q -178 1063 -186 1072 q -161 1053 -171 1053 q -132 1060 -143 1053 q -139 1074 -139 1067 q -112 1099 -139 1099 q -68 1085 -93 1099 q -37 1056 -46 1071 q -52 1047 -37 1054 q -82 1032 -67 1039 q -49 993 -69 1011 q -1 965 -29 975 l -4 953 z "},"ꣲ":{"ha":671,"x_min":104,"x_max":593,"o":"m 357 660 q 402 678 379 660 q 443 725 425 697 q 473 785 461 753 q 485 846 485 818 l 593 811 q 572 741 589 778 q 526 674 556 704 q 455 624 497 644 q 357 603 413 604 l 346 603 q 185 657 246 603 q 104 807 124 711 l 211 846 q 230 772 215 806 q 265 713 244 738 q 309 674 285 688 q 357 660 333 660 m 268 829 q 292 881 268 858 q 351 903 315 903 q 408 881 383 903 q 432 829 432 858 q 408 775 432 797 q 351 753 383 753 q 292 775 315 753 q 268 829 268 797 z "},"꣣":{"ha":0,"x_min":-286,"x_max":-75,"o":"m -219 1150 q -167 1192 -187 1165 q -146 1239 -146 1219 q -161 1257 -146 1256 q -198 1234 -174 1253 q -237 1196 -222 1215 l -269 1236 q -247 1256 -261 1247 q -217 1269 -236 1263 q -171 1275 -199 1275 q -122 1267 -147 1275 q -97 1233 -97 1260 q -105 1205 -97 1222 q -128 1171 -112 1188 q -113 1156 -122 1165 q -96 1135 -104 1146 q -81 1113 -87 1124 q -75 1092 -75 1101 q -109 1038 -75 1053 q -187 1022 -143 1022 l -196 1022 q -169 990 -186 1006 q -128 963 -153 974 l -132 947 l -137 947 q -165 952 -149 947 q -197 967 -181 957 q -226 992 -212 976 q -244 1028 -239 1007 q -269 1029 -257 1028 q -286 1036 -281 1031 q -266 1069 -286 1054 q -229 1085 -246 1085 q -203 1056 -207 1079 q -146 1059 -161 1053 q -131 1082 -131 1065 q -162 1142 -131 1113 q -178 1133 -169 1138 q -203 1124 -187 1128 l -219 1150 z "},"꣢":{"ha":0,"x_min":-272,"x_max":-68,"o":"m -179 1278 q -107 1249 -135 1278 q -79 1186 -79 1219 q -106 1118 -79 1150 q -168 1069 -132 1086 q -134 1017 -157 1043 q -75 990 -111 990 l -68 990 l -79 953 l -85 953 q -116 958 -97 953 q -154 975 -135 963 q -190 1008 -174 988 q -215 1060 -207 1029 q -246 1061 -231 1060 q -268 1069 -261 1063 q -262 1092 -268 1081 q -247 1111 -256 1103 q -226 1125 -237 1119 q -206 1131 -215 1131 q -171 1107 -176 1131 q -144 1151 -150 1121 q -142 1167 -143 1158 q -142 1181 -142 1175 l -142 1186 q -151 1234 -142 1219 q -171 1249 -160 1249 q -200 1233 -182 1249 q -237 1194 -218 1218 l -272 1238 q -231 1267 -257 1258 q -179 1278 -204 1276 z "},"꣫":{"ha":0,"x_min":-339,"x_max":-10,"o":"m -339 1276 l -21 1276 l -10 1240 l -83 1240 q -75 1214 -75 1225 q -84 1187 -75 1200 q -110 1157 -93 1174 q -94 1141 -104 1151 q -74 1117 -83 1131 q -57 1090 -64 1104 q -50 1061 -50 1075 q -90 984 -50 1014 q -183 954 -129 954 q -264 985 -236 954 q -300 1056 -292 1015 l -260 1104 q -241 1065 -251 1085 q -219 1028 -231 1044 q -196 1001 -208 1013 q -168 990 -183 990 q -124 1003 -139 990 q -110 1040 -110 1017 q -119 1082 -110 1060 q -153 1125 -129 1104 l -199 1099 l -219 1136 q -164 1169 -186 1153 q -142 1219 -142 1186 q -149 1240 -142 1236 l -324 1240 l -339 1276 z "},"ॗ":{"ha":0,"x_min":-694,"x_max":-15,"o":"m -350 -197 q -305 -183 -328 -197 q -263 -145 -282 -168 q -232 -93 -244 -122 q -218 -36 -219 -64 l -111 -72 q -132 -137 -115 -106 q -178 -195 -149 -169 q -250 -237 -207 -221 q -350 -254 -293 -253 l -365 -254 q -521 -212 -461 -254 q -600 -78 -581 -171 l -492 -35 q -474 -107 -487 -76 q -440 -158 -460 -137 q -397 -187 -419 -178 q -350 -197 -374 -197 m -15 -196 q -56 -271 -25 -237 q -133 -327 -86 -304 q -239 -362 -179 -350 q -367 -375 -299 -375 q -483 -365 -428 -375 q -583 -333 -539 -354 q -656 -278 -626 -311 q -694 -201 -685 -246 l -597 -172 q -556 -237 -582 -211 q -497 -278 -529 -262 q -428 -301 -464 -294 q -358 -307 -392 -307 q -284 -301 -321 -307 q -215 -279 -247 -294 q -158 -238 -183 -264 q -115 -174 -132 -212 l -15 -196 z "},"ॖ":{"ha":0,"x_min":-586,"x_max":-97,"o":"m -336 -197 q -291 -183 -314 -197 q -249 -145 -268 -168 q -218 -93 -231 -122 q -204 -36 -206 -64 l -97 -72 q -118 -137 -101 -106 q -164 -195 -135 -169 q -236 -237 -193 -221 q -336 -254 -279 -253 l -351 -254 q -507 -212 -447 -254 q -586 -78 -567 -171 l -478 -35 q -460 -107 -474 -76 q -426 -158 -446 -137 q -383 -187 -406 -178 q -336 -197 -360 -197 z "},"꣰":{"ha":0,"x_min":-389,"x_max":58,"o":"m -389 1268 l -315 1271 q -319 1296 -319 1285 q -305 1342 -319 1322 q -268 1376 -290 1363 q -220 1396 -246 1389 q -171 1403 -194 1403 q -129 1398 -153 1403 q -80 1381 -106 1393 q -28 1345 -54 1368 q 24 1288 -1 1322 l -3 1271 q -43 1314 -21 1296 q -87 1344 -65 1332 q -129 1360 -110 1356 q -161 1365 -149 1365 q -228 1344 -199 1365 q -257 1288 -257 1322 q -256 1278 -257 1282 q -254 1268 -256 1274 l 47 1268 l 58 1233 l -4 1233 l -4 933 l -61 946 l -61 1011 q -90 1005 -74 1007 q -122 1003 -107 1003 q -194 1022 -162 1003 q -226 1092 -226 1042 q -197 1157 -226 1131 q -124 1183 -168 1183 q -93 1180 -110 1183 q -61 1169 -76 1176 l -61 1233 l -254 1233 l -254 933 l -318 947 q -316 980 -317 950 q -315 1053 -315 1010 q -315 1104 -315 1078 q -316 1155 -315 1131 q -317 1200 -317 1179 q -318 1233 -318 1221 l -375 1233 l -389 1268 m -178 1092 q -159 1060 -178 1079 q -112 1042 -140 1042 q -61 1061 -92 1042 l -61 1125 q -88 1138 -76 1135 q -110 1142 -100 1142 q -158 1125 -137 1142 q -178 1092 -178 1108 z "},"꣺":{"ha":678,"x_min":61,"x_max":615,"o":"m 315 907 q 258 963 294 926 q 180 1047 228 994 q 61 1182 132 1099 l 138 1250 q 177 1196 150 1232 q 234 1122 204 1160 q 292 1051 264 1083 q 338 1011 321 1019 q 383 1051 354 1019 q 442 1122 411 1083 q 499 1196 472 1160 q 539 1250 526 1232 l 615 1182 q 512 1065 558 1117 q 432 978 465 1014 q 380 924 399 943 q 358 907 361 906 q 348 906 356 906 q 333 906 340 906 q 315 907 325 906 z "},"꣠":{"ha":0,"x_min":-315,"x_max":-43,"o":"m -169 1250 q -116 1240 -139 1250 q -77 1216 -93 1231 q -53 1184 -61 1201 q -43 1151 -44 1167 l -43 1146 q -58 1092 -44 1117 q -93 1051 -72 1068 q -140 1025 -114 1035 q -193 1015 -167 1015 q -276 1042 -240 1015 q -315 1117 -311 1068 l -315 1126 q -300 1177 -314 1154 q -265 1216 -286 1200 q -219 1241 -244 1232 q -169 1250 -194 1250 m -142 1053 q -123 1088 -131 1064 q -115 1136 -115 1113 q -137 1194 -115 1169 q -187 1219 -160 1219 q -202 1217 -190 1219 q -221 1211 -214 1214 q -242 1173 -235 1197 q -249 1122 -249 1149 q -228 1069 -246 1094 q -172 1044 -210 1044 q -158 1047 -169 1044 q -142 1053 -146 1049 z "},"‌":{"ha":0,"x_min":-33,"x_max":42,"o":"m 38 1675 q 40 1641 39 1675 q 40 1547 40 1607 q 40 1403 40 1486 q 40 1224 40 1321 l 40 381 q 42 -75 40 151 l -33 -51 l -33 1694 l 38 1675 z "},"‍":{"ha":0,"x_min":-179,"x_max":172,"o":"m -110 1853 q -62 1804 -85 1826 q -26 1766 -43 1785 q -4 1739 -10 1747 q 18 1765 -1 1746 q 58 1806 38 1783 q 92 1837 78 1824 q 104 1850 106 1850 l 172 1831 q 113 1761 139 1792 q 68 1712 89 1735 q 44 1686 47 1689 q 78 1654 57 1678 q 121 1606 100 1631 q 172 1542 146 1576 q 162 1538 172 1542 q 139 1531 151 1535 q 116 1525 126 1528 q 106 1522 106 1522 q 91 1533 103 1522 q 65 1560 79 1544 l 40 1586 l 40 1314 l 40 431 q 42 -75 40 181 l -33 -51 l -39 1585 q -58 1567 -49 1575 q -75 1549 -67 1558 q -98 1526 -87 1535 q -111 1518 -108 1518 q -122 1522 -111 1518 q -144 1531 -132 1526 q -167 1540 -157 1536 q -179 1546 -178 1544 q -172 1551 -179 1544 q -156 1569 -165 1558 q -133 1594 -146 1581 q -108 1624 -121 1608 q -87 1647 -97 1635 q -69 1667 -78 1658 l -50 1686 q -61 1694 -53 1686 q -81 1713 -69 1701 q -105 1740 -92 1725 q -131 1769 -118 1754 l -133 1775 q -151 1795 -143 1786 q -165 1811 -158 1804 q -178 1825 -172 1818 l -110 1853 z "},"꣹":{"ha":1039,"x_min":111,"x_max":968,"o":"m 747 744 q 832 728 794 744 q 934 631 900 694 q 968 500 968 568 q 963 445 968 472 q 946 392 957 418 q 860 252 908 322 q 753 124 813 182 q 624 31 694 67 q 468 -6 553 -6 q 326 10 392 -6 q 213 61 261 26 q 138 149 165 96 q 111 276 111 203 q 131 392 111 339 q 183 488 151 444 q 253 565 215 532 q 325 623 290 599 q 387 662 360 647 q 424 681 414 676 q 444 640 435 658 q 458 611 451 625 q 465 593 465 597 q 386 542 428 574 q 310 471 344 511 q 252 381 275 431 q 229 278 229 332 q 241 205 229 240 q 275 142 253 169 q 328 97 297 114 q 399 81 360 81 q 573 138 476 81 q 767 315 669 196 q 642 453 685 376 q 599 596 599 531 q 641 704 599 664 q 747 744 683 744 m 758 690 q 756 692 757 690 q 754 693 756 693 q 733 665 743 693 q 722 594 722 638 q 742 491 722 549 q 811 376 761 433 q 847 453 836 417 q 857 522 857 490 q 848 583 857 556 q 824 632 839 611 q 792 667 810 653 q 758 690 775 682 z "},"₹":{"ha":824,"x_min":64,"x_max":806,"o":"m 632 3 l 625 3 q 509 30 563 3 q 412 101 456 57 q 336 199 368 144 q 286 308 304 253 q 268 389 274 349 q 263 468 263 429 l 263 488 l 328 501 q 396 508 358 501 q 469 527 433 515 q 534 556 504 539 q 581 593 564 572 l 156 593 l 119 689 l 585 689 q 556 731 574 714 q 518 759 539 747 q 474 778 497 771 q 429 792 451 786 q 412 797 419 794 q 396 801 404 799 l 100 801 l 64 897 l 719 897 l 750 801 l 592 801 q 630 748 611 778 q 658 689 649 718 l 775 689 l 806 593 l 660 593 q 615 528 646 560 q 543 472 585 497 q 451 430 501 447 q 347 408 400 413 q 391 296 363 350 q 458 199 419 242 q 542 130 496 156 q 640 104 589 104 q 651 104 646 104 q 664 106 657 104 l 632 3 z "},"a":{"ha":478,"x_min":24,"x_max":453,"o":"m 154 4 q 113 19 135 6 q 71 52 90 33 q 38 93 51 71 q 24 136 25 115 q 35 165 25 139 q 69 221 46 190 q 132 276 93 251 q 229 300 171 300 q 245 300 238 300 q 263 299 253 300 l 263 313 q 255 377 263 351 q 235 417 247 403 q 206 438 222 432 q 171 443 189 443 q 134 439 151 443 q 101 431 117 435 l 85 426 l 78 442 q 111 475 93 458 q 146 505 129 492 q 178 527 163 518 q 203 536 193 536 q 245 522 219 535 q 296 490 271 508 q 341 448 321 471 q 368 404 361 425 q 369 389 369 401 q 367 342 369 369 q 364 292 364 314 q 363 274 363 282 q 363 257 363 265 q 377 161 363 194 q 408 111 392 128 q 439 89 425 94 q 453 76 453 83 q 436 49 447 64 q 411 22 426 36 q 374 -7 396 7 q 312 39 340 8 q 272 101 283 69 q 205 34 239 64 q 154 4 171 4 m 261 129 q 264 155 263 129 q 265 208 265 181 q 265 232 265 221 q 263 250 264 243 q 238 252 249 251 q 215 253 226 253 q 173 249 189 253 q 146 239 157 244 q 126 226 133 233 q 133 190 126 210 q 153 155 140 171 q 182 128 165 139 q 219 118 199 118 q 261 129 236 118 z "},"b":{"ha":515,"x_min":68,"x_max":472,"o":"m 68 0 q 72 60 69 11 q 75 178 74 110 q 78 326 76 247 q 80 474 79 404 q 81 597 81 544 q 82 668 82 650 q 80 753 82 710 q 68 817 78 797 l 151 922 q 169 881 163 922 q 178 771 175 840 q 181 611 181 701 q 182 424 182 521 q 217 462 197 443 q 255 494 236 481 q 290 517 274 508 q 313 525 306 525 q 384 501 354 525 q 434 442 414 478 q 463 363 454 406 q 472 282 472 321 q 471 249 472 264 q 465 219 469 233 q 438 163 461 200 q 384 88 414 125 q 324 24 354 51 q 274 -4 293 -4 q 270 -3 271 -4 q 268 -3 269 -3 q 215 21 246 1 q 156 64 183 40 l 126 3 l 68 0 m 217 393 q 182 358 189 376 l 182 236 q 204 188 190 211 q 235 147 218 164 q 274 119 253 129 q 317 108 294 108 q 374 128 343 108 q 389 168 385 147 q 393 213 393 189 q 383 283 393 247 q 354 345 372 318 q 313 390 336 372 q 263 407 289 407 q 217 393 242 407 z "},"c":{"ha":472,"x_min":43,"x_max":439,"o":"m 408 418 q 402 405 408 415 q 387 382 396 394 q 368 358 378 369 q 351 342 358 347 q 325 369 342 356 q 288 395 308 383 q 244 414 267 407 q 203 421 222 421 q 163 410 181 421 q 138 372 144 400 q 135 342 136 357 q 135 313 135 328 q 149 219 135 258 q 185 153 163 179 q 235 116 207 128 q 294 104 264 104 q 359 117 328 104 q 414 157 390 131 l 439 132 q 387 89 422 113 q 314 44 351 65 q 244 10 276 24 q 203 -4 213 -4 q 131 20 161 -4 q 81 81 101 44 q 52 163 61 118 q 43 247 43 207 q 50 310 43 279 q 78 367 56 329 q 132 442 101 404 q 193 507 163 479 q 244 535 224 535 l 250 535 q 290 518 264 532 q 341 487 315 504 q 386 450 367 469 q 408 418 406 431 z "},"d":{"ha":511,"x_min":44,"x_max":442,"o":"m 329 -7 q 331 27 331 0 q 333 94 332 54 q 308 67 324 83 q 274 35 292 51 q 237 8 256 19 q 203 -4 218 -3 q 133 19 163 -3 q 83 76 103 42 q 54 152 64 111 q 44 232 44 193 q 53 299 44 269 q 80 356 57 318 q 133 430 103 393 q 193 494 163 467 q 243 522 224 522 l 249 522 q 290 503 265 517 q 340 469 315 489 q 342 590 342 539 q 343 660 343 642 q 341 745 343 703 q 326 807 339 788 l 413 915 q 428 885 422 915 q 436 803 433 856 q 440 682 439 751 q 442 533 442 613 q 441 345 442 442 q 440 157 440 249 q 440 74 440 114 q 442 -4 440 33 l 329 -7 m 300 125 q 335 167 331 142 q 337 215 336 190 q 338 265 338 239 q 317 319 331 293 q 285 365 304 344 q 244 397 267 385 q 199 408 222 408 q 142 390 169 408 q 128 349 132 371 q 124 306 124 328 q 133 235 124 269 q 161 173 143 200 q 202 128 179 146 q 253 111 225 111 q 300 125 272 111 z "},"e":{"ha":481,"x_min":44,"x_max":438,"o":"m 351 268 q 312 247 336 256 q 260 234 288 239 q 204 226 232 229 q 157 224 176 224 l 142 224 q 198 129 157 158 q 286 100 239 100 q 355 115 321 100 q 414 157 389 129 l 438 132 q 387 89 422 113 q 314 44 351 65 q 244 10 276 24 q 203 -4 213 -4 q 131 19 161 -4 q 82 77 101 42 q 53 156 63 113 q 44 238 44 199 q 51 299 44 268 q 80 356 57 318 q 133 430 103 393 q 194 494 164 467 q 244 522 225 522 l 250 522 q 314 497 283 519 q 369 448 344 475 q 408 397 393 421 q 425 364 424 372 q 406 328 418 344 q 382 297 394 311 q 351 268 367 282 m 136 361 q 132 306 132 329 q 172 284 149 290 q 218 278 194 278 q 292 289 256 278 q 347 315 328 300 q 325 353 340 336 q 290 383 310 371 q 249 401 271 394 q 207 408 228 408 q 163 397 182 408 q 136 361 143 385 z "},"f":{"ha":396,"x_min":35,"x_max":458,"o":"m 301 688 q 349 719 328 703 q 369 750 369 735 q 368 757 369 756 q 315 790 344 776 q 258 804 286 804 q 247 803 251 804 q 235 800 242 801 l 228 528 l 400 528 l 389 471 l 225 471 l 225 -353 l 118 -353 l 118 467 l 35 467 l 47 528 l 119 528 l 122 706 q 132 735 122 715 q 158 777 142 754 q 194 825 174 800 q 235 870 214 850 q 274 903 256 890 q 307 915 293 915 l 311 915 q 343 905 324 915 q 383 879 363 894 q 424 844 404 864 q 458 804 444 824 q 442 773 456 793 q 408 731 428 753 q 364 688 388 708 q 321 660 340 668 l 301 688 z "},"g":{"ha":542,"x_min":29,"x_max":569,"o":"m 254 129 q 169 140 203 129 q 114 169 135 150 q 110 154 110 163 q 114 136 110 144 q 135 119 122 131 q 174 98 149 108 q 240 79 199 88 q 344 69 281 71 q 408 65 372 69 q 458 56 443 61 q 492 33 475 49 q 526 -1 510 18 q 553 -40 542 -19 q 569 -79 565 -61 q 540 -145 569 -101 q 472 -234 511 -189 q 393 -314 432 -279 q 333 -354 354 -349 q 319 -357 326 -357 q 306 -357 313 -357 q 219 -337 265 -357 q 133 -285 172 -318 q 66 -208 93 -251 q 39 -119 39 -165 q 50 -91 40 -107 q 74 -59 60 -75 q 103 -30 88 -43 q 129 -8 118 -17 q 136 -3 132 -3 q 97 13 115 1 q 63 41 78 25 q 40 74 49 57 q 29 106 31 90 l 29 111 q 49 151 29 132 q 97 186 69 171 q 72 243 78 211 q 67 310 67 275 l 67 342 q 95 393 67 361 q 163 455 124 425 q 242 506 201 485 q 307 528 282 528 q 401 515 364 528 q 460 481 439 503 q 491 430 482 458 q 500 369 500 401 q 499 342 500 356 q 494 313 497 328 q 466 263 494 293 q 399 202 438 232 q 320 151 361 172 q 254 129 279 129 m 156 -28 q 136 -86 136 -56 q 152 -140 136 -115 q 195 -182 168 -164 q 258 -210 222 -200 q 331 -221 293 -221 q 428 -200 382 -221 q 447 -164 442 -181 q 453 -132 453 -147 q 434 -81 453 -103 q 386 -44 415 -60 q 319 -22 357 -29 q 244 -14 282 -14 q 198 -17 221 -14 q 156 -28 175 -21 m 363 217 q 379 297 379 251 q 372 355 379 326 q 349 406 364 383 q 311 443 333 429 q 258 457 289 457 q 192 440 229 457 q 165 357 165 401 q 176 301 165 328 q 205 253 186 274 q 249 219 224 232 q 306 206 275 206 q 363 217 336 206 z "},"h":{"ha":557,"x_min":68,"x_max":494,"o":"m 68 0 q 72 60 69 11 q 75 178 74 110 q 78 326 76 247 q 80 474 79 404 q 81 597 81 544 q 82 668 82 650 q 80 753 82 710 q 68 817 78 797 l 151 922 q 167 893 161 922 q 175 813 172 864 q 179 693 178 761 q 181 547 181 625 l 181 460 q 244 508 210 488 q 315 529 279 529 q 366 516 336 529 q 424 480 396 503 q 473 427 453 457 q 494 364 493 397 q 493 307 493 336 q 492 251 492 282 q 492 189 492 219 q 492 142 492 171 q 493 83 493 113 q 494 29 493 53 q 494 0 494 6 l 381 0 q 385 44 383 15 q 389 103 388 72 q 391 163 390 135 q 392 208 392 192 q 386 287 392 250 q 367 353 381 324 q 329 401 353 382 q 269 426 306 421 l 246 426 q 181 414 207 426 l 181 199 q 181 97 181 146 q 182 3 181 47 l 68 0 z "},"i":{"ha":300,"x_min":94,"x_max":211,"o":"m 153 788 q 195 767 185 788 q 206 728 206 747 q 189 686 206 704 q 149 668 172 668 q 109 686 124 668 q 94 728 94 704 q 97 743 94 739 q 117 776 100 764 q 153 788 135 788 m 97 0 q 102 53 100 18 q 106 128 104 88 q 110 207 108 168 q 111 274 111 246 q 110 359 111 317 q 97 421 108 401 l 181 529 q 206 487 200 529 q 211 361 211 444 q 210 265 211 318 q 210 150 210 213 q 210 79 210 115 q 211 3 210 43 l 97 0 z "},"j":{"ha":303,"x_min":-124,"x_max":213,"o":"m -124 -243 q -116 -231 -122 -240 q -101 -208 -110 -221 q -82 -184 -92 -196 q -65 -167 -72 -172 q -40 -194 -57 -181 q -4 -220 -24 -208 q 36 -239 15 -232 q 76 -246 57 -246 q 88 -245 83 -246 q 99 -243 93 -244 q 101 -162 100 -210 q 104 -63 103 -115 q 107 42 106 -11 q 109 142 108 96 q 110 224 110 189 q 111 274 111 258 q 110 359 111 317 q 97 421 108 401 l 181 529 q 197 510 190 529 q 206 456 203 490 q 211 373 210 421 q 213 268 213 325 q 212 188 213 226 q 211 111 211 150 q 210 31 211 72 q 210 -60 210 -11 q 210 -106 210 -83 q 211 -150 211 -128 q 201 -178 211 -160 q 176 -221 192 -197 q 141 -269 161 -244 q 101 -313 121 -293 q 63 -346 82 -333 q 31 -358 44 -358 q 28 -358 28 -358 q 25 -357 28 -357 q -12 -342 13 -356 q -60 -310 -36 -328 q -103 -274 -85 -292 q -124 -243 -122 -256 m 153 788 q 195 767 185 788 q 206 728 206 747 q 189 686 206 704 q 149 668 172 668 q 109 686 124 668 q 94 728 94 704 q 97 743 94 739 q 117 776 100 764 q 153 788 135 788 z "},"k":{"ha":557,"x_min":68,"x_max":565,"o":"m 401 522 q 420 501 408 519 q 444 455 432 482 q 465 398 456 428 q 474 343 474 368 l 440 339 q 428 372 438 358 q 404 386 418 386 q 394 383 400 386 q 356 357 378 378 q 311 313 335 336 l 375 236 q 428 172 403 204 q 476 129 454 139 l 483 129 q 515 144 501 129 q 531 179 528 160 l 565 171 q 551 119 563 147 q 527 67 540 92 q 500 22 514 42 q 478 -7 486 1 q 465 -11 471 -11 q 437 3 453 -11 q 397 49 421 18 q 338 127 374 79 q 250 242 301 175 l 181 158 q 181 78 181 118 q 182 3 181 38 l 68 3 q 72 63 69 14 q 75 179 74 111 q 78 326 76 247 q 80 474 79 404 q 81 597 81 544 q 82 668 82 650 q 80 753 82 710 q 68 817 78 797 l 151 922 q 167 890 161 922 q 176 803 172 858 q 180 674 179 747 q 181 518 181 601 l 181 311 q 256 395 221 357 q 319 462 292 433 q 367 506 347 490 q 397 522 388 522 l 401 522 z "},"l":{"ha":299,"x_min":94,"x_max":208,"o":"m 94 0 q 98 60 96 11 q 101 178 100 110 q 104 326 103 247 q 106 474 106 404 q 108 597 107 544 q 108 668 108 650 q 106 753 108 710 q 94 817 104 797 l 178 922 q 194 890 188 922 q 203 804 200 858 q 207 677 206 750 q 208 522 208 604 q 208 349 208 438 q 207 175 207 260 q 207 86 207 129 q 208 3 207 43 l 94 0 z "},"m":{"ha":861,"x_min":63,"x_max":799,"o":"m 63 0 q 67 53 65 18 q 72 128 69 88 q 75 207 74 168 q 76 274 76 246 q 75 359 76 317 q 63 421 74 401 l 146 529 q 174 439 171 529 q 238 501 204 474 q 303 529 271 529 q 345 519 321 529 q 392 496 369 510 q 435 466 415 482 q 464 439 454 450 q 535 500 496 471 q 619 529 575 529 q 670 516 640 529 q 728 480 700 503 q 777 427 757 457 q 799 364 797 397 q 797 307 797 336 q 796 251 796 282 q 796 189 796 219 q 797 142 796 171 q 797 83 797 113 q 798 29 797 53 q 799 0 799 6 l 685 0 q 690 44 688 15 q 693 103 692 72 q 695 163 694 135 q 696 208 696 192 q 691 287 696 250 q 672 353 686 324 q 635 401 658 382 q 574 426 611 421 l 550 426 q 478 411 508 426 q 487 351 485 390 q 489 269 489 313 l 489 189 q 489 142 489 171 q 489 83 489 113 q 490 29 489 53 q 490 0 490 6 l 375 0 q 380 44 378 15 q 383 103 382 72 q 385 163 385 135 q 386 208 386 192 q 383 288 386 250 q 366 353 379 325 q 326 400 353 382 q 253 421 299 418 l 247 421 q 206 414 224 421 q 175 396 189 407 l 175 169 q 175 90 175 131 q 176 3 175 49 l 63 0 z "},"n":{"ha":554,"x_min":63,"x_max":490,"o":"m 63 0 q 67 53 65 18 q 72 128 69 88 q 75 207 74 168 q 76 274 76 246 q 75 359 76 317 q 63 421 74 401 l 146 529 q 174 439 171 529 q 238 501 204 474 q 303 529 271 529 q 353 516 325 529 q 408 485 382 503 q 453 451 435 468 q 471 426 471 433 q 485 369 482 415 q 489 269 489 322 l 489 189 q 489 142 489 171 q 489 83 489 113 q 490 29 489 53 q 490 0 490 6 l 375 0 q 380 44 378 15 q 383 103 382 72 q 385 163 385 135 q 386 208 386 192 q 383 288 386 250 q 366 353 379 325 q 326 400 353 382 q 253 421 299 418 l 247 421 q 206 414 224 421 q 175 396 189 407 l 175 169 q 175 90 175 131 q 176 3 175 49 l 63 0 z "},"o":{"ha":500,"x_min":35,"x_max":465,"o":"m 344 96 q 355 139 351 115 q 358 186 358 163 q 349 270 358 228 q 322 346 340 313 q 279 401 304 379 q 221 422 254 422 q 156 401 190 422 q 133 303 133 358 q 145 222 133 261 q 178 150 157 182 q 227 99 199 118 q 289 79 256 79 q 344 96 317 79 m 228 -4 q 121 20 160 -4 q 63 84 82 44 q 40 174 44 124 q 35 275 35 224 q 47 316 35 292 q 80 367 60 340 q 126 422 100 394 q 177 470 151 449 q 227 505 203 492 q 268 518 251 518 q 365 500 326 518 q 425 451 403 482 q 456 381 447 421 q 465 299 465 342 q 461 238 465 267 q 434 172 461 213 q 369 92 407 131 q 292 24 332 53 q 228 -4 253 -4 z "},"p":{"ha":515,"x_min":68,"x_max":472,"o":"m 69 -354 q 73 -297 71 -343 q 76 -187 75 -251 q 78 -50 78 -124 q 80 90 79 24 q 81 206 81 156 q 82 274 82 256 q 81 359 82 317 q 68 421 79 401 l 151 529 q 167 499 161 529 q 175 415 172 468 l 181 421 q 215 459 196 440 q 254 492 235 478 q 290 516 274 507 q 313 525 306 525 q 384 501 354 525 q 434 442 414 478 q 463 363 454 406 q 472 282 472 321 q 471 249 472 264 q 465 219 469 233 q 438 163 461 200 q 384 88 414 125 q 323 24 354 51 q 271 -4 292 -4 l 267 -4 q 227 13 250 0 q 181 43 204 26 l 181 -215 q 181 -256 181 -239 q 181 -287 181 -272 q 181 -316 181 -301 q 182 -351 182 -331 l 69 -354 m 217 393 q 188 369 194 382 q 181 344 182 357 l 181 243 q 202 192 189 217 q 233 150 215 168 q 272 121 251 132 q 317 110 293 110 q 374 128 346 110 q 393 213 393 165 q 383 283 393 247 q 356 345 374 318 q 314 390 338 372 q 263 407 290 407 q 217 393 242 407 z "},"q":{"ha":510,"x_min":43,"x_max":528,"o":"m 447 518 q 444 462 446 507 q 440 354 442 417 q 438 219 439 292 q 435 83 436 147 q 433 -32 433 18 q 432 -99 432 -82 l 432 -143 q 434 -206 432 -176 q 443 -247 436 -235 q 456 -250 449 -250 q 480 -243 467 -250 q 503 -225 493 -236 l 528 -250 q 488 -287 513 -269 q 439 -320 464 -306 q 392 -344 414 -335 q 360 -356 369 -354 q 335 -260 339 -356 q 332 3 332 -164 l 332 92 q 308 66 324 82 q 274 35 293 50 q 237 8 256 19 q 203 -4 218 -4 q 131 20 161 -3 q 81 78 101 43 q 52 156 61 114 q 43 238 43 199 q 50 299 43 268 q 78 356 56 318 q 132 430 101 393 q 193 494 163 467 q 244 522 224 522 l 250 522 q 301 497 269 517 q 360 453 332 478 l 389 515 l 447 518 m 300 125 q 325 143 319 133 q 333 164 331 153 q 334 219 333 192 q 335 275 335 247 q 313 326 326 301 q 282 368 300 350 q 243 397 264 386 q 199 408 222 408 q 142 390 169 408 q 124 306 124 353 q 133 235 124 269 q 161 173 143 200 q 202 128 179 146 q 253 111 225 111 q 300 125 272 111 z "},"r":{"ha":472,"x_min":94,"x_max":461,"o":"m 94 0 q 99 53 97 18 q 103 128 101 88 q 107 207 106 168 q 108 274 108 246 q 107 359 108 317 q 94 421 106 401 l 178 529 q 207 433 204 529 q 265 496 236 469 q 308 522 293 522 q 359 503 332 519 q 409 466 386 486 q 447 429 432 446 q 461 408 461 413 q 438 371 453 392 q 405 330 424 350 q 365 292 386 310 q 325 265 344 275 l 304 294 q 324 306 313 299 q 346 321 336 313 q 363 338 356 329 q 369 354 369 346 q 368 363 369 360 q 308 404 335 392 q 261 417 281 417 q 230 410 243 417 q 207 394 217 404 l 207 350 q 206 268 207 313 q 206 172 206 224 l 208 3 l 94 0 z "},"s":{"ha":478,"x_min":40,"x_max":460,"o":"m 47 74 q 40 111 40 82 q 46 163 40 133 q 67 221 51 192 l 100 210 q 94 181 94 194 q 109 139 94 156 q 146 111 124 122 q 194 95 168 100 q 244 90 221 90 q 301 103 276 90 q 333 147 326 115 q 272 202 317 178 q 178 246 226 226 q 92 283 129 265 q 54 318 54 300 l 54 322 q 84 378 60 342 q 140 449 108 414 q 203 509 171 483 q 256 535 235 535 l 260 535 q 308 522 282 531 q 356 503 333 513 q 394 485 379 493 q 410 475 410 476 l 410 460 q 402 388 410 425 q 383 332 394 351 l 349 344 q 353 359 351 351 q 354 374 354 367 q 342 406 354 392 q 314 431 331 421 q 278 445 297 440 q 246 450 260 450 q 198 435 219 450 q 167 385 176 421 q 313 313 247 349 q 367 281 340 297 q 414 250 393 265 q 447 222 435 235 q 460 199 460 208 q 426 145 454 179 q 360 78 397 111 q 287 19 324 44 q 228 -6 250 -6 q 224 -5 225 -6 q 221 -4 224 -4 q 169 10 199 -1 q 112 35 139 22 q 66 59 85 47 q 47 74 47 71 z "},"t":{"ha":414,"x_min":36,"x_max":401,"o":"m 49 528 l 115 528 l 124 664 l 238 664 q 231 617 236 654 q 221 528 226 581 l 401 528 l 389 468 l 215 468 q 208 369 211 421 q 206 269 206 317 q 209 182 206 221 q 222 119 213 143 q 236 103 226 108 q 256 99 246 99 q 288 110 269 99 q 321 135 306 122 q 347 160 336 149 q 358 171 358 171 l 383 146 q 324 81 357 110 q 259 34 290 53 q 203 6 228 15 q 168 -4 178 -4 q 122 35 136 -4 q 104 139 107 75 q 103 177 103 157 q 103 218 103 197 q 105 344 103 281 q 111 468 107 407 l 36 468 l 49 528 z "},"u":{"ha":533,"x_min":68,"x_max":471,"o":"m 465 518 q 460 466 463 500 q 455 393 457 432 q 451 316 453 354 q 450 251 450 278 q 451 192 450 231 q 456 115 453 154 q 462 42 458 75 q 471 0 465 10 l 383 -4 q 360 18 367 -4 q 351 85 354 40 q 283 23 318 50 q 221 -4 247 -4 q 175 9 199 -4 q 133 39 151 22 q 101 72 114 56 q 89 97 89 89 q 78 117 82 101 q 74 153 75 132 q 72 201 72 175 q 71 254 71 228 l 71 332 q 71 378 71 351 q 71 429 71 404 q 70 474 71 454 q 68 500 69 493 l 181 507 q 176 465 178 492 q 174 411 175 439 q 172 357 172 383 q 172 314 172 331 q 171 268 172 290 q 169 225 169 246 q 173 178 169 200 q 188 139 176 156 q 219 113 199 122 q 275 101 240 103 q 313 111 293 101 q 350 133 332 121 q 351 229 350 175 q 351 351 351 283 q 351 422 351 385 q 350 500 351 460 l 465 518 z "},"v":{"ha":493,"x_min":-18,"x_max":468,"o":"m 246 -3 q 229 49 242 14 q 202 125 217 85 q 172 203 188 165 q 147 265 157 242 q 111 344 129 306 q 74 400 93 383 q 60 403 65 403 q 32 391 44 403 q 13 364 19 379 l -18 383 q 10 430 -8 406 q 49 474 29 454 q 88 509 69 494 q 117 526 107 524 q 124 528 118 528 q 151 508 138 528 q 184 447 165 488 q 227 346 203 407 q 288 203 251 285 q 316 272 303 239 q 336 326 329 306 q 352 371 343 344 q 369 424 361 397 q 383 475 378 451 q 389 513 389 499 q 388 522 389 519 l 454 531 q 468 507 468 526 q 458 460 468 490 q 431 383 449 431 q 387 268 413 335 q 331 111 361 201 q 339 93 332 101 l 246 -3 z "},"w":{"ha":740,"x_min":-15,"x_max":717,"o":"m 517 -4 q 501 47 513 13 q 474 122 489 82 q 443 200 458 161 q 417 263 428 239 l 401 294 l 397 285 q 368 208 385 251 q 332 106 351 164 l 339 92 l 246 -4 q 230 47 242 13 q 203 122 218 82 q 174 200 189 161 q 147 263 158 239 l 144 269 q 111 344 129 307 q 78 400 93 382 q 65 401 72 401 q 35 391 47 401 q 15 364 22 381 l -15 383 q 14 431 -6 407 q 54 476 33 456 q 93 510 75 497 q 119 525 111 524 q 126 526 122 526 q 153 506 139 526 q 185 444 167 486 q 230 340 204 403 q 293 193 256 278 q 322 264 308 231 q 343 321 335 297 q 352 347 347 333 q 361 374 357 360 q 344 393 351 388 l 388 525 q 394 526 389 526 q 451 452 419 526 q 547 226 482 378 q 566 275 557 251 q 582 319 575 299 l 590 343 q 605 387 597 363 q 619 435 613 411 q 631 479 626 458 q 636 513 636 500 l 636 521 l 701 529 q 717 504 717 525 q 708 459 717 488 q 681 386 699 431 q 640 281 664 342 q 586 136 615 219 l 607 92 l 517 -4 z "},"x":{"ha":461,"x_min":13,"x_max":449,"o":"m 310 4 q 294 41 306 18 q 269 90 283 64 q 240 144 256 117 q 213 196 225 172 l 197 175 q 168 131 185 157 q 135 80 151 106 q 108 32 119 54 q 96 0 97 10 l 24 0 q 13 19 13 7 q 53 92 13 39 q 176 260 94 144 q 145 306 163 281 q 111 353 128 331 q 80 392 94 375 q 57 414 65 408 l 99 533 q 104 535 100 535 q 165 481 126 535 q 254 336 203 428 l 261 344 q 290 388 274 363 q 323 440 307 414 q 349 488 339 465 q 360 519 360 510 l 433 519 q 449 497 449 508 q 440 474 449 489 q 413 433 432 458 q 365 367 394 407 q 293 267 335 326 q 357 142 324 208 q 426 4 390 76 l 310 4 z "},"y":{"ha":492,"x_min":-6,"x_max":508,"o":"m 74 -353 q 138 -209 93 -310 q 249 39 183 -108 q 229 96 240 64 q 206 161 218 128 q 181 224 193 194 q 160 274 168 254 q 124 352 142 314 q 89 406 106 390 q 75 408 85 408 q 47 398 60 408 q 25 371 33 388 l -6 389 q 23 435 3 410 q 65 483 43 461 q 108 521 88 506 q 140 536 129 536 q 167 516 153 536 q 199 453 181 496 q 245 345 218 411 q 313 188 272 279 q 357 298 336 244 q 393 396 378 351 q 417 474 408 440 q 425 526 425 507 l 504 540 q 508 528 508 540 q 491 452 508 506 q 444 326 474 399 q 378 165 415 253 q 303 -12 342 78 q 229 -191 265 -103 q 165 -353 193 -279 l 74 -353 z "},"z":{"ha":506,"x_min":32,"x_max":492,"o":"m 283 444 q 254 451 268 450 q 229 453 240 453 q 171 437 193 453 q 135 399 149 421 q 116 351 121 376 q 111 307 111 325 l 111 300 l 92 299 q 54 359 68 331 q 40 407 40 388 q 41 410 40 408 q 42 414 42 411 q 62 451 46 431 q 100 490 78 472 q 147 519 122 507 q 193 532 171 532 q 245 522 213 532 q 303 503 278 511 q 404 485 363 485 q 417 485 411 485 q 431 488 424 486 q 448 490 440 489 q 463 494 456 492 l 467 414 l 426 421 q 349 286 403 372 q 219 65 294 200 q 293 72 250 67 q 378 81 336 76 q 451 88 419 85 q 492 92 483 92 l 451 0 q 406 1 428 1 q 363 1 385 1 q 252 1 304 1 q 157 0 200 0 q 66 3 100 0 q 32 15 32 6 l 94 74 q 128 117 107 88 q 173 183 150 147 q 217 252 196 218 q 250 307 238 286 q 290 380 269 343 q 313 440 310 417 l 283 444 z "},"A":{"ha":721,"x_min":43,"x_max":747,"o":"m 611 0 q 588 76 607 17 q 538 218 568 135 l 214 218 q 213 216 214 217 q 213 214 213 215 l 138 -7 l 43 0 q 80 96 58 38 q 127 223 101 154 q 180 368 153 292 q 233 518 207 444 q 283 658 260 592 q 324 775 306 725 q 315 783 319 781 q 307 786 310 785 l 363 910 q 365 910 364 910 q 367 911 365 911 q 410 868 385 911 q 467 754 436 825 q 531 593 497 683 q 600 407 565 503 l 614 369 q 649 274 631 324 q 683 177 667 225 q 716 85 700 129 q 747 4 732 40 l 611 0 m 238 288 l 514 288 l 394 635 q 383 663 390 647 q 369 693 376 678 q 307 496 342 600 q 238 288 272 392 z "},"B":{"ha":681,"x_min":44,"x_max":668,"o":"m 44 901 q 85 900 64 900 q 129 900 107 900 q 282 901 206 900 q 411 903 358 903 l 421 903 q 518 876 479 897 q 580 824 557 854 q 613 757 603 793 q 622 686 622 721 q 617 629 622 654 q 600 583 611 604 q 570 540 589 561 q 525 496 551 519 q 593 463 565 483 q 638 415 621 442 q 661 358 654 388 q 668 300 668 329 q 642 191 668 244 q 575 95 617 138 q 481 27 533 53 q 376 1 429 1 l 257 1 q 179 1 225 1 q 85 0 133 0 q 88 76 86 24 q 92 195 90 129 q 94 333 93 261 q 97 469 96 406 q 99 578 99 532 q 100 642 100 625 q 98 724 100 683 q 85 782 96 764 l 107 811 l 83 808 l 44 901 m 219 79 q 301 72 263 74 q 367 69 339 69 q 504 110 463 69 q 546 239 546 151 q 529 349 546 306 q 483 417 513 392 q 413 451 454 442 q 324 461 372 461 q 274 459 300 461 q 219 454 247 457 l 219 79 m 501 629 q 486 728 500 689 q 447 790 472 768 q 387 822 422 813 q 306 831 351 831 q 258 829 282 831 q 207 825 235 828 q 214 776 211 811 q 217 698 217 740 q 219 613 218 656 q 219 542 219 571 l 219 503 q 313 503 274 503 q 381 504 351 504 q 433 505 410 504 q 476 506 456 506 q 489 539 483 521 q 497 577 493 554 q 501 629 501 600 z "},"C":{"ha":694,"x_min":82,"x_max":681,"o":"m 403 914 q 488 870 443 901 q 571 803 533 839 q 633 738 608 768 q 658 699 658 707 q 649 683 656 694 q 633 659 643 672 q 610 632 624 646 q 581 606 597 618 q 538 658 565 631 q 476 710 510 686 q 407 749 443 733 q 338 765 371 765 q 265 734 292 765 q 226 658 239 703 q 209 566 213 614 q 206 483 206 518 q 222 306 206 378 q 265 192 238 235 q 330 130 293 149 q 407 111 367 111 q 538 124 474 111 q 647 174 601 138 l 681 115 q 596 69 649 90 q 488 31 543 47 q 386 6 433 15 q 321 -4 339 -3 q 212 37 257 0 q 138 129 167 74 q 95 252 108 185 q 82 385 82 319 q 87 471 82 429 q 100 544 92 513 q 124 601 106 565 q 167 678 142 638 q 224 761 193 719 q 285 837 254 803 q 344 892 315 871 q 397 914 374 914 l 403 914 z "},"D":{"ha":782,"x_min":44,"x_max":760,"o":"m 44 901 q 185 901 126 901 q 285 902 244 901 q 349 903 325 903 q 389 903 374 903 l 440 903 q 588 877 528 903 q 686 804 649 851 q 741 690 724 757 q 760 538 758 622 l 760 532 q 735 348 758 435 q 672 192 711 261 q 581 74 633 122 q 472 7 529 26 q 383 1 454 1 l 257 1 q 179 1 225 1 q 85 0 133 0 q 88 101 86 42 q 92 226 90 160 q 96 360 94 293 q 98 485 97 428 q 99 585 99 543 q 100 642 100 626 q 98 724 100 683 q 85 782 96 764 l 107 811 q 94 810 101 811 q 83 808 86 808 l 44 901 m 221 522 l 221 356 q 220 283 221 319 q 219 210 219 246 q 219 143 219 172 q 221 78 219 114 q 306 71 272 74 q 358 67 339 68 q 387 65 378 65 q 399 65 396 65 q 515 99 471 65 q 585 186 560 133 q 618 303 610 239 q 626 431 626 368 q 606 628 626 550 q 547 751 586 706 q 453 814 508 796 q 325 832 397 832 q 269 831 303 832 q 210 826 235 829 q 219 694 217 775 q 221 522 221 613 z "},"E":{"ha":638,"x_min":44,"x_max":636,"o":"m 44 901 q 108 900 75 900 q 171 900 140 900 l 394 900 q 524 894 482 900 q 565 861 565 888 l 486 806 q 423 822 461 819 q 353 824 385 824 l 339 824 q 280 822 315 824 q 208 819 244 821 q 217 689 215 767 q 219 519 219 611 l 219 496 q 265 492 242 493 q 317 490 289 490 l 331 490 q 401 492 363 490 q 463 508 439 494 l 549 453 q 522 422 549 429 q 421 415 494 415 l 219 415 l 219 347 q 219 273 219 310 q 218 199 218 236 l 218 85 q 320 80 265 82 q 413 78 375 78 l 426 78 q 497 80 458 78 q 560 96 535 82 l 636 39 q 595 8 636 14 q 469 1 554 1 l 390 1 q 345 2 369 1 q 294 3 321 3 q 210 2 257 3 q 117 0 163 1 l 83 0 q 87 60 85 13 q 91 172 89 107 q 94 313 93 238 q 97 455 96 388 q 99 573 99 522 q 100 642 100 624 q 98 724 100 685 q 85 782 96 763 l 106 811 l 83 808 l 44 901 z "},"F":{"ha":494,"x_min":43,"x_max":565,"o":"m 43 901 q 108 900 75 900 q 171 900 142 900 l 394 900 q 524 894 482 900 q 565 861 565 888 l 486 806 q 423 822 461 819 q 353 824 385 824 l 339 824 q 280 822 315 824 q 208 819 244 821 q 217 689 215 767 q 219 519 219 611 l 219 496 q 266 492 242 493 q 317 490 290 490 l 331 490 q 401 492 363 490 q 463 508 439 494 l 549 453 q 522 422 549 429 q 421 415 494 415 l 219 415 l 219 347 q 219 273 219 310 q 218 199 218 236 q 219 97 218 147 q 221 3 219 46 l 83 3 q 87 61 85 14 q 91 174 89 108 q 94 313 93 239 q 97 455 96 388 q 99 573 99 522 q 100 642 100 624 q 98 724 100 685 q 85 782 96 763 l 107 811 q 94 810 100 810 q 83 808 88 810 l 43 901 z "},"G":{"ha":732,"x_min":82,"x_max":697,"o":"m 514 0 l 514 60 q 457 35 486 47 q 401 15 428 24 q 354 1 375 7 q 321 -4 333 -4 q 212 37 257 0 q 138 128 167 74 q 95 251 108 183 q 82 383 82 318 q 87 469 82 428 q 100 542 92 510 q 124 599 106 563 q 167 676 142 635 q 224 759 193 717 q 285 835 254 801 q 346 891 317 869 q 399 913 375 913 l 403 913 q 487 869 442 901 q 570 800 532 836 q 633 734 608 764 q 658 697 658 704 q 638 663 650 679 q 613 631 626 647 q 581 601 599 615 q 538 655 565 626 q 476 707 510 683 q 408 747 443 731 q 339 763 372 763 q 265 729 292 763 q 226 649 239 696 q 209 555 213 603 q 206 478 206 507 q 223 295 206 367 q 269 183 240 224 q 333 126 297 142 q 406 111 369 111 q 460 117 429 111 q 514 131 490 122 l 514 257 l 435 257 l 449 328 l 697 328 l 683 257 l 631 257 q 631 231 631 246 q 632 194 632 215 q 632 113 632 161 q 635 -3 632 64 l 514 0 z "},"H":{"ha":808,"x_min":85,"x_max":722,"o":"m 588 0 q 590 48 589 10 q 593 140 592 86 q 596 258 594 194 q 599 385 597 322 l 221 385 l 221 347 q 220 273 221 310 q 219 199 219 236 q 220 97 219 147 q 222 3 221 46 l 85 3 q 88 61 86 14 q 92 174 90 108 q 94 313 93 239 q 97 455 96 388 q 99 573 99 522 q 100 642 100 624 q 99 726 100 685 q 86 788 97 768 l 172 901 q 198 872 189 901 q 213 790 207 842 q 219 668 218 738 q 221 519 221 599 l 221 453 l 600 453 q 602 572 601 521 q 603 642 603 624 q 601 726 603 685 q 586 788 599 768 l 672 901 q 699 871 689 901 q 714 788 708 840 q 721 664 719 735 q 722 514 722 593 l 722 344 q 722 271 722 307 q 721 199 721 235 q 722 97 721 147 q 722 3 722 46 l 588 0 z "},"I":{"ha":310,"x_min":85,"x_max":219,"o":"m 85 0 q 88 60 86 13 q 92 172 90 107 q 94 313 93 238 q 97 455 96 388 q 98 573 97 522 q 99 642 99 624 q 97 726 99 685 q 85 788 96 768 l 171 901 q 196 872 186 901 q 210 790 206 842 q 217 668 215 738 q 218 519 218 599 l 218 347 l 218 199 q 218 97 218 147 q 219 3 218 46 l 85 0 z "},"J":{"ha":367,"x_min":-36,"x_max":308,"o":"m -36 122 q -30 135 -36 125 q -14 157 -24 144 q 7 182 -4 169 q 28 201 18 194 q 55 172 38 186 q 92 144 72 157 q 132 124 111 132 q 169 117 153 117 q 174 117 172 117 q 179 118 176 118 q 182 202 181 151 q 185 309 183 253 q 187 424 186 365 q 188 533 188 482 q 190 621 189 583 q 190 672 190 658 q 188 742 190 714 q 174 789 185 769 l 263 906 q 287 875 278 901 q 301 806 296 849 q 307 707 306 764 q 308 585 308 650 l 308 204 q 287 155 308 189 q 235 85 265 121 q 173 22 206 49 q 118 -6 140 -6 q 111 -4 114 -6 q 74 10 96 -4 q 28 45 51 25 q -12 87 6 65 q -36 122 -31 108 z "},"K":{"ha":776,"x_min":85,"x_max":761,"o":"m 85 0 q 88 60 86 13 q 92 172 90 107 q 94 313 93 238 q 97 455 96 388 q 99 573 99 522 q 100 642 100 624 q 100 686 100 663 q 99 732 100 710 q 94 772 97 754 q 86 799 92 789 l 172 913 q 198 881 189 913 q 213 795 207 849 q 219 670 218 742 q 221 519 221 599 l 221 465 q 324 579 269 519 q 428 689 378 639 q 519 772 478 739 q 585 806 561 806 q 597 803 593 806 l 607 690 q 579 669 600 688 q 531 626 558 651 q 471 569 503 600 q 410 508 439 538 q 504 385 458 444 q 590 275 550 326 q 713 119 664 185 q 761 21 761 54 q 751 -1 761 7 l 642 -1 q 629 32 640 11 q 602 76 618 53 q 569 121 586 99 q 540 160 553 143 q 502 210 528 176 q 446 283 476 244 q 385 360 415 322 q 332 426 354 399 l 221 294 q 219 247 219 271 q 219 199 219 222 q 220 97 219 147 q 222 3 221 46 l 85 0 z "},"L":{"ha":629,"x_min":85,"x_max":636,"o":"m 85 0 q 88 60 86 13 q 92 172 90 107 q 94 313 93 238 q 97 455 96 388 q 99 573 99 522 q 100 642 100 624 q 99 726 100 685 q 86 788 97 768 l 172 901 q 198 872 189 901 q 213 790 207 842 q 219 668 218 738 q 221 519 221 599 l 221 347 q 220 273 221 310 q 219 199 219 236 l 219 85 q 321 80 267 82 q 413 78 375 78 l 426 78 q 497 80 458 78 q 560 96 535 82 l 636 39 q 595 8 636 14 q 469 1 554 1 l 390 1 q 345 2 369 1 q 294 3 321 3 q 210 2 257 3 q 117 0 163 1 l 85 0 z "},"M":{"ha":864,"x_min":108,"x_max":789,"o":"m 656 0 q 658 47 657 10 q 660 135 660 83 q 663 250 661 188 q 665 374 664 313 q 667 492 667 436 q 668 586 668 547 l 508 175 q 500 151 507 171 q 480 97 493 133 q 443 -7 467 61 q 426 35 440 3 q 392 114 413 67 q 348 218 372 161 q 297 335 324 275 q 245 455 271 396 q 199 564 219 514 l 199 168 q 199 82 199 125 q 200 3 199 39 l 110 3 q 113 61 111 14 q 117 174 115 108 q 119 313 118 239 q 122 455 121 388 q 123 573 122 522 q 124 642 124 624 q 122 726 124 685 q 108 788 119 768 q 124 831 117 813 q 136 863 131 849 q 147 892 142 878 q 160 925 153 907 q 161 925 160 926 q 164 921 163 924 q 199 858 178 900 q 244 759 219 815 q 298 638 269 703 q 354 509 326 574 q 409 384 382 444 q 458 278 436 324 q 506 395 481 333 q 554 513 532 457 q 593 610 576 568 q 617 669 610 653 q 633 708 624 682 q 654 763 643 735 l 658 775 l 654 788 l 739 901 q 765 871 756 901 q 779 787 774 840 q 786 663 785 733 q 788 513 788 592 l 788 168 q 788 82 788 125 q 789 3 788 39 l 656 0 z "},"N":{"ha":775,"x_min":108,"x_max":697,"o":"m 601 0 l 597 1 q 566 60 590 18 q 507 158 542 101 q 429 281 472 214 q 343 414 386 347 q 264 534 301 476 q 199 636 226 592 l 199 492 l 199 168 q 199 82 199 125 q 200 3 199 39 l 110 3 q 113 61 111 14 q 117 174 115 108 q 119 313 118 239 q 122 455 121 388 q 123 573 122 522 q 124 642 124 624 q 122 726 124 685 q 108 788 119 768 l 160 924 l 163 921 q 251 775 197 857 q 360 611 304 693 q 489 417 422 518 q 610 228 556 317 q 613 357 611 290 q 615 482 614 424 q 616 583 615 540 q 617 642 617 626 q 615 726 617 685 q 603 788 614 768 l 653 900 q 675 883 667 900 q 688 834 683 865 q 695 760 693 803 q 697 667 697 718 q 697 638 697 653 q 694 606 696 624 l 694 422 q 693 288 694 360 q 692 153 692 215 q 692 76 692 115 q 693 3 693 36 l 601 0 z "},"O":{"ha":807,"x_min":53,"x_max":738,"o":"m 72 544 q 155 717 101 647 q 269 831 208 788 q 392 894 331 875 q 499 913 454 913 q 611 876 565 913 q 685 783 657 840 q 725 658 713 726 q 738 522 738 589 q 718 363 738 432 q 638 194 690 264 q 524 81 585 125 q 401 17 463 38 q 294 -4 339 -4 q 182 31 228 -4 q 107 123 136 67 q 65 248 78 179 q 53 383 53 317 q 72 544 53 478 m 339 800 q 288 789 317 799 q 234 747 260 779 q 191 651 208 714 q 174 483 174 589 l 174 458 q 197 304 174 371 q 255 193 219 238 q 334 126 290 149 q 418 104 378 104 q 503 117 467 104 q 563 167 539 129 q 601 276 588 206 q 617 465 614 347 l 617 479 q 588 649 615 585 q 522 747 561 713 q 440 791 483 781 q 364 801 397 801 q 339 800 346 801 z "},"P":{"ha":508,"x_min":44,"x_max":668,"o":"m 44 901 l 465 901 q 563 876 524 897 q 625 825 601 856 q 658 759 649 794 q 668 689 668 724 q 638 571 668 625 q 566 477 608 517 q 476 415 524 438 q 392 392 428 392 l 219 392 l 219 356 q 219 283 219 319 q 218 210 218 246 q 219 103 218 158 q 221 3 219 47 l 85 3 q 88 54 86 13 q 92 154 90 96 q 95 281 93 213 q 99 414 97 350 q 99 485 99 449 q 99 553 99 521 q 100 609 100 585 q 100 642 100 633 q 98 724 100 683 q 85 782 96 764 l 107 811 l 83 808 l 44 901 m 219 522 l 219 458 q 344 450 292 450 q 443 461 404 450 q 505 494 482 472 q 537 549 528 515 q 547 629 546 583 l 547 638 q 497 784 547 736 q 354 832 446 832 q 306 831 331 832 q 262 828 282 829 q 226 826 242 828 q 207 825 211 825 q 217 694 215 772 q 219 522 219 617 z "},"Q":{"ha":925,"x_min":206,"x_max":1001,"o":"m 226 544 q 310 717 257 647 q 426 831 364 788 q 549 894 488 875 q 654 913 610 913 q 767 876 721 913 q 840 783 813 840 q 881 657 868 726 q 893 521 893 588 q 889 435 893 476 q 876 363 885 394 q 822 226 857 285 q 744 126 788 168 q 654 56 701 83 q 561 15 607 29 q 581 -81 564 -42 q 623 -145 597 -121 q 682 -181 649 -169 q 753 -192 715 -192 q 870 -171 808 -192 q 988 -117 932 -150 l 1001 -175 q 928 -212 972 -197 q 834 -235 883 -226 q 736 -249 785 -244 q 653 -253 688 -253 q 615 -251 631 -253 q 594 -249 600 -250 q 463 -156 507 -222 q 414 0 419 -89 q 317 49 357 11 q 253 142 278 88 q 217 259 228 196 q 206 385 206 322 q 211 471 206 429 q 226 544 217 513 m 494 800 q 442 789 471 799 q 389 747 414 779 q 347 651 364 714 q 329 483 329 589 l 329 458 q 352 304 329 371 q 410 193 375 238 q 489 126 446 149 q 572 104 532 104 q 656 117 619 104 q 716 167 692 129 q 754 276 740 206 q 771 465 768 347 l 771 479 q 742 649 769 585 q 677 747 715 713 q 596 791 639 781 q 519 801 553 801 q 507 801 513 801 q 494 800 501 801 z "},"R":{"ha":747,"x_min":44,"x_max":763,"o":"m 44 901 l 465 901 q 563 876 524 897 q 625 825 601 856 q 658 759 649 794 q 668 689 668 724 q 651 600 668 642 q 608 523 635 558 q 548 460 582 488 q 481 417 514 433 q 547 331 517 368 q 611 254 578 294 q 720 113 678 171 q 763 22 763 54 q 751 -1 763 7 l 636 -1 q 626 27 635 8 q 605 67 617 46 q 579 108 593 88 q 554 144 565 129 l 519 192 q 483 237 504 210 q 440 292 463 264 q 394 347 417 321 q 357 392 372 374 l 219 392 l 219 356 q 219 283 219 319 q 218 210 218 246 q 219 103 218 158 q 221 3 219 47 l 85 3 q 88 54 86 13 q 92 154 90 96 q 95 281 93 213 q 99 414 97 350 q 99 485 99 449 q 99 553 99 521 q 100 609 100 585 q 100 642 100 633 q 98 724 100 683 q 85 782 96 764 l 107 811 l 83 808 l 44 901 m 219 522 l 219 458 q 344 450 292 450 q 443 461 404 450 q 505 494 482 472 q 537 549 528 515 q 547 629 546 583 l 547 638 q 497 784 547 736 q 354 832 446 832 q 306 831 331 832 q 262 828 282 829 q 226 826 242 828 q 207 825 211 825 q 217 694 215 772 q 219 522 219 617 z "},"S":{"ha":846,"x_min":118,"x_max":800,"o":"m 175 350 l 240 329 q 232 269 232 296 q 255 188 232 218 q 310 144 278 158 q 380 125 343 129 q 446 121 417 121 q 539 142 503 122 q 595 184 575 161 q 622 228 615 207 q 629 258 629 250 l 629 263 q 571 328 611 297 q 479 387 531 360 q 373 439 428 414 q 272 487 318 464 q 197 531 226 510 q 168 572 168 551 l 168 579 q 192 635 174 601 q 237 706 211 668 q 294 780 263 743 q 356 847 325 817 q 417 895 388 876 q 471 914 447 914 l 478 914 q 554 895 513 910 q 632 864 596 881 q 693 833 668 847 q 718 815 718 819 l 718 760 q 708 673 718 722 q 675 575 699 624 l 621 594 q 628 619 626 607 q 629 642 629 631 q 610 699 629 671 q 565 750 592 728 q 510 786 539 772 q 460 801 481 800 l 453 801 q 408 789 432 801 q 363 756 385 776 q 325 708 342 735 q 301 653 308 682 q 550 518 440 583 q 642 461 597 490 q 722 405 686 432 q 778 354 757 378 q 800 314 800 331 l 800 308 q 773 256 794 288 q 719 190 751 225 q 648 119 688 154 q 569 55 608 83 q 492 9 529 26 q 426 -8 456 -8 q 414 -7 418 -8 q 326 13 376 -3 q 232 48 276 29 q 156 83 188 67 q 119 104 124 100 q 119 117 119 111 q 118 131 118 124 q 133 248 118 194 q 175 350 147 301 z "},"T":{"ha":611,"x_min":-44,"x_max":672,"o":"m 501 900 q 631 894 589 900 q 672 861 672 888 l 597 794 q 560 801 582 799 q 515 804 539 803 q 466 806 490 806 q 421 807 442 807 l 381 807 q 383 673 383 751 q 383 497 383 594 l 383 317 l 383 156 l 383 3 l 250 3 q 254 126 251 49 q 260 293 257 203 q 264 478 263 383 q 265 653 265 574 q 265 742 265 706 q 263 807 264 779 l 181 807 q 103 805 142 807 q 35 794 65 803 l -44 861 q -2 894 -44 888 q 128 900 40 900 l 501 900 z "},":":{"ha":250,"x_min":44,"x_max":197,"o":"m 125 161 q 160 153 146 161 q 182 133 174 144 q 194 106 190 121 q 197 79 197 92 q 175 22 197 47 q 121 -3 153 -3 q 65 22 85 -3 q 44 79 44 47 q 47 101 44 94 q 77 145 54 129 q 125 161 100 161 m 125 411 q 160 403 146 411 q 182 383 174 396 q 194 356 190 371 q 197 326 197 340 q 175 269 197 294 q 121 244 153 244 q 65 271 85 244 q 44 328 44 297 q 44 338 44 333 q 47 350 44 343 q 77 394 54 378 q 125 411 100 411 z "},";":{"ha":282,"x_min":44,"x_max":213,"o":"m 125 -174 q 96 -160 118 -171 q 58 -136 74 -149 q 99 -84 78 -124 q 136 0 121 -44 q 121 -3 125 -3 q 65 22 85 -3 q 44 79 44 47 q 47 101 44 94 q 73 143 53 128 q 117 161 93 158 l 125 161 q 169 148 153 161 q 192 115 185 135 q 206 92 200 104 q 213 63 213 79 q 199 -5 213 36 q 170 -85 186 -46 q 140 -150 154 -124 q 125 -174 126 -176 m 125 411 q 160 403 146 411 q 182 383 174 396 q 194 356 190 371 q 197 326 197 340 q 175 269 197 294 q 121 244 153 244 q 65 271 85 244 q 44 328 44 297 q 44 338 44 333 q 47 350 44 343 q 77 394 54 378 q 125 411 100 411 z "},",":{"ha":282,"x_min":44,"x_max":213,"o":"m 125 -174 q 96 -160 118 -171 q 58 -136 74 -149 q 99 -84 78 -124 q 136 0 121 -44 q 121 -3 125 -3 q 65 22 85 -3 q 44 79 44 47 q 47 101 44 94 q 73 143 53 128 q 117 161 93 158 l 125 161 q 169 148 153 161 q 192 115 185 135 q 206 92 200 104 q 213 63 213 79 q 199 -5 213 36 q 170 -85 186 -46 q 140 -150 154 -124 q 125 -174 126 -176 z "},".":{"ha":229,"x_min":44,"x_max":197,"o":"m 125 161 q 160 153 146 161 q 182 133 174 144 q 194 106 190 121 q 197 79 197 92 q 175 22 197 47 q 121 -3 153 -3 q 65 22 85 -3 q 44 79 44 47 q 47 101 44 94 q 77 145 54 129 q 125 161 100 161 z "},"¨":{"ha":499,"x_min":94,"x_max":397,"o":"m 153 765 q 178 759 168 765 q 195 743 189 753 q 203 723 201 733 q 206 703 206 713 q 189 663 206 681 q 149 644 172 644 q 109 663 124 644 q 94 706 94 682 q 94 713 94 708 q 97 721 94 718 q 117 753 100 740 q 153 765 135 765 m 344 765 q 370 759 360 765 q 387 743 381 753 q 395 723 393 733 q 397 703 397 713 q 381 663 397 681 q 339 644 364 644 q 301 663 315 644 q 288 706 288 682 q 288 713 288 708 q 289 721 288 718 q 310 753 293 740 q 344 765 326 765 z "},"¯":{"ha":518,"x_min":99,"x_max":389,"o":"m 388 642 q 359 642 378 642 q 319 643 340 643 q 276 644 297 643 q 239 646 254 644 q 190 644 215 646 q 154 636 165 643 l 99 703 q 120 717 99 714 q 186 721 142 721 q 272 719 222 721 q 389 718 322 718 l 388 642 z "},"´":{"ha":456,"x_min":160,"x_max":342,"o":"m 342 692 q 267 631 297 656 q 218 591 238 607 q 188 568 199 575 q 171 561 176 561 q 160 568 164 561 l 164 657 q 195 672 176 660 q 233 700 214 685 q 269 730 257 719 q 296 756 282 740 l 342 692 z "},"¸":{"ha":186,"x_min":3,"x_max":263,"o":"m 79 -78 q 90 -76 79 -76 q 122 -44 103 -64 q 160 -4 142 -24 q 165 1 163 -1 q 168 6 167 4 l 169 7 q 168 10 168 10 q 169 14 168 13 q 171 18 171 15 l 254 43 q 263 31 263 35 q 247 8 263 24 l 231 -8 q 199 -42 219 -21 q 156 -87 179 -62 q 167 -109 161 -96 q 178 -137 174 -122 q 185 -167 182 -153 q 189 -190 189 -182 q 178 -218 186 -203 q 157 -246 169 -233 q 130 -267 144 -258 q 99 -275 115 -275 q 88 -274 93 -275 q 76 -271 83 -274 q 61 -263 72 -269 q 38 -248 50 -257 q 16 -230 26 -239 q 3 -212 6 -221 l 42 -181 q 68 -226 57 -226 q 88 -215 78 -226 q 106 -187 97 -203 q 119 -156 114 -171 q 125 -135 125 -142 q 120 -118 125 -124 q 108 -112 115 -112 q 92 -118 106 -112 q 83 -98 86 -111 q 79 -78 79 -85 z "},"ˆ":{"ha":547,"x_min":160,"x_max":435,"o":"m 296 756 q 324 730 311 740 q 361 700 336 719 q 399 672 381 685 q 431 657 418 660 l 435 568 q 424 561 431 561 q 386 583 413 561 q 296 654 360 604 q 207 583 233 604 q 169 561 181 561 q 160 568 164 561 l 164 657 q 195 672 176 660 q 233 700 214 685 q 269 730 257 719 q 296 756 282 740 z "},"ˇ":{"ha":599,"x_min":160,"x_max":435,"o":"m 294 550 q 269 574 281 563 q 233 603 257 585 q 195 631 214 618 q 164 647 176 643 l 160 733 q 169 740 164 740 q 207 718 181 740 q 294 649 233 696 q 385 719 358 697 q 422 740 411 740 q 435 733 431 740 l 431 647 q 399 630 418 643 q 361 601 381 617 q 324 573 336 583 q 299 547 313 563 l 294 550 z "},"˘":{"ha":451,"x_min":81,"x_max":358,"o":"m 108 786 q 127 774 111 783 q 149 756 143 765 q 125 724 125 742 q 135 703 125 713 q 167 689 144 694 q 188 686 178 686 q 208 686 199 686 q 294 705 267 686 q 321 749 321 724 q 296 794 321 774 l 319 801 q 337 775 329 793 q 349 738 344 757 q 356 702 354 718 q 358 682 358 686 q 346 645 358 661 q 315 619 333 629 q 275 605 297 610 q 232 600 253 600 q 199 604 213 600 q 169 619 189 607 q 130 647 150 632 q 95 679 110 663 q 81 707 81 696 q 86 734 82 719 q 95 760 90 749 q 103 780 100 772 q 108 786 107 788 z "},"˙":{"ha":310,"x_min":94,"x_max":206,"o":"m 153 765 q 178 759 168 765 q 195 743 189 753 q 203 723 201 733 q 206 703 206 713 q 189 663 206 681 q 149 644 172 644 q 109 663 124 644 q 94 706 94 682 q 94 713 94 708 q 97 721 94 718 q 117 753 100 740 q 153 765 135 765 z "},"˚":{"ha":365,"x_min":94,"x_max":290,"o":"m 236 649 q 240 663 239 656 q 242 681 242 671 q 238 710 242 694 q 225 738 233 725 q 205 758 217 750 q 178 765 193 765 q 149 758 165 765 q 138 724 138 746 q 158 669 138 694 q 211 643 179 643 q 223 644 217 643 q 236 649 229 646 m 182 615 q 133 624 150 615 q 107 647 115 633 q 97 677 99 660 q 94 711 94 694 q 106 735 94 721 q 135 765 118 750 q 171 790 153 779 q 201 800 189 800 q 247 793 229 800 q 274 774 264 786 q 287 748 283 763 q 290 718 290 733 q 290 709 290 714 q 289 700 290 704 q 276 677 289 692 q 247 649 264 663 q 211 626 229 636 q 182 615 193 615 z "},"˛":{"ha":504,"x_min":-107,"x_max":97,"o":"m 40 0 q -1 -28 17 -3 q -29 -89 -18 -53 q -33 -139 -33 -118 q -23 -190 -33 -175 q 3 -206 -12 -206 q 36 -193 18 -206 q 72 -158 54 -181 l 97 -181 q 69 -209 86 -194 q 35 -237 53 -224 q 2 -259 17 -250 q -17 -269 -12 -268 q -32 -274 -25 -272 q -46 -275 -39 -275 q -92 -248 -78 -275 q -107 -192 -107 -221 q -103 -160 -107 -175 q -87 -125 -99 -150 q -62 -74 -76 -100 q -33 -26 -47 -47 q -6 -3 -18 -6 l 40 0 z "},"˜":{"ha":581,"x_min":99,"x_max":389,"o":"m 328 644 q 304 640 315 640 q 267 649 286 640 q 231 666 249 657 q 195 683 213 675 q 161 692 178 692 q 133 685 146 692 q 108 660 119 678 l 99 668 q 110 694 101 678 q 129 724 119 710 q 148 750 139 739 q 160 763 157 761 q 185 769 169 769 q 220 762 201 769 q 257 744 239 754 q 294 727 275 735 q 329 719 313 719 q 379 750 358 719 l 389 743 q 377 716 386 732 q 358 685 368 700 q 340 658 349 669 q 328 644 331 646 z "},"˝":{"ha":911,"x_min":160,"x_max":561,"o":"m 342 692 q 267 631 297 656 q 218 591 238 607 q 188 568 199 575 q 171 561 176 561 q 160 568 164 561 l 164 657 q 195 672 176 660 q 233 700 214 685 q 269 730 257 719 q 296 756 282 740 l 342 692 m 561 692 q 485 631 515 656 q 436 591 456 607 q 406 568 417 575 q 389 561 394 561 q 376 568 383 561 l 382 657 q 413 672 393 660 q 451 700 433 685 q 487 730 475 719 q 514 756 499 740 l 561 692 z "},"U":{"ha":672,"x_min":92,"x_max":643,"o":"m 629 901 q 625 813 626 871 q 624 686 624 754 q 624 552 624 618 q 624 440 624 486 q 624 376 624 415 q 625 292 624 338 q 627 199 626 246 q 631 110 628 151 q 636 39 633 69 q 643 -3 639 8 l 540 -3 q 513 41 521 -3 q 501 164 504 85 q 458 103 481 133 q 415 50 436 74 q 375 12 394 26 q 339 -3 356 -3 q 272 19 310 -3 q 199 72 233 42 q 141 131 165 101 q 117 174 117 160 q 105 208 110 182 q 98 271 100 233 q 95 353 96 308 q 94 444 94 399 l 94 581 q 94 660 94 614 q 94 749 94 706 q 94 826 94 792 q 92 869 93 860 l 232 882 q 227 810 229 854 q 224 717 225 765 q 222 624 222 669 q 221 549 221 578 l 221 456 q 226 338 221 394 q 249 238 231 282 q 303 167 267 194 q 406 135 340 139 q 453 164 429 135 q 500 225 478 193 l 500 279 q 501 411 500 333 q 501 585 501 489 q 501 721 501 650 q 499 869 501 792 l 629 901 z "},"V":{"ha":692,"x_min":85,"x_max":681,"o":"m 364 -1 q 352 54 361 18 q 331 136 343 90 q 303 233 318 182 q 275 333 289 285 q 248 424 261 382 q 225 493 235 467 q 194 574 213 528 q 156 665 175 621 q 117 744 136 710 q 85 790 97 779 l 161 910 q 171 914 165 914 q 210 872 189 914 q 260 751 232 831 q 324 556 288 672 q 413 292 361 440 q 515 594 472 442 q 586 907 558 746 l 661 913 q 681 875 681 904 l 681 869 q 664 787 679 842 q 620 646 649 732 q 551 439 592 560 q 458 158 510 318 q 463 146 461 151 q 467 133 464 140 l 364 -1 z "},"W":{"ha":926,"x_min":85,"x_max":981,"o":"m 699 -1 q 688 53 696 18 q 667 131 679 88 q 642 223 656 175 q 615 317 628 271 q 589 404 601 364 q 567 471 576 444 l 564 478 q 515 328 543 407 q 458 165 486 249 q 464 149 461 158 q 471 133 467 140 l 368 -1 q 355 54 364 18 q 333 136 346 90 q 305 233 319 182 q 276 333 290 285 q 248 424 261 382 q 225 493 235 467 q 194 574 213 528 q 156 665 176 621 q 117 744 136 710 q 85 790 97 779 l 161 910 q 172 913 165 913 q 212 872 190 913 q 261 753 233 832 q 326 560 289 675 q 414 294 363 444 q 465 433 439 361 q 517 597 492 506 q 490 658 504 626 q 463 716 476 689 q 438 763 450 743 q 418 790 426 783 l 493 910 q 501 913 499 913 q 542 867 519 913 q 594 739 565 821 q 660 544 624 657 q 742 299 696 432 q 761 360 750 324 q 783 436 772 397 q 804 510 794 475 q 819 567 814 546 q 842 642 829 597 q 865 732 854 686 q 882 819 875 778 q 889 886 889 861 l 889 901 l 964 914 q 981 872 981 906 q 967 778 981 839 q 928 631 953 718 q 868 426 903 543 q 793 163 833 310 l 803 133 l 699 -1 z "},"X":{"ha":668,"x_min":58,"x_max":693,"o":"m 518 8 q 492 83 511 38 q 449 179 474 128 q 401 283 425 231 q 358 376 376 335 l 317 306 q 274 229 299 274 q 226 140 249 185 q 186 56 203 94 q 169 0 169 18 l 75 0 q 58 32 58 14 q 73 80 58 50 q 119 161 88 110 q 198 289 150 213 q 313 476 246 365 q 269 559 293 515 q 224 641 246 603 q 182 706 201 679 q 153 742 163 733 l 182 928 q 192 931 188 931 q 231 906 208 931 q 283 834 254 881 q 345 722 311 788 q 417 574 379 656 q 424 587 419 581 q 432 600 428 593 q 475 676 450 631 q 523 766 500 721 q 562 849 546 811 q 578 906 578 888 l 674 906 q 693 869 693 889 q 681 827 693 853 q 642 756 669 801 q 572 639 615 710 q 467 464 529 568 q 560 249 511 364 q 661 8 608 133 l 518 8 z "},"Y":{"ha":565,"x_min":74,"x_max":656,"o":"m 215 671 q 184 720 203 692 q 145 776 165 749 q 106 824 125 803 q 74 851 88 844 l 161 924 q 168 926 165 925 q 174 926 171 926 q 212 905 193 926 q 257 838 231 883 q 320 724 283 793 q 414 558 357 654 q 460 642 438 599 q 493 715 482 685 q 516 762 503 735 q 540 817 529 789 q 558 869 550 844 q 565 910 565 894 q 564 919 565 917 l 639 926 q 656 901 656 922 q 640 842 656 881 q 598 748 625 804 q 533 617 571 692 q 453 447 496 542 l 453 317 q 452 235 453 276 q 451 156 451 194 q 451 76 451 117 q 453 3 451 36 l 318 3 q 328 189 322 94 q 333 374 333 283 q 333 404 333 389 q 332 435 333 419 q 303 497 319 463 q 272 563 288 531 q 240 624 256 596 q 215 671 225 653 z "},"Z":{"ha":810,"x_min":154,"x_max":794,"o":"m 508 813 q 482 817 494 815 q 458 818 469 818 q 360 787 399 818 q 300 711 322 756 q 269 619 278 667 q 260 536 260 571 l 260 522 l 233 518 q 178 623 199 574 q 157 704 157 672 q 158 709 157 707 q 158 714 158 711 q 190 776 167 742 q 244 842 213 811 q 311 894 275 872 q 379 917 347 915 l 386 917 q 417 913 399 917 q 456 904 435 910 q 499 893 478 899 q 539 882 521 888 q 707 843 646 843 q 767 853 743 843 l 774 760 l 728 768 q 617 517 706 686 q 397 79 528 347 q 508 90 444 83 q 631 104 571 97 q 736 117 690 111 q 794 124 782 122 l 750 8 q 684 10 717 10 q 619 10 651 10 q 472 8 542 10 q 340 7 401 7 q 203 11 253 7 q 154 33 154 15 l 207 88 q 215 85 210 85 q 283 180 243 119 q 361 306 322 240 q 433 433 400 372 q 482 529 467 493 q 510 590 494 558 q 540 656 526 622 q 565 726 554 690 q 576 797 575 761 l 508 813 z "},"Á":{"ha":772,"x_min":43,"x_max":747,"o":"m 450 1031 q 376 970 406 994 q 326 931 346 946 q 296 908 307 915 q 279 901 285 901 q 268 908 271 901 l 272 996 q 303 1012 283 999 q 342 1040 322 1025 q 378 1070 365 1060 q 404 1096 390 1081 l 450 1031 m 611 0 q 588 76 607 17 q 538 218 568 135 l 214 218 q 213 216 214 217 q 213 214 213 215 l 138 -7 l 43 0 q 80 96 58 38 q 127 223 101 154 q 180 368 153 292 q 233 518 207 444 q 283 658 260 592 q 324 775 306 725 q 315 783 319 781 q 307 786 310 785 l 363 910 q 365 910 364 910 q 367 911 365 911 q 410 868 385 911 q 467 754 436 825 q 531 593 497 683 q 600 407 565 503 l 614 369 q 649 274 631 324 q 683 177 667 225 q 716 85 700 129 q 747 4 732 40 l 611 0 m 238 288 l 514 288 l 394 635 q 383 663 390 647 q 369 693 376 678 q 307 496 342 600 q 238 288 272 392 z "},"Â":{"ha":772,"x_min":43,"x_max":747,"o":"m 361 1072 q 389 1047 376 1057 q 426 1017 401 1036 q 464 989 446 1001 q 496 974 482 976 l 500 885 q 489 878 496 878 q 451 899 476 878 q 361 971 425 921 q 272 899 299 921 q 235 878 246 878 q 225 885 229 878 l 229 974 q 260 989 240 976 q 299 1017 279 1001 q 335 1047 322 1036 q 361 1072 347 1057 m 611 0 q 588 76 607 17 q 538 218 568 135 l 214 218 q 213 216 214 217 q 213 214 213 215 l 138 -7 l 43 0 q 80 96 58 38 q 127 223 101 154 q 180 368 153 292 q 233 518 207 444 q 283 658 260 592 q 324 775 306 725 q 315 783 319 781 q 307 786 310 785 l 363 910 q 365 910 364 910 q 367 911 365 911 q 410 868 385 911 q 467 754 436 825 q 531 593 497 683 q 600 407 565 503 l 614 369 q 649 274 631 324 q 683 177 667 225 q 716 85 700 129 q 747 4 732 40 l 611 0 m 238 288 l 514 288 l 394 635 q 383 663 390 647 q 369 693 376 678 q 307 496 342 600 q 238 288 272 392 z "},"Ã":{"ha":772,"x_min":43,"x_max":747,"o":"m 479 894 q 456 889 468 889 q 419 897 438 889 q 383 915 401 906 q 347 932 365 924 q 313 940 329 940 q 285 934 299 940 q 260 908 271 928 l 250 918 q 262 944 253 928 q 281 974 271 960 q 299 1000 290 989 q 311 1013 308 1011 q 336 1019 325 1019 q 372 1012 353 1019 q 408 994 390 1004 q 445 977 426 985 q 481 969 464 969 q 531 999 510 969 l 540 992 q 528 965 538 981 q 510 935 519 950 q 491 908 500 919 q 479 894 482 896 m 611 0 q 588 76 607 17 q 538 218 568 135 l 214 218 q 213 216 214 217 q 213 214 213 215 l 138 -7 l 43 0 q 80 96 58 38 q 127 223 101 154 q 180 368 153 292 q 233 518 207 444 q 283 658 260 592 q 324 775 306 725 q 315 783 319 781 q 307 786 310 785 l 363 910 q 365 910 364 910 q 367 911 365 911 q 410 868 385 911 q 467 754 436 825 q 531 593 497 683 q 600 407 565 503 l 614 369 q 649 274 631 324 q 683 177 667 225 q 716 85 700 129 q 747 4 732 40 l 611 0 m 238 288 l 514 288 l 394 635 q 383 663 390 647 q 369 693 376 678 q 307 496 342 600 q 238 288 272 392 z "},"Ä":{"ha":772,"x_min":43,"x_max":747,"o":"m 279 1022 q 305 1016 294 1022 q 322 1000 315 1010 q 330 979 328 990 q 332 958 332 968 q 315 919 332 936 q 275 901 299 901 q 235 920 250 901 q 221 961 221 939 q 221 969 221 964 q 224 978 221 974 q 244 1010 226 997 q 279 1022 261 1022 m 471 1022 q 497 1016 486 1022 q 513 1000 507 1010 q 522 979 519 990 q 524 958 524 968 q 507 919 524 936 q 465 901 490 901 q 428 920 442 901 q 414 961 414 939 q 414 969 414 964 q 415 978 414 974 q 436 1010 419 997 q 471 1022 453 1022 m 611 0 q 588 76 607 17 q 538 218 568 135 l 214 218 q 213 216 214 217 q 213 214 213 215 l 138 -7 l 43 0 q 80 96 58 38 q 127 223 101 154 q 180 368 153 292 q 233 518 207 444 q 283 658 260 592 q 324 775 306 725 q 315 783 319 781 q 307 786 310 785 l 363 910 q 365 910 364 910 q 367 911 365 911 q 410 868 385 911 q 467 754 436 825 q 531 593 497 683 q 600 407 565 503 l 614 369 q 649 274 631 324 q 683 177 667 225 q 716 85 700 129 q 747 4 732 40 l 611 0 m 238 288 l 514 288 l 394 635 q 383 663 390 647 q 369 693 376 678 q 307 496 342 600 q 238 288 272 392 z "},"Å":{"ha":772,"x_min":43,"x_max":747,"o":"m 611 0 q 588 76 607 17 q 538 218 568 135 l 214 218 q 213 216 214 217 q 213 214 213 215 l 138 -7 l 43 0 q 80 96 58 38 q 127 223 101 154 q 180 368 153 292 q 233 518 207 444 q 283 658 260 592 q 324 775 306 725 q 315 783 319 781 q 307 786 310 785 l 344 869 q 301 878 317 869 q 278 901 286 888 q 269 932 271 915 q 268 965 268 949 q 280 990 268 975 q 309 1018 292 1004 q 344 1042 326 1032 q 375 1053 363 1053 q 447 1028 429 1053 q 464 972 464 1004 q 464 963 464 968 q 463 954 464 958 q 441 922 463 942 q 396 886 419 901 q 439 812 415 861 q 489 698 463 763 q 543 558 515 633 q 600 407 571 483 l 614 369 q 649 274 631 324 q 683 177 667 225 q 716 85 700 129 q 747 4 732 40 l 611 0 m 238 288 l 514 288 l 394 635 q 383 663 390 647 q 369 693 376 678 q 307 496 342 600 q 238 288 272 392 m 408 903 q 414 933 414 915 q 398 992 414 964 q 351 1019 382 1019 q 321 1013 339 1019 q 311 978 311 999 q 324 933 311 954 q 358 901 338 911 l 363 910 q 365 910 364 910 q 367 911 365 911 q 389 897 375 911 q 408 903 394 897 z "},"Ç":{"ha":749,"x_min":82,"x_max":681,"o":"m 403 914 q 488 870 443 901 q 571 803 533 839 q 633 738 608 768 q 658 699 658 707 q 649 683 656 694 q 633 659 643 672 q 610 632 624 646 q 581 606 597 618 q 538 658 565 631 q 476 710 510 686 q 407 749 443 733 q 338 765 371 765 q 265 734 292 765 q 226 658 239 703 q 209 566 213 614 q 206 483 206 518 q 222 306 206 378 q 265 192 238 235 q 330 130 293 149 q 407 111 367 111 q 538 124 474 111 q 647 174 601 138 l 681 115 q 597 69 649 90 q 490 32 544 47 q 503 54 503 46 q 496 67 503 58 l 413 42 q 411 38 413 39 q 410 33 410 36 q 411 29 410 31 l 410 28 q 406 24 408 26 q 401 18 404 21 l 390 7 q 349 -1 367 1 q 321 -4 331 -3 q 212 37 257 0 q 138 129 167 74 q 95 252 108 185 q 82 385 82 319 q 87 471 82 429 q 100 544 92 513 q 124 601 106 565 q 167 678 142 638 q 224 761 193 719 q 285 837 254 803 q 344 892 315 871 q 397 914 374 914 l 403 914 m 321 -54 l 331 -54 l 332 -54 q 359 -26 343 -43 q 390 7 375 -10 q 438 18 413 11 q 490 32 463 25 l 489 31 l 472 15 q 441 -19 461 1 q 397 -65 421 -39 q 409 -86 403 -72 q 419 -115 415 -100 q 427 -144 424 -129 q 431 -168 431 -158 q 419 -195 428 -181 q 399 -223 411 -210 q 372 -244 386 -236 q 340 -253 357 -253 q 318 -249 331 -253 q 303 -240 314 -247 q 279 -225 292 -233 q 256 -208 267 -217 q 244 -190 246 -199 l 283 -157 q 310 -204 299 -204 q 329 -192 319 -204 q 347 -165 339 -181 q 361 -133 356 -149 q 367 -111 367 -118 q 362 -95 367 -100 q 350 -90 357 -90 q 333 -96 340 -90 q 324 -74 328 -87 q 321 -54 321 -61 z "},"É":{"ha":638,"x_min":44,"x_max":636,"o":"m 388 1072 q 313 1012 343 1036 q 264 972 283 988 q 233 949 244 956 q 217 942 222 942 q 206 949 210 942 l 210 1038 q 240 1053 221 1040 q 279 1081 260 1065 q 315 1110 303 1100 q 342 1136 328 1121 l 388 1072 m 44 901 q 108 900 75 900 q 171 900 140 900 l 394 900 q 524 894 482 900 q 565 861 565 888 l 486 806 q 423 822 461 819 q 353 824 385 824 l 339 824 q 280 822 315 824 q 208 819 244 821 q 217 689 215 767 q 219 519 219 611 l 219 496 q 265 492 242 493 q 317 490 289 490 l 331 490 q 401 492 363 490 q 463 508 439 494 l 549 453 q 522 422 549 429 q 421 415 494 415 l 219 415 l 219 347 q 219 273 219 310 q 218 199 218 236 l 218 85 q 320 80 265 82 q 413 78 375 78 l 426 78 q 497 80 458 78 q 560 96 535 82 l 636 39 q 595 8 636 14 q 469 1 554 1 l 390 1 q 345 2 369 1 q 294 3 321 3 q 210 2 257 3 q 117 0 163 1 l 83 0 q 87 60 85 13 q 91 172 89 107 q 94 313 93 238 q 97 455 96 388 q 99 573 99 522 q 100 642 100 624 q 98 724 100 685 q 85 782 96 763 l 106 811 l 83 808 l 44 901 z "},"Ê":{"ha":638,"x_min":44,"x_max":636,"o":"m 300 1114 q 328 1088 315 1099 q 364 1058 340 1078 q 402 1030 383 1043 q 433 1015 421 1017 l 439 926 q 426 919 433 919 q 389 941 415 919 q 300 1013 363 963 q 211 941 238 963 q 174 919 185 919 q 163 926 168 919 l 168 1015 q 199 1030 179 1017 q 238 1058 218 1043 q 274 1088 261 1078 q 300 1114 286 1099 m 44 901 q 108 900 75 900 q 171 900 140 900 l 394 900 q 524 894 482 900 q 565 861 565 888 l 486 806 q 423 822 461 819 q 353 824 385 824 l 339 824 q 280 822 315 824 q 208 819 244 821 q 217 689 215 767 q 219 519 219 611 l 219 496 q 265 492 242 493 q 317 490 289 490 l 331 490 q 401 492 363 490 q 463 508 439 494 l 549 453 q 522 422 549 429 q 421 415 494 415 l 219 415 l 219 347 q 219 273 219 310 q 218 199 218 236 l 218 85 q 320 80 265 82 q 413 78 375 78 l 426 78 q 497 80 458 78 q 560 96 535 82 l 636 39 q 595 8 636 14 q 469 1 554 1 l 390 1 q 345 2 369 1 q 294 3 321 3 q 210 2 257 3 q 117 0 163 1 l 83 0 q 87 60 85 13 q 91 172 89 107 q 94 313 93 238 q 97 455 96 388 q 99 573 99 522 q 100 642 100 624 q 98 724 100 685 q 85 782 96 763 l 106 811 l 83 808 l 44 901 z "},"Ë":{"ha":638,"x_min":44,"x_max":636,"o":"m 217 1063 q 242 1056 232 1063 q 259 1040 253 1050 q 267 1020 265 1031 q 269 1000 269 1010 q 253 960 269 978 q 213 942 236 942 q 173 960 188 942 q 158 1003 158 979 q 158 1010 158 1006 q 161 1018 158 1015 q 181 1050 164 1038 q 217 1063 199 1063 m 408 1063 q 434 1056 424 1063 q 451 1040 444 1050 q 459 1020 457 1031 q 461 1000 461 1010 q 444 960 461 978 q 403 942 428 942 q 365 960 379 942 q 351 1003 351 979 q 351 1010 351 1006 q 353 1018 351 1015 q 373 1050 356 1038 q 408 1063 390 1063 m 44 901 q 108 900 75 900 q 171 900 140 900 l 394 900 q 524 894 482 900 q 565 861 565 888 l 486 806 q 423 822 461 819 q 353 824 385 824 l 339 824 q 280 822 315 824 q 208 819 244 821 q 217 689 215 767 q 219 519 219 611 l 219 496 q 265 492 242 493 q 317 490 289 490 l 331 490 q 401 492 363 490 q 463 508 439 494 l 549 453 q 522 422 549 429 q 421 415 494 415 l 219 415 l 219 347 q 219 273 219 310 q 218 199 218 236 l 218 85 q 320 80 265 82 q 413 78 375 78 l 426 78 q 497 80 458 78 q 560 96 535 82 l 636 39 q 595 8 636 14 q 469 1 554 1 l 390 1 q 345 2 369 1 q 294 3 321 3 q 210 2 257 3 q 117 0 163 1 l 83 0 q 87 60 85 13 q 91 172 89 107 q 94 313 93 238 q 97 455 96 388 q 99 573 99 522 q 100 642 100 624 q 98 724 100 685 q 85 782 96 763 l 106 811 l 83 808 l 44 901 z "},"`":{"ha":456,"x_min":160,"x_max":342,"o":"m 206 756 q 232 730 219 740 q 268 700 244 719 q 306 672 288 685 q 338 657 325 660 l 342 568 q 331 561 338 561 q 313 568 324 561 q 283 591 303 575 q 234 631 264 607 q 160 692 204 656 l 206 756 z "},"À":{"ha":772,"x_min":43,"x_max":747,"o":"m 318 1081 q 344 1055 332 1065 q 381 1025 357 1044 q 419 997 400 1010 q 450 982 438 983 l 454 893 q 443 886 450 886 q 426 893 436 886 q 396 915 415 900 q 347 955 376 931 q 272 1015 317 979 l 318 1081 m 611 0 q 588 76 607 17 q 538 218 568 135 l 214 218 q 213 216 214 217 q 213 214 213 215 l 138 -7 l 43 0 q 80 96 58 38 q 127 223 101 154 q 180 368 153 292 q 233 518 207 444 q 283 658 260 592 q 324 775 306 725 q 315 783 319 781 q 307 786 310 785 l 363 910 q 365 910 364 910 q 367 911 365 911 q 410 868 385 911 q 467 754 436 825 q 531 593 497 683 q 600 407 565 503 l 614 369 q 649 274 631 324 q 683 177 667 225 q 716 85 700 129 q 747 4 732 40 l 611 0 m 238 288 l 514 288 l 394 635 q 383 663 390 647 q 369 693 376 678 q 307 496 342 600 q 238 288 272 392 z "},"È":{"ha":638,"x_min":44,"x_max":636,"o":"m 256 1122 q 282 1097 269 1107 q 318 1067 294 1086 q 356 1038 338 1051 q 388 1022 375 1025 l 392 933 q 381 926 388 926 q 363 933 374 926 q 333 956 353 940 q 284 997 314 972 q 210 1057 254 1021 l 256 1122 m 44 901 q 108 900 75 900 q 171 900 140 900 l 394 900 q 524 894 482 900 q 565 861 565 888 l 486 806 q 423 822 461 819 q 353 824 385 824 l 339 824 q 280 822 315 824 q 208 819 244 821 q 217 689 215 767 q 219 519 219 611 l 219 496 q 265 492 242 493 q 317 490 289 490 l 331 490 q 401 492 363 490 q 463 508 439 494 l 549 453 q 522 422 549 429 q 421 415 494 415 l 219 415 l 219 347 q 219 273 219 310 q 218 199 218 236 l 218 85 q 320 80 265 82 q 413 78 375 78 l 426 78 q 497 80 458 78 q 560 96 535 82 l 636 39 q 595 8 636 14 q 469 1 554 1 l 390 1 q 345 2 369 1 q 294 3 321 3 q 210 2 257 3 q 117 0 163 1 l 83 0 q 87 60 85 13 q 91 172 89 107 q 94 313 93 238 q 97 455 96 388 q 99 573 99 522 q 100 642 100 624 q 98 724 100 685 q 85 782 96 763 l 106 811 l 83 808 l 44 901 z "},"Ì":{"ha":310,"x_min":71,"x_max":253,"o":"m 85 0 q 88 60 86 13 q 92 172 90 107 q 94 313 93 238 q 97 455 96 388 q 98 573 97 522 q 99 642 99 624 q 97 726 99 685 q 85 788 96 768 l 171 901 q 196 872 186 901 q 210 790 206 842 q 217 668 215 738 q 218 519 218 599 l 218 347 l 218 199 q 218 97 218 147 q 219 3 218 46 l 85 0 m 117 1104 q 143 1078 131 1089 q 179 1049 156 1068 q 217 1021 199 1033 q 249 1006 236 1008 l 253 917 q 239 910 247 908 q 212 926 231 913 q 160 968 193 940 q 71 1040 126 996 l 117 1104 z "},"Í":{"ha":310,"x_min":67,"x_max":249,"o":"m 85 0 q 88 60 86 13 q 92 172 90 107 q 94 313 93 238 q 97 455 96 388 q 98 573 97 522 q 99 642 99 624 q 97 726 99 685 q 85 788 96 768 l 171 901 q 196 872 186 901 q 210 790 206 842 q 217 668 215 738 q 218 519 218 599 l 218 347 l 218 199 q 218 97 218 147 q 219 3 218 46 l 85 0 m 249 1054 q 159 982 192 1010 q 108 941 126 954 q 81 926 89 928 q 67 932 72 924 l 71 1021 q 101 1035 82 1022 q 140 1064 121 1049 q 176 1094 164 1083 q 203 1119 189 1104 l 249 1054 z "},"Î":{"ha":310,"x_min":24,"x_max":300,"o":"m 85 0 q 88 60 86 13 q 92 172 90 107 q 94 313 93 238 q 97 455 96 388 q 98 573 97 522 q 99 642 99 624 q 97 726 99 685 q 85 788 96 768 l 171 901 q 196 872 186 901 q 210 790 206 842 q 217 668 215 738 q 218 519 218 599 l 218 347 l 218 199 q 218 97 218 147 q 219 3 218 46 l 85 0 m 161 1094 l 163 1097 q 189 1071 176 1082 q 225 1040 201 1060 q 263 1013 244 1025 q 294 997 282 1000 l 300 908 q 286 902 293 901 q 265 913 279 903 q 226 942 250 922 q 161 996 201 963 q 96 942 121 963 q 57 913 71 922 q 36 902 43 903 q 24 908 29 901 l 28 997 q 60 1013 40 1000 q 99 1040 79 1025 q 134 1071 122 1060 q 161 1097 146 1082 l 161 1094 z "},"Ï":{"ha":310,"x_min":19,"x_max":322,"o":"m 85 0 q 88 60 86 13 q 92 172 90 107 q 94 313 93 238 q 97 455 96 388 q 98 573 97 522 q 99 642 99 624 q 97 726 99 685 q 85 788 96 768 l 171 901 q 196 872 186 901 q 210 790 206 842 q 217 668 215 738 q 218 519 218 599 l 218 347 l 218 199 q 218 97 218 147 q 219 3 218 46 l 85 0 m 78 1046 q 103 1040 93 1046 q 120 1024 114 1033 q 128 1003 126 1014 q 131 983 131 993 q 113 942 131 960 q 72 925 96 925 q 34 944 49 925 q 19 985 19 963 q 22 1001 19 996 q 42 1033 25 1021 q 78 1046 60 1046 m 269 1046 q 295 1040 285 1046 q 312 1024 306 1033 q 320 1003 318 1014 q 322 983 322 993 q 306 942 322 960 q 264 925 289 925 q 226 944 240 925 q 213 985 213 963 q 214 1001 213 996 q 234 1033 217 1021 q 269 1046 251 1046 z "},"Ñ":{"ha":775,"x_min":108,"x_max":697,"o":"m 513 981 q 489 976 500 976 q 452 985 471 976 q 415 1002 433 993 q 379 1019 397 1011 q 344 1028 361 1028 q 317 1021 331 1028 q 293 996 304 1014 l 283 1004 q 295 1030 286 1014 q 314 1060 304 1046 q 333 1086 324 1075 q 344 1099 342 1097 q 369 1106 353 1106 q 404 1098 386 1106 q 441 1081 422 1090 q 478 1063 460 1071 q 514 1056 497 1056 q 564 1085 543 1056 l 572 1079 q 561 1052 569 1068 q 543 1021 553 1036 q 524 994 533 1006 q 513 981 515 982 m 601 0 l 597 1 q 566 60 590 18 q 507 158 542 101 q 429 281 472 214 q 343 414 386 347 q 264 534 301 476 q 199 636 226 592 l 199 492 l 199 168 q 199 82 199 125 q 200 3 199 39 l 110 3 q 113 61 111 14 q 117 174 115 108 q 119 313 118 239 q 122 455 121 388 q 123 573 122 522 q 124 642 124 624 q 122 726 124 685 q 108 788 119 768 l 160 924 l 163 921 q 251 775 197 857 q 360 611 304 693 q 489 417 422 518 q 610 228 556 317 q 613 357 611 290 q 615 482 614 424 q 616 583 615 540 q 617 642 617 626 q 615 726 617 685 q 603 788 614 768 l 653 900 q 675 883 667 900 q 688 834 683 865 q 695 760 693 803 q 697 667 697 718 q 697 638 697 653 q 694 606 696 624 l 694 422 q 693 288 694 360 q 692 153 692 215 q 692 76 692 115 q 693 3 693 36 l 601 0 z "},"Ò":{"ha":760,"x_min":53,"x_max":738,"o":"m 394 1146 q 421 1120 408 1131 q 457 1090 433 1110 q 495 1062 476 1075 q 526 1047 514 1049 l 531 958 q 519 951 526 951 q 502 958 513 951 q 472 981 492 965 q 423 1020 453 996 q 349 1081 393 1044 l 394 1146 m 72 544 q 155 717 101 647 q 269 831 208 788 q 392 894 331 875 q 499 913 454 913 q 611 876 565 913 q 685 783 657 840 q 725 658 713 726 q 738 522 738 589 q 718 363 738 432 q 638 194 690 264 q 524 81 585 125 q 401 17 463 38 q 294 -4 339 -4 q 182 31 228 -4 q 107 123 136 67 q 65 248 78 179 q 53 383 53 317 q 72 544 53 478 m 339 800 q 288 789 317 799 q 234 747 260 779 q 191 651 208 714 q 174 483 174 589 l 174 458 q 197 304 174 371 q 255 193 219 238 q 334 126 290 149 q 418 104 378 104 q 503 117 467 104 q 563 167 539 129 q 601 276 588 206 q 617 465 614 347 l 617 479 q 588 649 615 585 q 522 747 561 713 q 440 791 483 781 q 364 801 397 801 q 339 800 346 801 z "},"Ó":{"ha":760,"x_min":53,"x_max":738,"o":"m 526 1096 q 452 1035 482 1060 q 403 995 422 1011 q 372 972 383 979 q 356 965 361 965 q 344 972 349 965 l 349 1061 q 379 1076 360 1064 q 418 1104 399 1089 q 454 1135 442 1124 q 481 1161 467 1146 l 526 1096 m 72 544 q 155 717 101 647 q 269 831 208 788 q 392 894 331 875 q 499 913 454 913 q 611 876 565 913 q 685 783 657 840 q 725 658 713 726 q 738 522 738 589 q 718 363 738 432 q 638 194 690 264 q 524 81 585 125 q 401 17 463 38 q 294 -4 339 -4 q 182 31 228 -4 q 107 123 136 67 q 65 248 78 179 q 53 383 53 317 q 72 544 53 478 m 339 800 q 288 789 317 799 q 234 747 260 779 q 191 651 208 714 q 174 483 174 589 l 174 458 q 197 304 174 371 q 255 193 219 238 q 334 126 290 149 q 418 104 378 104 q 503 117 467 104 q 563 167 539 129 q 601 276 588 206 q 617 465 614 347 l 617 479 q 588 649 615 585 q 522 747 561 713 q 440 791 483 781 q 364 801 397 801 q 339 800 346 801 z "},"Ô":{"ha":760,"x_min":53,"x_max":738,"o":"m 439 1138 q 467 1112 454 1122 q 503 1082 479 1101 q 541 1053 522 1067 q 572 1039 560 1040 l 578 950 q 567 943 571 943 q 528 965 554 943 q 439 1036 501 986 q 350 965 376 986 q 313 943 324 943 q 306 945 308 943 q 301 950 304 947 l 307 1039 q 338 1053 318 1040 q 376 1082 357 1067 q 413 1112 400 1101 q 439 1138 425 1122 m 72 544 q 155 717 101 647 q 269 831 208 788 q 392 894 331 875 q 499 913 454 913 q 611 876 565 913 q 685 783 657 840 q 725 658 713 726 q 738 522 738 589 q 718 363 738 432 q 638 194 690 264 q 524 81 585 125 q 401 17 463 38 q 294 -4 339 -4 q 182 31 228 -4 q 107 123 136 67 q 65 248 78 179 q 53 383 53 317 q 72 544 53 478 m 339 800 q 288 789 317 799 q 234 747 260 779 q 191 651 208 714 q 174 483 174 589 l 174 458 q 197 304 174 371 q 255 193 219 238 q 334 126 290 149 q 418 104 378 104 q 503 117 467 104 q 563 167 539 129 q 601 276 588 206 q 617 465 614 347 l 617 479 q 588 649 615 585 q 522 747 561 713 q 440 791 483 781 q 364 801 397 801 q 339 800 346 801 z "},"Õ":{"ha":760,"x_min":53,"x_max":738,"o":"m 556 958 q 532 954 543 954 q 495 963 514 954 q 458 980 476 971 q 423 997 440 989 q 389 1006 406 1006 q 360 999 374 1006 q 336 974 347 992 l 326 983 q 338 1008 329 993 q 357 1038 347 1024 q 376 1064 367 1053 q 388 1078 385 1075 q 413 1085 401 1085 q 448 1077 429 1085 q 485 1060 467 1069 q 522 1042 503 1050 q 557 1035 540 1035 q 583 1041 571 1035 q 607 1064 596 1047 l 617 1057 q 605 1030 614 1046 q 586 999 596 1014 q 567 972 576 983 q 556 958 558 960 m 72 544 q 155 717 101 647 q 269 831 208 788 q 392 894 331 875 q 499 913 454 913 q 611 876 565 913 q 685 783 657 840 q 725 658 713 726 q 738 522 738 589 q 718 363 738 432 q 638 194 690 264 q 524 81 585 125 q 401 17 463 38 q 294 -4 339 -4 q 182 31 228 -4 q 107 123 136 67 q 65 248 78 179 q 53 383 53 317 q 72 544 53 478 m 339 800 q 288 789 317 799 q 234 747 260 779 q 191 651 208 714 q 174 483 174 589 l 174 458 q 197 304 174 371 q 255 193 219 238 q 334 126 290 149 q 418 104 378 104 q 503 117 467 104 q 563 167 539 129 q 601 276 588 206 q 617 465 614 347 l 617 479 q 588 649 615 585 q 522 747 561 713 q 440 791 483 781 q 364 801 397 801 q 339 800 346 801 z "},"Ö":{"ha":760,"x_min":53,"x_max":738,"o":"m 356 1086 q 381 1080 371 1086 q 398 1064 392 1074 q 406 1044 404 1054 q 408 1024 408 1033 q 392 983 408 1001 q 351 965 375 965 q 312 984 326 965 q 297 1026 297 1003 q 297 1034 297 1029 q 300 1042 297 1039 q 320 1074 303 1061 q 356 1086 338 1086 m 547 1086 q 573 1080 563 1086 q 590 1064 583 1074 q 598 1044 596 1054 q 600 1024 600 1033 q 583 983 600 1001 q 542 965 567 965 q 504 984 518 965 q 490 1026 490 1003 q 490 1034 490 1029 q 492 1042 490 1039 q 513 1074 496 1061 q 547 1086 529 1086 m 72 544 q 155 717 101 647 q 269 831 208 788 q 392 894 331 875 q 499 913 454 913 q 611 876 565 913 q 685 783 657 840 q 725 658 713 726 q 738 522 738 589 q 718 363 738 432 q 638 194 690 264 q 524 81 585 125 q 401 17 463 38 q 294 -4 339 -4 q 182 31 228 -4 q 107 123 136 67 q 65 248 78 179 q 53 383 53 317 q 72 544 53 478 m 339 800 q 288 789 317 799 q 234 747 260 779 q 191 651 208 714 q 174 483 174 589 l 174 458 q 197 304 174 371 q 255 193 219 238 q 334 126 290 149 q 418 104 378 104 q 503 117 467 104 q 563 167 539 129 q 601 276 588 206 q 617 465 614 347 l 617 479 q 588 649 615 585 q 522 747 561 713 q 440 791 483 781 q 364 801 397 801 q 339 800 346 801 z "}}}
